SplineFontDB: 3.0
FontName: RisingSun-Heavy
FullName: Rising Sun Heavy
FamilyName: Rising Sun Heavy
Weight: Heavy
Copyright: Copyright (c) 2010 - 2013, Matt McInerney (matt@pixelspread.com), Pablo Impallari (impallari@gmail.com), Rodrigo Fuenzalida (hello@rfuenzalida.com) with Reserved Font Name RALEWAY.\nCopyright (c) 2016, Cristiano Sobral (cssobral2013@gmail.com), with Reserved Font Name RISING SUN.
Version: 1.000
ItalicAngle: 0
UnderlinePosition: -100
UnderlineWidth: 50
Ascent: 800
Descent: 200
InvalidEm: 0
sfntRevision: 0x00010000
LayerCount: 2
Layer: 0 1 "Back" 1
Layer: 1 1 "Fore" 0
XUID: [1021 368 144034212 5217]
StyleMap: 0x0020
FSType: 4
OS2Version: 3
OS2_WeightWidthSlopeOnly: 0
OS2_UseTypoMetrics: 0
CreationTime: 1380014460
ModificationTime: 1466167875
PfmFamily: 17
TTFWeight: 800
TTFWidth: 5
LineGap: 0
VLineGap: 0
Panose: 2 11 9 3 3 1 1 6 0 3
OS2TypoAscent: 800
OS2TypoAOffset: 0
OS2TypoDescent: -200
OS2TypoDOffset: 0
OS2TypoLinegap: 0
OS2WinAscent: 920
OS2WinAOffset: 0
OS2WinDescent: 251
OS2WinDOffset: 0
HheadAscent: 920
HheadAOffset: 0
HheadDescent: -251
HheadDOffset: 0
OS2SubXSize: 700
OS2SubYSize: 650
OS2SubXOff: 0
OS2SubYOff: 140
OS2SupXSize: 700
OS2SupYSize: 650
OS2SupXOff: 0
OS2SupYOff: 477
OS2StrikeYSize: 50
OS2StrikeYPos: 250
OS2CapHeight: 710
OS2XHeight: 525
OS2Vendor: 'pyrs'
OS2CodePages: 20000097.00000000
OS2UnicodeRanges: a00002ff.5000205b.00000000.00000000
Lookup: 1 0 0 "'aalt' Access All Alternates in Latin lookup 0" { "'aalt' Access All Alternates in Latin lookup 0 subtable"  } ['aalt' ('latn' <'dflt' > ) ]
Lookup: 3 0 0 "'aalt' Access All Alternates in Latin lookup 1" { "'aalt' Access All Alternates in Latin lookup 1 subtable"  } ['aalt' ('latn' <'dflt' > ) ]
Lookup: 1 0 0 "'smcp' Lowercase to Small Capitals in Latin lookup 2" { "'smcp' Lowercase to Small Capitals in Latin lookup 2 subtable"  } ['smcp' ('latn' <'dflt' > ) ]

StartChar: exclam
Encoding: 33 33 5
Width: 333
GlyphClass: 2
Flags: W
LayerCount: 2
Fore
SplineSet
86 282 m 1,0,-1
 86 717 l 1,1,-1
 246 717 l 1,2,-1
 246 282 l 1,3,-1
 86 282 l 1,0,-1
86 0 m 1,4,-1
 86 166 l 1,5,-1
 246 166 l 1,6,-1
 246 0 l 1,7,-1
 86 0 l 1,4,-1
EndSplineSet
EndChar

StartChar: quotedbl
Encoding: 34 34 6
Width: 431
GlyphClass: 2
Flags: W
LayerCount: 2
Fore
SplineSet
57 498 m 1,0,-1
 57 726 l 1,1,-1
 192 726 l 1,2,-1
 192 498 l 1,3,-1
 57 498 l 1,0,-1
239 498 m 1,4,-1
 239 726 l 1,5,-1
 374 726 l 1,6,-1
 374 498 l 1,7,-1
 239 498 l 1,4,-1
EndSplineSet
EndChar

StartChar: numbersign
Encoding: 35 35 7
Width: 738
GlyphClass: 2
Flags: W
LayerCount: 2
Fore
SplineSet
702 412 m 1,0,-1
 550 412 l 1,1,-1
 523 298 l 1,2,-1
 653 298 l 1,3,-1
 653 179 l 1,4,-1
 494 179 l 1,5,-1
 451 0 l 1,6,-1
 323 0 l 1,7,-1
 367 179 l 1,8,-1
 276 179 l 1,9,-1
 232 0 l 1,10,-1
 104 0 l 1,11,-1
 149 179 l 1,12,-1
 36 179 l 1,13,-1
 36 298 l 1,14,-1
 177 298 l 1,15,-1
 204 412 l 1,16,-1
 85 412 l 1,17,-1
 85 522 l 1,18,-1
 231 522 l 1,19,-1
 277 710 l 1,20,-1
 405 710 l 1,21,-1
 358 522 l 1,22,-1
 450 522 l 1,23,-1
 496 710 l 1,24,-1
 624 710 l 1,25,-1
 577 522 l 1,26,-1
 702 522 l 1,27,-1
 702 412 l 1,0,-1
396 298 m 1,28,-1
 423 412 l 1,29,-1
 331 412 l 1,30,-1
 304 298 l 1,31,-1
 396 298 l 1,28,-1
EndSplineSet
EndChar

StartChar: dollar
Encoding: 36 36 8
Width: 641
GlyphClass: 2
Flags: W
LayerCount: 2
Fore
SplineSet
509 502 m 1,0,1
 506 506 506 506 491.5 515 c 128,-1,2
 477 524 477 524 454.5 534.5 c 128,-1,3
 432 545 432 545 404.5 554.5 c 128,-1,4
 377 564 377 564 349 568 c 1,5,-1
 349 432 l 1,6,-1
 381 424 l 2,7,8
 432 410 432 410 473 393.5 c 128,-1,9
 514 377 514 377 542.5 352.5 c 128,-1,10
 571 328 571 328 586.5 293 c 128,-1,11
 602 258 602 258 602 209 c 0,12,13
 602 152 602 152 582 112 c 128,-1,14
 562 72 562 72 528.5 46.5 c 128,-1,15
 495 21 495 21 451.5 8 c 128,-1,16
 408 -5 408 -5 360 -7 c 1,17,-1
 360 -123 l 1,18,-1
 291 -123 l 1,19,-1
 291 -6 l 1,20,21
 222 0 222 0 154.5 22 c 128,-1,22
 87 44 87 44 33 80 c 1,23,-1
 105 223 l 1,24,25
 109 218 109 218 126.5 206.5 c 128,-1,26
 144 195 144 195 171 182.5 c 128,-1,27
 198 170 198 170 232 158.5 c 128,-1,28
 266 147 266 147 302 142 c 1,29,-1
 302 275 l 1,30,-1
 254 289 l 2,31,32
 205 304 205 304 169 321.5 c 128,-1,33
 133 339 133 339 109.5 362 c 128,-1,34
 86 385 86 385 74.5 415 c 128,-1,35
 63 445 63 445 63 485 c 0,36,37
 63 537 63 537 81 577.5 c 128,-1,38
 99 618 99 618 129.5 647 c 128,-1,39
 160 676 160 676 201.5 692.5 c 128,-1,40
 243 709 243 709 291 714 c 1,41,-1
 291 815 l 1,42,-1
 360 815 l 1,43,-1
 360 714 l 1,44,45
 425 708 425 708 482 685 c 128,-1,46
 539 662 539 662 581 638 c 1,47,-1
 509 502 l 1,0,1
426 193 m 0,48,49
 426 219 426 219 405 233.5 c 128,-1,50
 384 248 384 248 349 260 c 1,51,-1
 349 140 l 1,52,53
 426 143 426 143 426 193 c 0,48,49
232 511 m 0,54,55
 232 486 232 486 249.5 471.5 c 128,-1,56
 267 457 267 457 302 446 c 1,57,-1
 302 569 l 1,58,59
 232 563 232 563 232 511 c 0,54,55
EndSplineSet
EndChar

StartChar: percent
Encoding: 37 37 9
Width: 816
GlyphClass: 2
Flags: W
LayerCount: 2
Fore
SplineSet
205 411 m 256,0,1
 169 411 169 411 138 423 c 128,-1,2
 107 435 107 435 84 456 c 128,-1,3
 61 477 61 477 47.5 505.5 c 128,-1,4
 34 534 34 534 34 566 c 256,5,6
 34 598 34 598 47.5 626 c 128,-1,7
 61 654 61 654 84 675 c 128,-1,8
 107 696 107 696 138 708 c 128,-1,9
 169 720 169 720 205 720 c 256,10,11
 241 720 241 720 272 708 c 128,-1,12
 303 696 303 696 326.5 675 c 128,-1,13
 350 654 350 654 363 626 c 128,-1,14
 376 598 376 598 376 566 c 256,15,16
 376 534 376 534 363 505.5 c 128,-1,17
 350 477 350 477 326.5 456 c 128,-1,18
 303 435 303 435 272 423 c 128,-1,19
 241 411 241 411 205 411 c 256,0,1
205 489 m 256,20,21
 230 489 230 489 247.5 511.5 c 128,-1,22
 265 534 265 534 265 566 c 256,23,24
 265 598 265 598 247.5 620 c 128,-1,25
 230 642 230 642 205 642 c 256,26,27
 180 642 180 642 162.5 619.5 c 128,-1,28
 145 597 145 597 145 566 c 0,29,30
 145 534 145 534 162.5 511.5 c 128,-1,31
 180 489 180 489 205 489 c 256,20,21
611 -10 m 256,32,33
 575 -10 575 -10 544 2 c 128,-1,34
 513 14 513 14 490 35 c 128,-1,35
 467 56 467 56 453.5 84 c 128,-1,36
 440 112 440 112 440 144 c 256,37,38
 440 176 440 176 453.5 204.5 c 128,-1,39
 467 233 467 233 490 254 c 128,-1,40
 513 275 513 275 544 287 c 128,-1,41
 575 299 575 299 611 299 c 256,42,43
 647 299 647 299 678 287 c 128,-1,44
 709 275 709 275 732.5 254 c 128,-1,45
 756 233 756 233 769 204.5 c 128,-1,46
 782 176 782 176 782 144 c 256,47,48
 782 112 782 112 769 84 c 128,-1,49
 756 56 756 56 732.5 35 c 128,-1,50
 709 14 709 14 678 2 c 128,-1,51
 647 -10 647 -10 611 -10 c 256,32,33
611 68 m 256,52,53
 636 68 636 68 654 90.5 c 128,-1,54
 672 113 672 113 672 144 c 0,55,56
 672 176 672 176 654 198.5 c 128,-1,57
 636 221 636 221 611 221 c 256,58,59
 586 221 586 221 568.5 198.5 c 128,-1,60
 551 176 551 176 551 144 c 256,61,62
 551 112 551 112 568.5 90 c 128,-1,63
 586 68 586 68 611 68 c 256,52,53
103 56 m 1,64,-1
 385 380 l 1,65,-1
 641 719 l 1,66,-1
 713 655 l 1,67,-1
 440 339 l 1,68,-1
 174 -9 l 1,69,-1
 103 56 l 1,64,-1
EndSplineSet
EndChar

StartChar: ampersand
Encoding: 38 38 10
Width: 729
GlyphClass: 2
Flags: W
LayerCount: 2
Fore
SplineSet
522 0 m 1,0,-1
 475 50 l 1,1,2
 431 20 431 20 382 5 c 128,-1,3
 333 -10 333 -10 282 -10 c 0,4,5
 224 -10 224 -10 178.5 8.5 c 128,-1,6
 133 27 133 27 102 57.5 c 128,-1,7
 71 88 71 88 54.5 127 c 128,-1,8
 38 166 38 166 38 208 c 0,9,10
 38 240 38 240 47 267.5 c 128,-1,11
 56 295 56 295 71.5 318 c 128,-1,12
 87 341 87 341 107 361 c 128,-1,13
 127 381 127 381 149 398 c 1,14,15
 113 442 113 442 98 473.5 c 128,-1,16
 83 505 83 505 83 543 c 0,17,18
 83 584 83 584 98 616.5 c 128,-1,19
 113 649 113 649 140 672 c 128,-1,20
 167 695 167 695 203.5 707 c 128,-1,21
 240 719 240 719 283 719 c 0,22,23
 321 719 321 719 357 709.5 c 128,-1,24
 393 700 393 700 420.5 679.5 c 128,-1,25
 448 659 448 659 465 628.5 c 128,-1,26
 482 598 482 598 482 556 c 0,27,28
 482 499 482 499 452 455.5 c 128,-1,29
 422 412 422 412 374 376 c 1,30,-1
 485 258 l 1,31,32
 498 288 498 288 505.5 323.5 c 128,-1,33
 513 359 513 359 513 401 c 1,34,-1
 642 401 l 1,35,36
 641 327 641 327 624.5 267.5 c 128,-1,37
 608 208 608 208 579 160 c 1,38,-1
 732 0 l 1,39,-1
 522 0 l 1,0,-1
299 115 m 0,40,41
 346 115 346 115 388 142 c 1,42,-1
 247 292 l 1,43,44
 221 272 221 272 206 251.5 c 128,-1,45
 191 231 191 231 191 207 c 0,46,47
 191 191 191 191 198 174.5 c 128,-1,48
 205 158 205 158 219 145 c 128,-1,49
 233 132 233 132 253 123.5 c 128,-1,50
 273 115 273 115 299 115 c 0,40,41
228 549 m 0,51,52
 228 533 228 533 238 519.5 c 128,-1,53
 248 506 248 506 274 480 c 1,54,55
 305 500 305 500 320 516 c 128,-1,56
 335 532 335 532 335 554 c 256,57,58
 335 576 335 576 320.5 589 c 128,-1,59
 306 602 306 602 283 602 c 0,60,61
 258 602 258 602 243 587 c 128,-1,62
 228 572 228 572 228 549 c 0,51,52
EndSplineSet
EndChar

StartChar: quotesingle
Encoding: 39 39 11
Width: 250
GlyphClass: 2
Flags: W
LayerCount: 2
Fore
SplineSet
57 497 m 1,0,-1
 57 726 l 1,1,-1
 192 726 l 1,2,-1
 192 497 l 1,3,-1
 57 497 l 1,0,-1
EndSplineSet
EndChar

StartChar: parenleft
Encoding: 40 40 12
Width: 325
GlyphClass: 2
Flags: W
LayerCount: 2
Fore
SplineSet
30 347 m 0,0,1
 30 398 30 398 42 449 c 128,-1,2
 54 500 54 500 74.5 552 c 128,-1,3
 95 604 95 604 122.5 657 c 128,-1,4
 150 710 150 710 182 764 c 1,5,-1
 304 714 l 1,6,7
 290 692 290 692 269 651.5 c 128,-1,8
 248 611 248 611 228 560 c 128,-1,9
 208 509 208 509 193.5 453 c 128,-1,10
 179 397 179 397 179 344 c 0,11,12
 179 263 179 263 213 177.5 c 128,-1,13
 247 92 247 92 300 -2 c 1,14,-1
 184 -59 l 1,15,16
 153 -13 153 -13 125 37 c 128,-1,17
 97 87 97 87 76 138.5 c 128,-1,18
 55 190 55 190 42.5 242.5 c 128,-1,19
 30 295 30 295 30 347 c 0,0,1
EndSplineSet
EndChar

StartChar: parenright
Encoding: 41 41 13
Width: 324
GlyphClass: 2
Flags: W
LayerCount: 2
Fore
SplineSet
294 347 m 0,0,1
 294 295 294 295 281.5 242.5 c 128,-1,2
 269 190 269 190 248 138.5 c 128,-1,3
 227 87 227 87 199 37 c 128,-1,4
 171 -13 171 -13 140 -59 c 1,5,-1
 24 -2 l 1,6,7
 77 92 77 92 111 177.5 c 128,-1,8
 145 263 145 263 145 344 c 0,9,10
 145 397 145 397 130.5 453 c 128,-1,11
 116 509 116 509 96 560 c 128,-1,12
 76 611 76 611 55 651.5 c 128,-1,13
 34 692 34 692 20 714 c 1,14,-1
 142 764 l 1,15,16
 174 710 174 710 201.5 657 c 128,-1,17
 229 604 229 604 249.5 552 c 128,-1,18
 270 500 270 500 282 449 c 128,-1,19
 294 398 294 398 294 347 c 0,0,1
EndSplineSet
EndChar

StartChar: asterisk
Encoding: 42 42 14
Width: 354
GlyphClass: 2
Flags: W
LayerCount: 2
Fore
SplineSet
71 510 m 1,0,-1
 118 585 l 1,1,-1
 47 606 l 1,2,-1
 68 673 l 1,3,-1
 141 639 l 1,4,-1
 135 719 l 1,5,-1
 218 719 l 1,6,-1
 212 639 l 1,7,-1
 286 673 l 1,8,-1
 307 606 l 1,9,-1
 236 585 l 1,10,-1
 283 510 l 1,11,-1
 224 471 l 1,12,-1
 177 550 l 1,13,-1
 130 471 l 1,14,-1
 71 510 l 1,0,-1
EndSplineSet
EndChar

StartChar: plus
Encoding: 43 43 15
Width: 424
GlyphClass: 2
Flags: W
LayerCount: 2
Fore
SplineSet
379 419 m 1,0,-1
 379 291 l 1,1,-1
 284 291 l 1,2,-1
 284 187 l 1,3,-1
 140 187 l 1,4,-1
 140 291 l 1,5,-1
 46 291 l 1,6,-1
 46 419 l 1,7,-1
 140 419 l 1,8,-1
 140 523 l 1,9,-1
 284 523 l 1,10,-1
 284 419 l 1,11,-1
 379 419 l 1,0,-1
EndSplineSet
EndChar

StartChar: comma
Encoding: 44 44 16
Width: 243
GlyphClass: 2
Flags: W
LayerCount: 2
Fore
SplineSet
72 -135 m 1,0,-1
 103 2 l 1,1,-1
 54 2 l 1,2,-1
 54 163 l 1,3,-1
 189 163 l 1,4,-1
 189 2 l 1,5,-1
 142 -135 l 1,6,-1
 72 -135 l 1,0,-1
EndSplineSet
EndChar

StartChar: hyphen
Encoding: 45 45 17
Width: 416
GlyphClass: 2
Flags: W
LayerCount: 2
Fore
SplineSet
54 203 m 1,0,-1
 54 347 l 1,1,-1
 362 347 l 1,2,-1
 362 203 l 1,3,-1
 54 203 l 1,0,-1
EndSplineSet
EndChar

StartChar: period
Encoding: 46 46 18
Width: 239
GlyphClass: 2
Flags: W
LayerCount: 2
Fore
SplineSet
54 0 m 1,0,-1
 54 163 l 1,1,-1
 185 163 l 1,2,-1
 185 0 l 1,3,-1
 54 0 l 1,0,-1
EndSplineSet
EndChar

StartChar: slash
Encoding: 47 47 19
Width: 735
GlyphClass: 2
Flags: W
LayerCount: 2
Fore
SplineSet
708 710 m 1,0,-1
 203 0 l 1,1,-1
 26 0 l 1,2,-1
 531 710 l 1,3,-1
 708 710 l 1,0,-1
EndSplineSet
EndChar

StartChar: zero
Encoding: 48 48 20
Width: 707
GlyphClass: 2
Flags: W
LayerCount: 2
Fore
SplineSet
353 -10 m 0,0,1
 275 -10 275 -10 216.5 24 c 128,-1,2
 158 58 158 58 118.5 110.5 c 128,-1,3
 79 163 79 163 59 226.5 c 128,-1,4
 39 290 39 290 39 350 c 0,5,6
 39 414 39 414 61 478.5 c 128,-1,7
 83 543 83 543 123.5 594.5 c 128,-1,8
 164 646 164 646 222 678 c 128,-1,9
 280 710 280 710 353 710 c 0,10,11
 431 710 431 710 490 675.5 c 128,-1,12
 549 641 549 641 588.5 588 c 128,-1,13
 628 535 628 535 648 471.5 c 128,-1,14
 668 408 668 408 668 350 c 0,15,16
 668 285 668 285 646 221 c 128,-1,17
 624 157 624 157 583.5 105.5 c 128,-1,18
 543 54 543 54 484.5 22 c 128,-1,19
 426 -10 426 -10 353 -10 c 0,0,1
205 350 m 0,20,21
 205 312 205 312 214 274 c 128,-1,22
 223 236 223 236 241 205.5 c 128,-1,23
 259 175 259 175 287 155.5 c 128,-1,24
 315 136 315 136 353 136 c 0,25,26
 393 136 393 136 421.5 157 c 128,-1,27
 450 178 450 178 468 209.5 c 128,-1,28
 486 241 486 241 494 278.5 c 128,-1,29
 502 316 502 316 502 350 c 0,30,31
 502 387 502 387 493 425.5 c 128,-1,32
 484 464 484 464 465.5 494.5 c 128,-1,33
 447 525 447 525 419 544.5 c 128,-1,34
 391 564 391 564 353 564 c 0,35,36
 313 564 313 564 285 543 c 128,-1,37
 257 522 257 522 239 490.5 c 128,-1,38
 221 459 221 459 213 421.5 c 128,-1,39
 205 384 205 384 205 350 c 0,20,21
EndSplineSet
Substitution2: "'lnum' Lining Figures in Latin lookup 3 subtable" zero.lnum
Substitution2: "'aalt' Access All Alternates in Latin lookup 0 subtable" zero.lnum
EndChar

StartChar: one
Encoding: 49 49 21
Width: 518
GlyphClass: 2
Flags: W
LayerCount: 2
Fore
SplineSet
496 144 m 1,0,-1
 496 0 l 1,1,-1
 65 0 l 1,2,-1
 65 144 l 1,3,-1
 206 144 l 1,4,-1
 206 559 l 1,5,6
 198 547 198 547 179 532.5 c 128,-1,7
 160 518 160 518 136 504.5 c 128,-1,8
 112 491 112 491 87 482 c 128,-1,9
 62 473 62 473 42 473 c 1,10,-1
 42 620 l 1,11,12
 69 620 69 620 97.5 634.5 c 128,-1,13
 126 649 126 649 150 666.5 c 128,-1,14
 174 684 174 684 189.5 699 c 128,-1,15
 205 714 205 714 206 716 c 2,16,-1
 369 716 l 1,17,-1
 369 144 l 1,18,-1
 496 144 l 1,0,-1
EndSplineSet
Substitution2: "'lnum' Lining Figures in Latin lookup 3 subtable" one.lnum
Substitution2: "'aalt' Access All Alternates in Latin lookup 0 subtable" one.lnum
EndChar

StartChar: two
Encoding: 50 50 22
Width: 619
GlyphClass: 2
Flags: W
LayerCount: 2
Fore
SplineSet
39 0 m 1,0,1
 39 69 39 69 46.5 121 c 128,-1,2
 54 173 54 173 74.5 212 c 128,-1,3
 95 251 95 251 129.5 280.5 c 128,-1,4
 164 310 164 310 218 336 c 0,5,6
 250 351 250 351 280 366 c 128,-1,7
 310 381 310 381 333.5 399.5 c 128,-1,8
 357 418 357 418 371.5 441 c 128,-1,9
 386 464 386 464 386 494 c 0,10,11
 386 535 386 535 362 555.5 c 128,-1,12
 338 576 338 576 300 576 c 0,13,14
 276 576 276 576 253 569 c 128,-1,15
 230 562 230 562 209.5 550.5 c 128,-1,16
 189 539 189 539 171 525 c 128,-1,17
 153 511 153 511 140 497 c 1,18,-1
 40 603 l 1,19,20
 56 622 56 622 83 642 c 128,-1,21
 110 662 110 662 146 679 c 128,-1,22
 182 696 182 696 226.5 707 c 128,-1,23
 271 718 271 718 322 718 c 0,24,25
 441 718 441 718 504.5 658.5 c 128,-1,26
 568 599 568 599 568 496 c 0,27,28
 568 452 568 452 556 419.5 c 128,-1,29
 544 387 544 387 523 361.5 c 128,-1,30
 502 336 502 336 473 316.5 c 128,-1,31
 444 297 444 297 409 279 c 0,32,33
 378 263 378 263 351.5 248 c 128,-1,34
 325 233 325 233 305.5 217 c 128,-1,35
 286 201 286 201 275 183 c 128,-1,36
 264 165 264 165 264 144 c 1,37,-1
 569 144 l 1,38,-1
 569 0 l 1,39,-1
 39 0 l 1,0,1
EndSplineSet
Substitution2: "'lnum' Lining Figures in Latin lookup 3 subtable" two.lnum
Substitution2: "'aalt' Access All Alternates in Latin lookup 0 subtable" two.lnum
EndChar

StartChar: three
Encoding: 51 51 23
Width: 586
GlyphClass: 2
Flags: W
LayerCount: 2
Fore
SplineSet
268 -9 m 0,0,1
 184 -9 184 -9 125.5 23.5 c 128,-1,2
 67 56 67 56 38 119 c 1,3,-1
 121 228 l 1,4,5
 124 219 124 219 133.5 204 c 128,-1,6
 143 189 143 189 160 174.5 c 128,-1,7
 177 160 177 160 203 149 c 128,-1,8
 229 138 229 138 265 138 c 0,9,10
 287 138 287 138 307 143 c 128,-1,11
 327 148 327 148 342.5 157.5 c 128,-1,12
 358 167 358 167 367 181.5 c 128,-1,13
 376 196 376 196 376 215 c 0,14,15
 376 261 376 261 325.5 281 c 128,-1,16
 275 301 275 301 181 301 c 2,17,-1
 148 301 l 1,18,-1
 148 434 l 1,19,-1
 181 434 l 2,20,21
 218 434 218 434 250 438.5 c 128,-1,22
 282 443 282 443 306 453 c 128,-1,23
 330 463 330 463 344 478.5 c 128,-1,24
 358 494 358 494 358 516 c 0,25,26
 358 534 358 534 349.5 546.5 c 128,-1,27
 341 559 341 559 329 566 c 128,-1,28
 317 573 317 573 303 576 c 128,-1,29
 289 579 289 579 278 579 c 0,30,31
 248 579 248 579 225 572 c 128,-1,32
 202 565 202 565 184.5 554 c 128,-1,33
 167 543 167 543 154.5 530 c 128,-1,34
 142 517 142 517 135 505 c 1,35,-1
 33 623 l 1,36,37
 51 646 51 646 78.5 664 c 128,-1,38
 106 682 106 682 138.5 694 c 128,-1,39
 171 706 171 706 206.5 712.5 c 128,-1,40
 242 719 242 719 277 719 c 0,41,42
 331 719 331 719 377.5 704 c 128,-1,43
 424 689 424 689 457.5 663 c 128,-1,44
 491 637 491 637 510 601.5 c 128,-1,45
 529 566 529 566 529 524 c 0,46,47
 529 465 529 465 493 427 c 128,-1,48
 457 389 457 389 398 376 c 1,49,50
 431 370 431 370 458 353.5 c 128,-1,51
 485 337 485 337 504 312.5 c 128,-1,52
 523 288 523 288 533 257.5 c 128,-1,53
 543 227 543 227 543 194 c 0,54,55
 543 141 543 141 518.5 102.5 c 128,-1,56
 494 64 494 64 455 39 c 128,-1,57
 416 14 416 14 367 2.5 c 128,-1,58
 318 -9 318 -9 268 -9 c 0,0,1
EndSplineSet
Substitution2: "'lnum' Lining Figures in Latin lookup 3 subtable" three.lnum
Substitution2: "'aalt' Access All Alternates in Latin lookup 0 subtable" three.lnum
EndChar

StartChar: four
Encoding: 52 52 24
Width: 591
GlyphClass: 2
Flags: W
LayerCount: 2
Fore
SplineSet
305 1 m 1,0,-1
 305 150 l 1,1,-1
 26 150 l 1,2,-1
 26 293 l 1,3,-1
 356 711 l 1,4,-1
 465 711 l 1,5,-1
 465 293 l 1,6,-1
 553 293 l 1,7,-1
 553 150 l 1,8,-1
 465 150 l 1,9,-1
 465 1 l 1,10,-1
 305 1 l 1,0,-1
185 293 m 1,11,-1
 323 293 l 1,12,-1
 323 471 l 1,13,-1
 185 293 l 1,11,-1
EndSplineSet
Substitution2: "'lnum' Lining Figures in Latin lookup 3 subtable" four.lnum
Substitution2: "'aalt' Access All Alternates in Latin lookup 0 subtable" four.lnum
EndChar

StartChar: five
Encoding: 53 53 25
Width: 575
GlyphClass: 2
Flags: W
LayerCount: 2
Fore
SplineSet
303 462 m 0,0,1
 354 462 354 462 397 445 c 128,-1,2
 440 428 440 428 471.5 398 c 128,-1,3
 503 368 503 368 520.5 326 c 128,-1,4
 538 284 538 284 538 233 c 0,5,6
 538 179 538 179 518 134.5 c 128,-1,7
 498 90 498 90 462.5 58 c 128,-1,8
 427 26 427 26 377.5 8.5 c 128,-1,9
 328 -9 328 -9 270 -9 c 0,10,11
 192 -9 192 -9 130 22 c 128,-1,12
 68 53 68 53 35 109 c 1,13,-1
 125 208 l 1,14,15
 153 173 153 173 192 152 c 128,-1,16
 231 131 231 131 271 131 c 0,17,18
 317 131 317 131 345.5 157.5 c 128,-1,19
 374 184 374 184 374 229 c 0,20,21
 374 272 374 272 347.5 298.5 c 128,-1,22
 321 325 321 325 280 325 c 0,23,24
 253 325 253 325 229.5 313 c 128,-1,25
 206 301 206 301 193 279 c 1,26,-1
 54 279 l 2,27,28
 54 280 54 280 58 299.5 c 128,-1,29
 62 319 62 319 67.5 350 c 128,-1,30
 73 381 73 381 80.5 419.5 c 128,-1,31
 88 458 88 458 96 498 c 0,32,33
 114 592 114 592 137 711 c 1,34,-1
 490 711 l 1,35,-1
 490 565 l 1,36,-1
 253 565 l 1,37,-1
 232 444 l 1,38,39
 239 451 239 451 256.5 456.5 c 128,-1,40
 274 462 274 462 303 462 c 0,0,1
EndSplineSet
Substitution2: "'lnum' Lining Figures in Latin lookup 3 subtable" five.lnum
Substitution2: "'aalt' Access All Alternates in Latin lookup 0 subtable" five.lnum
EndChar

StartChar: six
Encoding: 54 54 26
Width: 608
GlyphClass: 2
Flags: W
LayerCount: 2
Fore
SplineSet
569 239 m 0,0,1
 569 187 569 187 549 141.5 c 128,-1,2
 529 96 529 96 494 62.5 c 128,-1,3
 459 29 459 29 411 9.5 c 128,-1,4
 363 -10 363 -10 307 -10 c 0,5,6
 245 -10 245 -10 196 13 c 128,-1,7
 147 36 147 36 113 79 c 128,-1,8
 79 122 79 122 61 184.5 c 128,-1,9
 43 247 43 247 43 327 c 0,10,11
 43 420 43 420 62.5 492.5 c 128,-1,12
 82 565 82 565 118 614.5 c 128,-1,13
 154 664 154 664 206 690 c 128,-1,14
 258 716 258 716 323 716 c 0,15,16
 389 716 389 716 445.5 689 c 128,-1,17
 502 662 502 662 545 611 c 1,18,-1
 455 509 l 1,19,20
 430 541 430 541 395 559 c 128,-1,21
 360 577 360 577 320 577 c 0,22,23
 261 577 261 577 226.5 535 c 128,-1,24
 192 493 192 493 190 416 c 1,25,26
 210 443 210 443 243.5 458 c 128,-1,27
 277 473 277 473 321 473 c 0,28,29
 374 473 374 473 419.5 455 c 128,-1,30
 465 437 465 437 498 405.5 c 128,-1,31
 531 374 531 374 550 331.5 c 128,-1,32
 569 289 569 289 569 239 c 0,0,1
307 125 m 256,33,34
 329 125 329 125 349 134 c 128,-1,35
 369 143 369 143 384 158.5 c 128,-1,36
 399 174 399 174 408 195 c 128,-1,37
 417 216 417 216 417 239 c 0,38,39
 417 261 417 261 408 281 c 128,-1,40
 399 301 399 301 384 315.5 c 128,-1,41
 369 330 369 330 349 338.5 c 128,-1,42
 329 347 329 347 307 347 c 0,43,44
 284 347 284 347 264 338.5 c 128,-1,45
 244 330 244 330 229 315.5 c 128,-1,46
 214 301 214 301 205.5 281 c 128,-1,47
 197 261 197 261 197 239 c 0,48,49
 197 216 197 216 206 195 c 128,-1,50
 215 174 215 174 230 158.5 c 128,-1,51
 245 143 245 143 265 134 c 128,-1,52
 285 125 285 125 307 125 c 256,33,34
EndSplineSet
Substitution2: "'lnum' Lining Figures in Latin lookup 3 subtable" six.lnum
Substitution2: "'aalt' Access All Alternates in Latin lookup 0 subtable" six.lnum
EndChar

StartChar: seven
Encoding: 55 55 27
Width: 579
GlyphClass: 2
Flags: W
LayerCount: 2
Fore
SplineSet
333 565 m 1,0,-1
 35 565 l 1,1,-1
 35 711 l 1,2,-1
 585 711 l 1,3,-1
 235 1 l 1,4,-1
 54 1 l 1,5,-1
 333 565 l 1,0,-1
EndSplineSet
Substitution2: "'lnum' Lining Figures in Latin lookup 3 subtable" seven.lnum
Substitution2: "'aalt' Access All Alternates in Latin lookup 0 subtable" seven.lnum
EndChar

StartChar: eight
Encoding: 56 56 28
Width: 607
GlyphClass: 2
Flags: W
LayerCount: 2
Fore
SplineSet
566 215 m 0,0,1
 566 164 566 164 545 123 c 128,-1,2
 524 82 524 82 488.5 52.5 c 128,-1,3
 453 23 453 23 405 7 c 128,-1,4
 357 -9 357 -9 303 -9 c 0,5,6
 250 -9 250 -9 202.5 7.5 c 128,-1,7
 155 24 155 24 119 54 c 128,-1,8
 83 84 83 84 62 126.5 c 128,-1,9
 41 169 41 169 41 221 c 0,10,11
 41 249 41 249 50 273.5 c 128,-1,12
 59 298 59 298 73 318 c 128,-1,13
 87 338 87 338 105 353 c 128,-1,14
 123 368 123 368 140 379 c 1,15,16
 107 397 107 397 84.5 432 c 128,-1,17
 62 467 62 467 62 506 c 0,18,19
 62 555 62 555 84.5 593.5 c 128,-1,20
 107 632 107 632 142 657.5 c 128,-1,21
 177 683 177 683 219.5 696.5 c 128,-1,22
 262 710 262 710 303 710 c 256,23,24
 344 710 344 710 387 697 c 128,-1,25
 430 684 430 684 465.5 658.5 c 128,-1,26
 501 633 501 633 523.5 595 c 128,-1,27
 546 557 546 557 546 508 c 0,28,29
 546 488 546 488 539.5 469 c 128,-1,30
 533 450 533 450 522.5 432.5 c 128,-1,31
 512 415 512 415 497 401.5 c 128,-1,32
 482 388 482 388 466 379 c 1,33,34
 484 368 484 368 502 352 c 128,-1,35
 520 336 520 336 534.5 315.5 c 128,-1,36
 549 295 549 295 557.5 270 c 128,-1,37
 566 245 566 245 566 215 c 0,0,1
404 225 m 0,38,39
 404 246 404 246 395.5 262.5 c 128,-1,40
 387 279 387 279 373 290 c 128,-1,41
 359 301 359 301 341 307 c 128,-1,42
 323 313 323 313 303 313 c 0,43,44
 261 313 261 313 232 289 c 128,-1,45
 203 265 203 265 203 224 c 0,46,47
 203 204 203 204 211.5 188 c 128,-1,48
 220 172 220 172 234 160.5 c 128,-1,49
 248 149 248 149 266 142.5 c 128,-1,50
 284 136 284 136 304 136 c 256,51,52
 324 136 324 136 342.5 142.5 c 128,-1,53
 361 149 361 149 374.5 161 c 128,-1,54
 388 173 388 173 396 189.5 c 128,-1,55
 404 206 404 206 404 225 c 0,38,39
224 503 m 0,56,57
 224 485 224 485 231 472 c 128,-1,58
 238 459 238 459 249.5 450.5 c 128,-1,59
 261 442 261 442 275 437.5 c 128,-1,60
 289 433 289 433 303 433 c 256,61,62
 317 433 317 433 331.5 437.5 c 128,-1,63
 346 442 346 442 357.5 451 c 128,-1,64
 369 460 369 460 376 473 c 128,-1,65
 383 486 383 486 383 503 c 0,66,67
 383 532 383 532 359.5 550.5 c 128,-1,68
 336 569 336 569 303 569 c 256,69,70
 270 569 270 569 247 550.5 c 128,-1,71
 224 532 224 532 224 503 c 0,56,57
EndSplineSet
Substitution2: "'lnum' Lining Figures in Latin lookup 3 subtable" eight.lnum
Substitution2: "'aalt' Access All Alternates in Latin lookup 0 subtable" eight.lnum
EndChar

StartChar: nine
Encoding: 57 57 29
Width: 607
GlyphClass: 2
Flags: W
LayerCount: 2
Fore
SplineSet
38 467 m 0,0,1
 38 519 38 519 58 564.5 c 128,-1,2
 78 610 78 610 113 643.5 c 128,-1,3
 148 677 148 677 196.5 696.5 c 128,-1,4
 245 716 245 716 301 716 c 0,5,6
 363 716 363 716 412 693 c 128,-1,7
 461 670 461 670 495 627 c 128,-1,8
 529 584 529 584 547 521 c 128,-1,9
 565 458 565 458 565 379 c 0,10,11
 565 286 565 286 545.5 213.5 c 128,-1,12
 526 141 526 141 489.5 91.5 c 128,-1,13
 453 42 453 42 401 16 c 128,-1,14
 349 -10 349 -10 285 -10 c 0,15,16
 219 -10 219 -10 162 17 c 128,-1,17
 105 44 105 44 62 95 c 1,18,-1
 152 197 l 1,19,20
 178 165 178 165 213 147 c 128,-1,21
 248 129 248 129 287 129 c 0,22,23
 346 129 346 129 380.5 171 c 128,-1,24
 415 213 415 213 417 290 c 1,25,26
 397 262 397 262 363.5 247 c 128,-1,27
 330 232 330 232 287 232 c 0,28,29
 234 232 234 232 188.5 250 c 128,-1,30
 143 268 143 268 109.5 299.5 c 128,-1,31
 76 331 76 331 57 374 c 128,-1,32
 38 417 38 417 38 467 c 0,0,1
301 581 m 256,33,34
 279 581 279 581 259 572 c 128,-1,35
 239 563 239 563 224 547.5 c 128,-1,36
 209 532 209 532 200 511 c 128,-1,37
 191 490 191 490 191 467 c 256,38,39
 191 444 191 444 199.5 424.5 c 128,-1,40
 208 405 208 405 223 390.5 c 128,-1,41
 238 376 238 376 258 367.5 c 128,-1,42
 278 359 278 359 301 359 c 0,43,44
 323 359 323 359 343 367.5 c 128,-1,45
 363 376 363 376 378 390.5 c 128,-1,46
 393 405 393 405 402 424.5 c 128,-1,47
 411 444 411 444 411 467 c 256,48,49
 411 490 411 490 402 511 c 128,-1,50
 393 532 393 532 378 547.5 c 128,-1,51
 363 563 363 563 343 572 c 128,-1,52
 323 581 323 581 301 581 c 256,33,34
EndSplineSet
Substitution2: "'lnum' Lining Figures in Latin lookup 3 subtable" nine.lnum
Substitution2: "'aalt' Access All Alternates in Latin lookup 0 subtable" nine.lnum
EndChar

StartChar: colon
Encoding: 58 58 30
Width: 274
GlyphClass: 2
Flags: W
LayerCount: 2
Fore
SplineSet
72 356 m 1,0,-1
 72 519 l 1,1,-1
 202 519 l 1,2,-1
 202 356 l 1,3,-1
 72 356 l 1,0,-1
72 0 m 1,4,-1
 72 163 l 1,5,-1
 202 163 l 1,6,-1
 202 0 l 1,7,-1
 72 0 l 1,4,-1
EndSplineSet
EndChar

StartChar: semicolon
Encoding: 59 59 31
Width: 280
GlyphClass: 2
Flags: W
LayerCount: 2
Fore
SplineSet
74 356 m 1,0,-1
 74 519 l 1,1,-1
 204 519 l 1,2,-1
 204 356 l 1,3,-1
 74 356 l 1,0,-1
90 -135 m 1,4,-1
 122 2 l 1,5,-1
 73 2 l 1,6,-1
 73 163 l 1,7,-1
 208 163 l 1,8,-1
 208 2 l 1,9,-1
 161 -135 l 1,10,-1
 90 -135 l 1,4,-1
EndSplineSet
EndChar

StartChar: less
Encoding: 60 60 32
Width: 518
GlyphClass: 2
Flags: W
LayerCount: 2
Fore
SplineSet
32 293 m 1,0,-1
 454 549 l 1,1,-1
 454 379 l 1,2,-1
 264 259 l 1,3,-1
 454 146 l 1,4,-1
 454 -33 l 1,5,-1
 32 217 l 1,6,-1
 32 293 l 1,0,-1
EndSplineSet
EndChar

StartChar: equal
Encoding: 61 61 33
Width: 435
GlyphClass: 2
Flags: W
LayerCount: 2
Fore
SplineSet
59 124 m 1,0,-1
 59 226 l 1,1,-1
 376 226 l 1,2,-1
 376 124 l 1,3,-1
 59 124 l 1,0,-1
59 326 m 1,4,-1
 59 428 l 1,5,-1
 376 428 l 1,6,-1
 376 326 l 1,7,-1
 59 326 l 1,4,-1
EndSplineSet
EndChar

StartChar: greater
Encoding: 62 62 34
Width: 518
GlyphClass: 2
Flags: W
LayerCount: 2
Fore
SplineSet
486 217 m 1,0,-1
 63 -33 l 1,1,-1
 63 146 l 1,2,-1
 254 259 l 1,3,-1
 63 379 l 1,4,-1
 63 549 l 1,5,-1
 486 293 l 1,6,-1
 486 217 l 1,0,-1
EndSplineSet
EndChar

StartChar: question
Encoding: 63 63 35
Width: 490
GlyphClass: 2
Flags: W
LayerCount: 2
Fore
SplineSet
109 245 m 1,0,1
 109 268 109 268 112 289 c 128,-1,2
 115 310 115 310 123.5 329.5 c 128,-1,3
 132 349 132 349 148 366 c 128,-1,4
 164 383 164 383 190 397 c 0,5,6
 203 404 203 404 224.5 415.5 c 128,-1,7
 246 427 246 427 266.5 442 c 128,-1,8
 287 457 287 457 302 476.5 c 128,-1,9
 317 496 317 496 317 520 c 0,10,11
 317 553 317 553 293 571.5 c 128,-1,12
 269 590 269 590 238 590 c 0,13,14
 218 590 218 590 202.5 582.5 c 128,-1,15
 187 575 187 575 174.5 564.5 c 128,-1,16
 162 554 162 554 153 541 c 128,-1,17
 144 528 144 528 137 518 c 1,18,-1
 34 590 l 1,19,20
 60 651 60 651 116.5 685 c 128,-1,21
 173 719 173 719 244 719 c 0,22,23
 282 719 282 719 320 708 c 128,-1,24
 358 697 358 697 388 673 c 128,-1,25
 418 649 418 649 437 611 c 128,-1,26
 456 573 456 573 456 519 c 0,27,28
 456 462 456 462 432.5 423.5 c 128,-1,29
 409 385 409 385 363 356 c 0,30,31
 342 342 342 342 320.5 331 c 128,-1,32
 299 320 299 320 281 308 c 128,-1,33
 263 296 263 296 252 281 c 128,-1,34
 241 266 241 266 241 245 c 1,35,-1
 109 245 l 1,0,1
112 0 m 1,36,-1
 112 150 l 1,37,-1
 243 150 l 1,38,-1
 243 0 l 1,39,-1
 112 0 l 1,36,-1
EndSplineSet
EndChar

StartChar: at
Encoding: 64 64 36
Width: 848
GlyphClass: 2
Flags: W
LayerCount: 2
Fore
SplineSet
423 603 m 0,0,1
 497 603 497 603 565 579.5 c 128,-1,2
 633 556 633 556 685.5 508.5 c 128,-1,3
 738 461 738 461 769.5 389 c 128,-1,4
 801 317 801 317 801 221 c 0,5,6
 801 207 801 207 799.5 184 c 128,-1,7
 798 161 798 161 793 135 c 128,-1,8
 788 109 788 109 778 82 c 128,-1,9
 768 55 768 55 750.5 33 c 128,-1,10
 733 11 733 11 706.5 -2.5 c 128,-1,11
 680 -16 680 -16 643 -16 c 0,12,13
 616 -16 616 -16 597.5 -8.5 c 128,-1,14
 579 -1 579 -1 568 10 c 128,-1,15
 557 21 557 21 551.5 35 c 128,-1,16
 546 49 546 49 544 62 c 1,17,18
 512 30 512 30 467.5 13 c 128,-1,19
 423 -4 423 -4 374 -4 c 0,20,21
 299 -4 299 -4 259.5 35.5 c 128,-1,22
 220 75 220 75 220 138 c 0,23,24
 220 180 220 180 236.5 209 c 128,-1,25
 253 238 253 238 279 255.5 c 128,-1,26
 305 273 305 273 338.5 280.5 c 128,-1,27
 372 288 372 288 407 288 c 0,28,29
 446 288 446 288 473.5 280.5 c 128,-1,30
 501 273 501 273 515 267 c 1,31,32
 515 291 515 291 510 311 c 128,-1,33
 505 331 505 331 492.5 345 c 128,-1,34
 480 359 480 359 458.5 367 c 128,-1,35
 437 375 437 375 404 375 c 0,36,37
 362 375 362 375 329.5 363.5 c 128,-1,38
 297 352 297 352 274 332 c 1,39,-1
 246 415 l 1,40,41
 320 465 320 465 420 465 c 0,42,43
 488 465 488 465 526 444.5 c 128,-1,44
 564 424 564 424 582.5 393 c 128,-1,45
 601 362 601 362 605 324.5 c 128,-1,46
 609 287 609 287 609 254 c 2,47,-1
 609 172 l 2,48,49
 609 150 609 150 610 128.5 c 128,-1,50
 611 107 611 107 616 90.5 c 128,-1,51
 621 74 621 74 631 63.5 c 128,-1,52
 641 53 641 53 658 53 c 0,53,54
 683 53 683 53 699 72.5 c 128,-1,55
 715 92 715 92 723 119.5 c 128,-1,56
 731 147 731 147 734 176.5 c 128,-1,57
 737 206 737 206 737 225 c 0,58,59
 737 293 737 293 714.5 351 c 128,-1,60
 692 409 692 409 650 451.5 c 128,-1,61
 608 494 608 494 549 518 c 128,-1,62
 490 542 490 542 418 542 c 0,63,64
 347 542 347 542 289 518.5 c 128,-1,65
 231 495 231 495 190 453.5 c 128,-1,66
 149 412 149 412 126.5 354.5 c 128,-1,67
 104 297 104 297 104 229 c 0,68,69
 104 164 104 164 125 107 c 128,-1,70
 146 50 146 50 185 7 c 128,-1,71
 224 -36 224 -36 279.5 -60.5 c 128,-1,72
 335 -85 335 -85 405 -85 c 0,73,74
 455 -85 455 -85 489.5 -74 c 128,-1,75
 524 -63 524 -63 562 -47 c 1,76,-1
 580 -106 l 1,77,78
 538 -126 538 -126 493 -136 c 128,-1,79
 448 -146 448 -146 403 -146 c 0,80,81
 328 -146 328 -146 262 -119 c 128,-1,82
 196 -92 196 -92 146.5 -43 c 128,-1,83
 97 6 97 6 68.5 75.5 c 128,-1,84
 40 145 40 145 40 231 c 0,85,86
 40 321 40 321 71.5 390.5 c 128,-1,87
 103 460 103 460 156 507 c 128,-1,88
 209 554 209 554 278 578.5 c 128,-1,89
 347 603 347 603 423 603 c 0,0,1
468 93 m 0,90,91
 489 103 489 103 501.5 119 c 128,-1,92
 514 135 514 135 514 155 c 2,93,-1
 514 195 l 1,94,95
 500 200 500 200 470.5 207 c 128,-1,96
 441 214 441 214 408 214 c 0,97,98
 363 214 363 214 338.5 196.5 c 128,-1,99
 314 179 314 179 314 140 c 0,100,101
 314 108 314 108 332 91 c 128,-1,102
 350 74 350 74 385 74 c 0,103,104
 402 74 402 74 425.5 78.5 c 128,-1,105
 449 83 449 83 468 93 c 0,90,91
EndSplineSet
EndChar

StartChar: A
Encoding: 65 65 37
Width: 670
GlyphClass: 2
Flags: W
LayerCount: 2
Fore
SplineSet
261 710 m 1,0,-1
 409 710 l 1,1,-1
 668 0 l 1,2,-1
 500 0 l 1,3,-1
 445 159 l 1,4,-1
 224 159 l 1,5,-1
 170 0 l 1,6,-1
 2 0 l 1,7,-1
 261 710 l 1,0,-1
418 272 m 1,8,-1
 335 523 l 1,9,-1
 250 272 l 1,10,-1
 418 272 l 1,8,-1
EndSplineSet
EndChar

StartChar: B
Encoding: 66 66 38
Width: 684
GlyphClass: 2
Flags: W
LayerCount: 2
Fore
SplineSet
655 182 m 0,0,1
 655 136 655 136 636 102 c 128,-1,2
 617 68 617 68 584 45.5 c 128,-1,3
 551 23 551 23 507 11.5 c 128,-1,4
 463 0 463 0 414 0 c 2,5,-1
 68 0 l 1,6,-1
 68 710 l 1,7,-1
 463 710 l 2,8,9
 500 710 500 710 530 694 c 128,-1,10
 560 678 560 678 581 652.5 c 128,-1,11
 602 627 602 627 613.5 594.5 c 128,-1,12
 625 562 625 562 625 528 c 0,13,14
 625 477 625 477 599.5 432 c 128,-1,15
 574 387 574 387 523 364 c 1,16,17
 584 346 584 346 619.5 300 c 128,-1,18
 655 254 655 254 655 182 c 0,0,1
488 215 m 0,19,20
 488 248 488 248 469 271 c 128,-1,21
 450 294 450 294 421 294 c 2,22,-1
 232 294 l 1,23,-1
 232 139 l 1,24,-1
 414 139 l 2,25,26
 446 139 446 139 467 160 c 128,-1,27
 488 181 488 181 488 215 c 0,19,20
232 570 m 1,28,-1
 232 423 l 1,29,-1
 393 423 l 2,30,31
 420 423 420 423 441 441 c 128,-1,32
 462 459 462 459 462 497 c 0,33,34
 462 532 462 532 443.5 551 c 128,-1,35
 425 570 425 570 399 570 c 2,36,-1
 232 570 l 1,28,-1
EndSplineSet
EndChar

StartChar: C
Encoding: 67 67 39
Width: 688
GlyphClass: 2
Flags: W
LayerCount: 2
Fore
SplineSet
27 361 m 0,0,1
 27 425 27 425 51 488.5 c 128,-1,2
 75 552 75 552 121 602 c 128,-1,3
 167 652 167 652 233 683 c 128,-1,4
 299 714 299 714 383 714 c 0,5,6
 483 714 483 714 556.5 671 c 128,-1,7
 630 628 630 628 666 559 c 1,8,-1
 540 471 l 1,9,10
 528 499 528 499 509.5 517.5 c 128,-1,11
 491 536 491 536 469 547.5 c 128,-1,12
 447 559 447 559 424 563.5 c 128,-1,13
 401 568 401 568 379 568 c 0,14,15
 332 568 332 568 297 549 c 128,-1,16
 262 530 262 530 239 500 c 128,-1,17
 216 470 216 470 205 432 c 128,-1,18
 194 394 194 394 194 355 c 0,19,20
 194 313 194 313 207 274 c 128,-1,21
 220 235 220 235 244.5 205 c 128,-1,22
 269 175 269 175 303.5 157.5 c 128,-1,23
 338 140 338 140 381 140 c 0,24,25
 403 140 403 140 426.5 145.5 c 128,-1,26
 450 151 450 151 471.5 162.5 c 128,-1,27
 493 174 493 174 511 192.5 c 128,-1,28
 529 211 529 211 540 238 c 1,29,-1
 674 159 l 1,30,31
 658 120 658 120 626.5 89 c 128,-1,32
 595 58 595 58 554 37 c 128,-1,33
 513 16 513 16 467 5 c 128,-1,34
 421 -6 421 -6 377 -6 c 0,35,36
 300 -6 300 -6 235.5 25.5 c 128,-1,37
 171 57 171 57 124.5 109 c 128,-1,38
 78 161 78 161 52.5 227 c 128,-1,39
 27 293 27 293 27 361 c 0,0,1
EndSplineSet
EndChar

StartChar: D
Encoding: 68 68 40
Width: 716
GlyphClass: 2
Flags: W
LayerCount: 2
Fore
SplineSet
68 0 m 1,0,-1
 68 710 l 1,1,-1
 333 710 l 2,2,3
 421 710 421 710 487 682 c 128,-1,4
 553 654 553 654 597.5 606 c 128,-1,5
 642 558 642 558 664.5 493.5 c 128,-1,6
 687 429 687 429 687 356 c 0,7,8
 687 275 687 275 662 209.5 c 128,-1,9
 637 144 637 144 590.5 97.5 c 128,-1,10
 544 51 544 51 478.5 25.5 c 128,-1,11
 413 0 413 0 333 0 c 2,12,-1
 68 0 l 1,0,-1
520 356 m 0,13,14
 520 403 520 403 507.5 441.5 c 128,-1,15
 495 480 495 480 471 508 c 128,-1,16
 447 536 447 536 412 551 c 128,-1,17
 377 566 377 566 333 566 c 2,18,-1
 232 566 l 1,19,-1
 232 144 l 1,20,-1
 333 144 l 2,21,22
 378 144 378 144 413 160 c 128,-1,23
 448 176 448 176 471.5 204.5 c 128,-1,24
 495 233 495 233 507.5 271.5 c 128,-1,25
 520 310 520 310 520 356 c 0,13,14
EndSplineSet
EndChar

StartChar: E
Encoding: 69 69 41
Width: 599
GlyphClass: 2
Flags: W
LayerCount: 2
Fore
SplineSet
567 144 m 1,0,-1
 567 0 l 1,1,-1
 68 0 l 1,2,-1
 68 710 l 1,3,-1
 558 710 l 1,4,-1
 558 566 l 1,5,-1
 232 566 l 1,6,-1
 232 428 l 1,7,-1
 512 428 l 1,8,-1
 512 295 l 1,9,-1
 232 295 l 1,10,-1
 232 144 l 1,11,-1
 567 144 l 1,0,-1
EndSplineSet
EndChar

StartChar: F
Encoding: 70 70 42
Width: 569
GlyphClass: 2
Flags: W
LayerCount: 2
Fore
SplineSet
68 0 m 1,0,-1
 68 710 l 1,1,-1
 550 710 l 1,2,-1
 550 566 l 1,3,-1
 232 566 l 1,4,-1
 232 413 l 1,5,-1
 494 413 l 1,6,-1
 494 280 l 1,7,-1
 232 280 l 1,8,-1
 232 0 l 1,9,-1
 68 0 l 1,0,-1
EndSplineSet
EndChar

StartChar: G
Encoding: 71 71 43
Width: 732
GlyphClass: 2
Flags: W
LayerCount: 2
Fore
SplineSet
556 70 m 1,0,1
 475 -5 475 -5 369 -5 c 0,2,3
 299 -5 299 -5 237 21.5 c 128,-1,4
 175 48 175 48 128.5 96 c 128,-1,5
 82 144 82 144 55 211.5 c 128,-1,6
 28 279 28 279 28 360 c 0,7,8
 28 433 28 433 55 498 c 128,-1,9
 82 563 82 563 129.5 611 c 128,-1,10
 177 659 177 659 242 687 c 128,-1,11
 307 715 307 715 382 715 c 0,12,13
 481 715 481 715 555 673.5 c 128,-1,14
 629 632 629 632 666 560 c 1,15,-1
 544 468 l 1,16,17
 520 516 520 516 474.5 542.5 c 128,-1,18
 429 569 429 569 376 569 c 0,19,20
 335 569 335 569 301.5 552.5 c 128,-1,21
 268 536 268 536 244 506.5 c 128,-1,22
 220 477 220 477 207 438 c 128,-1,23
 194 399 194 399 194 354 c 0,24,25
 194 308 194 308 208 269 c 128,-1,26
 222 230 222 230 247 201.5 c 128,-1,27
 272 173 272 173 306.5 157 c 128,-1,28
 341 141 341 141 383 141 c 0,29,30
 479 141 479 141 556 230 c 1,31,-1
 556 252 l 1,32,-1
 418 252 l 1,33,-1
 418 371 l 1,34,-1
 692 371 l 1,35,-1
 692 0 l 1,36,-1
 556 0 l 1,37,-1
 556 70 l 1,0,1
EndSplineSet
Substitution2: "'ss01' Style Set 1 in Latin lookup 8 subtable" G.alt
Substitution2: "'salt' Stylistic Alternatives in Latin lookup 5 subtable" G.alt
Substitution2: "'aalt' Access All Alternates in Latin lookup 0 subtable" G.alt
EndChar

StartChar: H
Encoding: 72 72 44
Width: 747
GlyphClass: 2
Flags: W
LayerCount: 2
Fore
SplineSet
679 710 m 1,0,-1
 679 0 l 1,1,-1
 515 0 l 1,2,-1
 515 291 l 1,3,-1
 232 291 l 1,4,-1
 232 0 l 1,5,-1
 68 0 l 1,6,-1
 68 710 l 1,7,-1
 232 710 l 1,8,-1
 232 435 l 1,9,-1
 515 435 l 1,10,-1
 515 710 l 1,11,-1
 679 710 l 1,0,-1
EndSplineSet
EndChar

StartChar: I
Encoding: 73 73 45
Width: 300
GlyphClass: 2
Flags: W
LayerCount: 2
Fore
SplineSet
68 0 m 1,0,-1
 68 710 l 1,1,-1
 232 710 l 1,2,-1
 232 0 l 1,3,-1
 68 0 l 1,0,-1
EndSplineSet
EndChar

StartChar: J
Encoding: 74 74 46
Width: 494
GlyphClass: 2
Flags: W
LayerCount: 2
Fore
SplineSet
40 167 m 1,0,1
 50 159 50 159 82.5 147 c 128,-1,2
 115 135 115 135 158 135 c 0,3,4
 195 135 195 135 217 147.5 c 128,-1,5
 239 160 239 160 251 186 c 128,-1,6
 263 212 263 212 266.5 252.5 c 128,-1,7
 270 293 270 293 270 349 c 2,8,-1
 270 710 l 1,9,-1
 434 710 l 1,10,-1
 434 349 l 2,11,12
 434 268 434 268 425.5 201.5 c 128,-1,13
 417 135 417 135 388.5 88 c 128,-1,14
 360 41 360 41 305 15 c 128,-1,15
 250 -11 250 -11 158 -11 c 0,16,17
 68 -11 68 -11 4 33 c 1,18,-1
 40 167 l 1,0,1
EndSplineSet
EndChar

StartChar: K
Encoding: 75 75 47
Width: 679
GlyphClass: 2
Flags: W
LayerCount: 2
Fore
SplineSet
68 0 m 1,0,-1
 68 710 l 1,1,-1
 232 710 l 1,2,-1
 232 404 l 1,3,-1
 492 710 l 1,4,-1
 676 710 l 1,5,-1
 410 393 l 1,6,-1
 694 0 l 1,7,-1
 507 0 l 1,8,-1
 306 286 l 1,9,-1
 232 209 l 1,10,-1
 232 0 l 1,11,-1
 68 0 l 1,0,-1
EndSplineSet
EndChar

StartChar: L
Encoding: 76 76 48
Width: 585
GlyphClass: 2
Flags: W
LayerCount: 2
Fore
SplineSet
68 0 m 1,0,-1
 68 710 l 1,1,-1
 232 710 l 1,2,-1
 232 144 l 1,3,-1
 576 144 l 1,4,-1
 576 0 l 1,5,-1
 68 0 l 1,0,-1
EndSplineSet
EndChar

StartChar: M
Encoding: 77 77 49
Width: 860
GlyphClass: 2
Flags: W
LayerCount: 2
Fore
SplineSet
628 0 m 1,0,-1
 628 425 l 1,1,-1
 474 116 l 1,2,-1
 386 116 l 1,3,-1
 232 425 l 1,4,-1
 232 0 l 1,5,-1
 68 0 l 1,6,-1
 68 710 l 1,7,-1
 246 710 l 1,8,-1
 430 339 l 1,9,-1
 615 710 l 1,10,-1
 792 710 l 1,11,-1
 792 0 l 1,12,-1
 628 0 l 1,0,-1
EndSplineSet
EndChar

StartChar: N
Encoding: 78 78 50
Width: 759
GlyphClass: 2
Flags: W
LayerCount: 2
Fore
SplineSet
232 406 m 1,0,-1
 232 0 l 1,1,-1
 68 0 l 1,2,-1
 68 710 l 1,3,-1
 196 710 l 1,4,-1
 527 293 l 1,5,-1
 527 710 l 1,6,-1
 691 710 l 1,7,-1
 691 0 l 1,8,-1
 559 0 l 1,9,-1
 232 406 l 1,0,-1
EndSplineSet
EndChar

StartChar: O
Encoding: 79 79 51
Width: 760
GlyphClass: 2
Flags: W
LayerCount: 2
Fore
SplineSet
379 -6 m 0,0,1
 300 -6 300 -6 235 25 c 128,-1,2
 170 56 170 56 124 106.5 c 128,-1,3
 78 157 78 157 52.5 222 c 128,-1,4
 27 287 27 287 27 356 c 0,5,6
 27 426 27 426 53.5 491 c 128,-1,7
 80 556 80 556 127.5 605.5 c 128,-1,8
 175 655 175 655 240 684.5 c 128,-1,9
 305 714 305 714 382 714 c 0,10,11
 461 714 461 714 526 683 c 128,-1,12
 591 652 591 652 637 601 c 128,-1,13
 683 550 683 550 708 485 c 128,-1,14
 733 420 733 420 733 353 c 0,15,16
 733 283 733 283 706.5 218 c 128,-1,17
 680 153 680 153 633 103.5 c 128,-1,18
 586 54 586 54 521 24 c 128,-1,19
 456 -6 456 -6 379 -6 c 0,0,1
194 354 m 0,20,21
 194 313 194 313 206 274.5 c 128,-1,22
 218 236 218 236 241.5 206 c 128,-1,23
 265 176 265 176 300 158 c 128,-1,24
 335 140 335 140 380 140 c 0,25,26
 427 140 427 140 462 159 c 128,-1,27
 497 178 497 178 520 208.5 c 128,-1,28
 543 239 543 239 554.5 277.5 c 128,-1,29
 566 316 566 316 566 356 c 0,30,31
 566 397 566 397 554 435.5 c 128,-1,32
 542 474 542 474 518 503.5 c 128,-1,33
 494 533 494 533 459.5 550.5 c 128,-1,34
 425 568 425 568 380 568 c 0,35,36
 333 568 333 568 298.5 549.5 c 128,-1,37
 264 531 264 531 240.5 501 c 128,-1,38
 217 471 217 471 205.5 432.5 c 128,-1,39
 194 394 194 394 194 354 c 0,20,21
EndSplineSet
EndChar

StartChar: P
Encoding: 80 80 52
Width: 623
GlyphClass: 2
Flags: W
LayerCount: 2
Fore
SplineSet
68 0 m 1,0,-1
 68 710 l 1,1,-1
 371 710 l 2,2,3
 422 710 422 710 464.5 689 c 128,-1,4
 507 668 507 668 537.5 634 c 128,-1,5
 568 600 568 600 585.5 557 c 128,-1,6
 603 514 603 514 603 470 c 0,7,8
 603 423 603 423 586.5 380 c 128,-1,9
 570 337 570 337 540.5 303 c 128,-1,10
 511 269 511 269 469 249 c 128,-1,11
 427 229 427 229 376 229 c 2,12,-1
 232 229 l 1,13,-1
 232 0 l 1,14,-1
 68 0 l 1,0,-1
232 372 m 1,15,-1
 366 372 l 2,16,17
 395 372 395 372 416 397 c 128,-1,18
 437 422 437 422 437 470 c 0,19,20
 437 495 437 495 430.5 513 c 128,-1,21
 424 531 424 531 413 543 c 128,-1,22
 402 555 402 555 388 560.5 c 128,-1,23
 374 566 374 566 360 566 c 2,24,-1
 232 566 l 1,25,-1
 232 372 l 1,15,-1
EndSplineSet
EndChar

StartChar: Q
Encoding: 81 81 53
Width: 759
GlyphClass: 2
Flags: W
LayerCount: 2
Fore
SplineSet
552 40 m 1,0,1
 514 19 514 19 470.5 7 c 128,-1,2
 427 -5 427 -5 379 -5 c 0,3,4
 300 -5 300 -5 235 25.5 c 128,-1,5
 170 56 170 56 124 106.5 c 128,-1,6
 78 157 78 157 52.5 222 c 128,-1,7
 27 287 27 287 27 356 c 0,8,9
 27 426 27 426 53.5 491 c 128,-1,10
 80 556 80 556 127.5 606 c 128,-1,11
 175 656 175 656 240 685.5 c 128,-1,12
 305 715 305 715 382 715 c 0,13,14
 461 715 461 715 526 683.5 c 128,-1,15
 591 652 591 652 637 601 c 128,-1,16
 683 550 683 550 708 485 c 128,-1,17
 733 420 733 420 733 353 c 0,18,19
 733 285 733 285 709 223 c 128,-1,20
 685 161 685 161 641 112 c 1,21,-1
 743 0 l 1,22,-1
 589 0 l 1,23,-1
 552 40 l 1,0,1
380 141 m 0,24,25
 420 141 420 141 450 154 c 1,26,-1
 336 280 l 1,27,-1
 490 280 l 1,28,-1
 534 231 l 1,29,30
 550 259 550 259 558 291 c 128,-1,31
 566 323 566 323 566 356 c 0,32,33
 566 397 566 397 554 435.5 c 128,-1,34
 542 474 542 474 518 503.5 c 128,-1,35
 494 533 494 533 459.5 551 c 128,-1,36
 425 569 425 569 380 569 c 0,37,38
 333 569 333 569 298.5 550.5 c 128,-1,39
 264 532 264 532 240.5 501.5 c 128,-1,40
 217 471 217 471 205.5 432.5 c 128,-1,41
 194 394 194 394 194 354 c 0,42,43
 194 313 194 313 206 274.5 c 128,-1,44
 218 236 218 236 241.5 206.5 c 128,-1,45
 265 177 265 177 300 159 c 128,-1,46
 335 141 335 141 380 141 c 0,24,25
EndSplineSet
EndChar

StartChar: R
Encoding: 82 82 54
Width: 670
GlyphClass: 2
Flags: W
LayerCount: 2
Fore
SplineSet
68 0 m 1,0,-1
 68 710 l 1,1,-1
 388 710 l 2,2,3
 438 710 438 710 480.5 689 c 128,-1,4
 523 668 523 668 554 634 c 128,-1,5
 585 600 585 600 602.5 557 c 128,-1,6
 620 514 620 514 620 470 c 0,7,8
 620 437 620 437 612 406.5 c 128,-1,9
 604 376 604 376 589 349 c 128,-1,10
 574 322 574 322 552.5 300.5 c 128,-1,11
 531 279 531 279 504 264 c 1,12,-1
 660 0 l 1,13,-1
 475 0 l 1,14,-1
 339 229 l 1,15,-1
 232 229 l 1,16,-1
 232 0 l 1,17,-1
 68 0 l 1,0,-1
232 372 m 1,18,-1
 382 372 l 2,19,20
 411 372 411 372 432 399.5 c 128,-1,21
 453 427 453 427 453 470 c 0,22,23
 453 514 453 514 429 540 c 128,-1,24
 405 566 405 566 377 566 c 2,25,-1
 232 566 l 1,26,-1
 232 372 l 1,18,-1
EndSplineSet
EndChar

StartChar: S
Encoding: 83 83 55
Width: 615
GlyphClass: 2
Flags: W
LayerCount: 2
Fore
SplineSet
494 502 m 1,0,1
 491 506 491 506 473 517 c 128,-1,2
 455 528 455 528 428 540 c 128,-1,3
 401 552 401 552 369 561 c 128,-1,4
 337 570 337 570 305 570 c 0,5,6
 217 570 217 570 217 511 c 0,7,8
 217 493 217 493 226.5 481 c 128,-1,9
 236 469 236 469 254.5 459.5 c 128,-1,10
 273 450 273 450 301 442 c 128,-1,11
 329 434 329 434 366 424 c 0,12,13
 417 410 417 410 458 393.5 c 128,-1,14
 499 377 499 377 527.5 352.5 c 128,-1,15
 556 328 556 328 571.5 293 c 128,-1,16
 587 258 587 258 587 209 c 0,17,18
 587 149 587 149 564.5 107.5 c 128,-1,19
 542 66 542 66 505 40.5 c 128,-1,20
 468 15 468 15 420 3.5 c 128,-1,21
 372 -8 372 -8 321 -8 c 0,22,23
 282 -8 282 -8 241 -2 c 128,-1,24
 200 4 200 4 161 15.5 c 128,-1,25
 122 27 122 27 85.5 43 c 128,-1,26
 49 59 49 59 18 80 c 1,27,-1
 90 223 l 1,28,29
 94 218 94 218 116 204 c 128,-1,30
 138 190 138 190 170.5 176 c 128,-1,31
 203 162 203 162 243 151 c 128,-1,32
 283 140 283 140 324 140 c 0,33,34
 411 140 411 140 411 193 c 0,35,36
 411 213 411 213 398 226 c 128,-1,37
 385 239 385 239 362 249.5 c 128,-1,38
 339 260 339 260 307.5 269 c 128,-1,39
 276 278 276 278 239 289 c 0,40,41
 190 304 190 304 154 321.5 c 128,-1,42
 118 339 118 339 94.5 362 c 128,-1,43
 71 385 71 385 59.5 415 c 128,-1,44
 48 445 48 445 48 485 c 0,45,46
 48 541 48 541 69 584 c 128,-1,47
 90 627 90 627 126 656.5 c 128,-1,48
 162 686 162 686 209.5 701 c 128,-1,49
 257 716 257 716 310 716 c 0,50,51
 347 716 347 716 383 709 c 128,-1,52
 419 702 419 702 452 691 c 128,-1,53
 485 680 485 680 513.5 666 c 128,-1,54
 542 652 542 652 566 638 c 1,55,-1
 494 502 l 1,0,1
EndSplineSet
EndChar

StartChar: T
Encoding: 84 84 56
Width: 621
GlyphClass: 2
Flags: W
LayerCount: 2
Fore
SplineSet
609 566 m 1,0,-1
 393 566 l 1,1,-1
 393 0 l 1,2,-1
 229 0 l 1,3,-1
 229 566 l 1,4,-1
 12 566 l 1,5,-1
 12 710 l 1,6,-1
 609 710 l 1,7,-1
 609 566 l 1,0,-1
EndSplineSet
EndChar

StartChar: U
Encoding: 85 85 57
Width: 747
GlyphClass: 2
Flags: W
LayerCount: 2
Fore
SplineSet
373 140 m 256,0,1
 415 140 415 140 444 157.5 c 128,-1,2
 473 175 473 175 491 204 c 128,-1,3
 509 233 509 233 516.5 270.5 c 128,-1,4
 524 308 524 308 524 347 c 2,5,-1
 524 710 l 1,6,-1
 688 710 l 1,7,-1
 688 347 l 2,8,9
 688 273 688 273 669.5 209 c 128,-1,10
 651 145 651 145 612.5 97 c 128,-1,11
 574 49 574 49 514.5 21.5 c 128,-1,12
 455 -6 455 -6 373 -6 c 0,13,14
 288 -6 288 -6 228 23 c 128,-1,15
 168 52 168 52 130.5 100.5 c 128,-1,16
 93 149 93 149 75.5 213 c 128,-1,17
 58 277 58 277 58 347 c 2,18,-1
 58 710 l 1,19,-1
 222 710 l 1,20,-1
 222 347 l 2,21,22
 222 306 222 306 230 269 c 128,-1,23
 238 232 238 232 256 203 c 128,-1,24
 274 174 274 174 302.5 157 c 128,-1,25
 331 140 331 140 373 140 c 256,0,1
EndSplineSet
EndChar

StartChar: V
Encoding: 86 86 58
Width: 674
GlyphClass: 2
Flags: W
LayerCount: 2
Fore
SplineSet
171 710 m 1,0,-1
 338 206 l 1,1,-1
 503 710 l 1,2,-1
 676 710 l 1,3,-1
 407 0 l 1,4,-1
 269 0 l 1,5,-1
 -3 710 l 1,6,-1
 171 710 l 1,0,-1
EndSplineSet
EndChar

StartChar: W
Encoding: 87 87 59
Width: 1055
GlyphClass: 2
Flags: W
LayerCount: 2
Fore
SplineSet
304 709 m 1,0,-1
 455 709 l 1,1,-1
 527 482 l 1,2,-1
 599 709 l 1,3,-1
 751 709 l 1,4,-1
 632 379 l 1,5,-1
 704 188 l 1,6,-1
 882 710 l 1,7,-1
 1061 710 l 1,8,-1
 777 0 l 1,9,-1
 640 0 l 1,10,-1
 527 278 l 1,11,-1
 415 0 l 1,12,-1
 277 0 l 1,13,-1
 -6 710 l 1,14,-1
 172 710 l 1,15,-1
 351 188 l 1,16,-1
 421 379 l 1,17,-1
 304 709 l 1,0,-1
EndSplineSet
Substitution2: "'ss01' Style Set 1 in Latin lookup 8 subtable" W.alt
Substitution2: "'salt' Stylistic Alternatives in Latin lookup 5 subtable" W.alt
Substitution2: "'aalt' Access All Alternates in Latin lookup 0 subtable" W.alt
EndChar

StartChar: X
Encoding: 88 88 60
Width: 651
GlyphClass: 2
Flags: W
LayerCount: 2
Fore
SplineSet
171 710 m 1,0,-1
 326 465 l 1,1,-1
 481 710 l 1,2,-1
 658 710 l 1,3,-1
 412 350 l 1,4,-1
 650 0 l 1,5,-1
 473 0 l 1,6,-1
 326 235 l 1,7,-1
 179 0 l 1,8,-1
 1 0 l 1,9,-1
 239 350 l 1,10,-1
 -7 710 l 1,11,-1
 171 710 l 1,0,-1
EndSplineSet
EndChar

StartChar: Y
Encoding: 89 89 61
Width: 663
GlyphClass: 2
Flags: W
LayerCount: 2
Fore
SplineSet
178 710 m 1,0,-1
 331 384 l 1,1,-1
 486 710 l 1,2,-1
 665 710 l 1,3,-1
 412 242 l 1,4,-1
 412 0 l 1,5,-1
 249 0 l 1,6,-1
 249 244 l 1,7,-1
 0 710 l 1,8,-1
 178 710 l 1,0,-1
EndSplineSet
EndChar

StartChar: Z
Encoding: 90 90 62
Width: 625
GlyphClass: 2
Flags: W
LayerCount: 2
Fore
SplineSet
28 123 m 1,0,-1
 398 566 l 1,1,-1
 42 566 l 1,2,-1
 42 710 l 1,3,-1
 587 710 l 1,4,-1
 587 587 l 1,5,-1
 235 144 l 1,6,-1
 591 144 l 1,7,-1
 591 0 l 1,8,-1
 28 0 l 1,9,-1
 28 123 l 1,0,-1
EndSplineSet
EndChar

StartChar: bracketleft
Encoding: 91 91 63
Width: 341
GlyphClass: 2
Flags: W
LayerCount: 2
Fore
SplineSet
80 -40 m 1,0,-1
 80 740 l 1,1,-1
 295 740 l 1,2,-1
 295 613 l 1,3,-1
 228 613 l 1,4,-1
 228 87 l 1,5,-1
 295 87 l 1,6,-1
 295 -40 l 1,7,-1
 80 -40 l 1,0,-1
EndSplineSet
EndChar

StartChar: backslash
Encoding: 92 92 64
Width: 663
GlyphClass: 2
Flags: W
LayerCount: 2
Fore
SplineSet
203 710 m 1,0,-1
 638 0 l 1,1,-1
 462 0 l 1,2,-1
 26 710 l 1,3,-1
 203 710 l 1,0,-1
EndSplineSet
EndChar

StartChar: bracketright
Encoding: 93 93 65
Width: 341
GlyphClass: 2
Flags: W
LayerCount: 2
Fore
SplineSet
47 -40 m 1,0,-1
 47 87 l 1,1,-1
 113 87 l 1,2,-1
 113 613 l 1,3,-1
 47 613 l 1,4,-1
 47 740 l 1,5,-1
 261 740 l 1,6,-1
 261 -40 l 1,7,-1
 47 -40 l 1,0,-1
EndSplineSet
EndChar

StartChar: asciicircum
Encoding: 94 94 66
Width: 604
GlyphClass: 2
Flags: W
LayerCount: 2
Fore
SplineSet
38 303 m 1,0,-1
 236 710 l 1,1,-1
 369 710 l 1,2,-1
 566 303 l 1,3,-1
 436 303 l 1,4,-1
 302 578 l 1,5,-1
 166 303 l 1,6,-1
 38 303 l 1,0,-1
EndSplineSet
EndChar

StartChar: underscore
Encoding: 95 95 67
Width: 459
GlyphClass: 2
Flags: W
LayerCount: 2
Fore
SplineSet
50 -144 m 1,0,-1
 50 0 l 1,1,-1
 410 0 l 1,2,-1
 410 -144 l 1,3,-1
 50 -144 l 1,0,-1
EndSplineSet
EndChar

StartChar: grave
Encoding: 96 96 68
Width: 269
GlyphClass: 2
Flags: W
LayerCount: 2
Fore
SplineSet
46 730 m 1,0,-1
 191 730 l 1,1,-1
 243 600 l 1,2,-1
 142 572 l 1,3,-1
 46 730 l 1,0,-1
EndSplineSet
EndChar

StartChar: a
Encoding: 97 97 69
Width: 586
GlyphClass: 2
Flags: W
LayerCount: 2
Fore
SplineSet
204 -10 m 0,0,1
 165 -10 165 -10 131.5 2.5 c 128,-1,2
 98 15 98 15 74 37.5 c 128,-1,3
 50 60 50 60 36 90.5 c 128,-1,4
 22 121 22 121 22 157 c 0,5,6
 22 196 22 196 38.5 228 c 128,-1,7
 55 260 55 260 85 283 c 128,-1,8
 115 306 115 306 156 319 c 128,-1,9
 197 332 197 332 247 332 c 0,10,11
 280 332 280 332 311 326.5 c 128,-1,12
 342 321 342 321 365 310 c 1,13,-1
 365 334 l 2,14,15
 365 425 365 425 260 425 c 0,16,17
 217 425 217 425 178 410.5 c 128,-1,18
 139 396 139 396 96 367 c 1,19,-1
 49 467 l 1,20,21
 101 501 101 501 157 518 c 128,-1,22
 213 535 213 535 276 535 c 0,23,24
 395 535 395 535 460 479 c 128,-1,25
 525 423 525 423 525 315 c 2,26,-1
 525 180 l 2,27,28
 525 156 525 156 532.5 146.5 c 128,-1,29
 540 137 540 137 559 135 c 1,30,-1
 559 0 l 1,31,32
 538 -5 538 -5 521 -6.5 c 128,-1,33
 504 -8 504 -8 490 -8 c 0,34,35
 445 -8 445 -8 422 9.5 c 128,-1,36
 399 27 399 27 393 59 c 2,37,-1
 390 83 l 1,38,39
 355 38 355 38 306.5 14 c 128,-1,40
 258 -10 258 -10 204 -10 c 0,0,1
251 105 m 0,41,42
 277 105 277 105 301.5 114 c 128,-1,43
 326 123 326 123 342 138 c 0,44,45
 365 156 365 156 365 176 c 2,46,-1
 365 226 l 1,47,48
 344 234 344 234 319.5 238.5 c 128,-1,49
 295 243 295 243 274 243 c 0,50,51
 230 243 230 243 201.5 223 c 128,-1,52
 173 203 173 203 173 171 c 0,53,54
 173 142 173 142 195 123.5 c 128,-1,55
 217 105 217 105 251 105 c 0,41,42
EndSplineSet
Substitution2: "'ss02' Style Set 2 in Latin lookup 9 subtable" a.alt2
Substitution2: "'ss01' Style Set 1 in Latin lookup 8 subtable" a.alt
Substitution2: "'salt' Stylistic Alternatives in Latin lookup 5 subtable" a.alt
Substitution2: "'smcp' Lowercase to Small Capitals in Latin lookup 2 subtable" A.sc
AlternateSubs2: "'aalt' Access All Alternates in Latin lookup 1 subtable" A.sc a.alt a.alt2
EndChar

StartChar: b
Encoding: 98 98 70
Width: 640
GlyphClass: 2
Flags: W
LayerCount: 2
Fore
SplineSet
370 -10 m 0,0,1
 310 -10 310 -10 265 15.5 c 128,-1,2
 220 41 220 41 194 87 c 1,3,-1
 194 0 l 1,4,-1
 55 0 l 1,5,-1
 55 730 l 1,6,-1
 215 730 l 1,7,-1
 215 439 l 1,8,9
 241 484 241 484 284.5 509.5 c 128,-1,10
 328 535 328 535 387 535 c 0,11,12
 437 535 437 535 479 513.5 c 128,-1,13
 521 492 521 492 551 455 c 128,-1,14
 581 418 581 418 598 367.5 c 128,-1,15
 615 317 615 317 615 260 c 256,16,17
 615 203 615 203 596.5 153.5 c 128,-1,18
 578 104 578 104 545 67.5 c 128,-1,19
 512 31 512 31 467 10.5 c 128,-1,20
 422 -10 422 -10 370 -10 c 0,0,1
325 125 m 0,21,22
 353 125 353 125 376 135.5 c 128,-1,23
 399 146 399 146 415.5 164 c 128,-1,24
 432 182 432 182 441.5 206.5 c 128,-1,25
 451 231 451 231 451 260 c 0,26,27
 451 288 451 288 442 313.5 c 128,-1,28
 433 339 433 339 417.5 358 c 128,-1,29
 402 377 402 377 380 388 c 128,-1,30
 358 399 358 399 333 399 c 0,31,32
 295 399 295 399 263.5 373 c 128,-1,33
 232 347 232 347 215 308 c 1,34,-1
 215 198 l 1,35,36
 231 164 231 164 261.5 144.5 c 128,-1,37
 292 125 292 125 325 125 c 0,21,22
EndSplineSet
Substitution2: "'smcp' Lowercase to Small Capitals in Latin lookup 2 subtable" B.sc
Substitution2: "'aalt' Access All Alternates in Latin lookup 0 subtable" B.sc
EndChar

StartChar: c
Encoding: 99 99 71
Width: 570
GlyphClass: 2
Flags: W
LayerCount: 2
Fore
SplineSet
24 263 m 256,0,1
 24 317 24 317 43 366.5 c 128,-1,2
 62 416 62 416 98 453.5 c 128,-1,3
 134 491 134 491 186.5 513 c 128,-1,4
 239 535 239 535 306 535 c 0,5,6
 397 535 397 535 459 496.5 c 128,-1,7
 521 458 521 458 552 396 c 1,8,-1
 396 349 l 1,9,10
 365 399 365 399 305 399 c 0,11,12
 255 399 255 399 221.5 362 c 128,-1,13
 188 325 188 325 188 263 c 0,14,15
 188 232 188 232 197 206.5 c 128,-1,16
 206 181 206 181 222 163 c 128,-1,17
 238 145 238 145 259.5 135 c 128,-1,18
 281 125 281 125 305 125 c 0,19,20
 335 125 335 125 360 139.5 c 128,-1,21
 385 154 385 154 397 177 c 1,22,-1
 553 129 l 1,23,24
 524 68 524 68 460.5 29 c 128,-1,25
 397 -10 397 -10 306 -10 c 0,26,27
 240 -10 240 -10 187.5 12.5 c 128,-1,28
 135 35 135 35 98.5 72.5 c 128,-1,29
 62 110 62 110 43 159.5 c 128,-1,30
 24 209 24 209 24 263 c 256,0,1
EndSplineSet
Substitution2: "'smcp' Lowercase to Small Capitals in Latin lookup 2 subtable" C.sc
Substitution2: "'aalt' Access All Alternates in Latin lookup 0 subtable" C.sc
EndChar

StartChar: d
Encoding: 100 100 72
Width: 654
GlyphClass: 2
Flags: W
LayerCount: 2
Fore
SplineSet
273 -10 m 256,0,1
 219 -10 219 -10 173.5 10.5 c 128,-1,2
 128 31 128 31 95 68 c 128,-1,3
 62 105 62 105 43.5 154.5 c 128,-1,4
 25 204 25 204 25 263 c 0,5,6
 25 320 25 320 42 370 c 128,-1,7
 59 420 59 420 90 456.5 c 128,-1,8
 121 493 121 493 163.5 514 c 128,-1,9
 206 535 206 535 257 535 c 0,10,11
 312 535 312 535 356.5 509 c 128,-1,12
 401 483 401 483 425 439 c 1,13,-1
 425 730 l 1,14,-1
 585 730 l 1,15,-1
 585 180 l 2,16,17
 585 156 585 156 592.5 146.5 c 128,-1,18
 600 137 600 137 619 135 c 1,19,-1
 619 0 l 1,20,21
 597 -5 597 -5 581 -6.5 c 128,-1,22
 565 -8 565 -8 551 -8 c 0,23,24
 509 -8 509 -8 483 9.5 c 128,-1,25
 457 27 457 27 453 60 c 2,26,-1
 450 87 l 1,27,28
 422 38 422 38 374.5 14 c 128,-1,29
 327 -10 327 -10 273 -10 c 256,0,1
316 125 m 0,30,31
 349 125 349 125 379.5 144.5 c 128,-1,32
 410 164 410 164 426 198 c 1,33,-1
 426 308 l 1,34,35
 411 348 411 348 377.5 373.5 c 128,-1,36
 344 399 344 399 308 399 c 0,37,38
 282 399 282 399 260.5 387.5 c 128,-1,39
 239 376 239 376 223 357 c 128,-1,40
 207 338 207 338 198.5 313 c 128,-1,41
 190 288 190 288 190 260 c 0,42,43
 190 231 190 231 199.5 206 c 128,-1,44
 209 181 209 181 225.5 163 c 128,-1,45
 242 145 242 145 265.5 135 c 128,-1,46
 289 125 289 125 316 125 c 0,30,31
EndSplineSet
Substitution2: "'ss01' Style Set 1 in Latin lookup 8 subtable" d.alt
Substitution2: "'salt' Stylistic Alternatives in Latin lookup 5 subtable" d.alt
Substitution2: "'smcp' Lowercase to Small Capitals in Latin lookup 2 subtable" D.sc
AlternateSubs2: "'aalt' Access All Alternates in Latin lookup 1 subtable" D.sc d.alt
EndChar

StartChar: e
Encoding: 101 101 73
Width: 604
GlyphClass: 2
Flags: W
LayerCount: 2
Fore
SplineSet
306 -10 m 0,0,1
 240 -10 240 -10 187.5 11.5 c 128,-1,2
 135 33 135 33 98.5 70 c 128,-1,3
 62 107 62 107 43 155.5 c 128,-1,4
 24 204 24 204 24 257 c 0,5,6
 24 314 24 314 43 364.5 c 128,-1,7
 62 415 62 415 98 453 c 128,-1,8
 134 491 134 491 186.5 513 c 128,-1,9
 239 535 239 535 306 535 c 256,10,11
 373 535 373 535 425 513 c 128,-1,12
 477 491 477 491 513 453.5 c 128,-1,13
 549 416 549 416 567.5 367 c 128,-1,14
 586 318 586 318 586 264 c 0,15,16
 586 250 586 250 585 236.5 c 128,-1,17
 584 223 584 223 582 213 c 1,18,-1
 194 213 l 1,19,20
 198 160 198 160 232.5 132.5 c 128,-1,21
 267 105 267 105 311 105 c 0,22,23
 346 105 346 105 378.5 122 c 128,-1,24
 411 139 411 139 422 168 c 1,25,-1
 558 130 l 1,26,27
 527 68 527 68 462 29 c 128,-1,28
 397 -10 397 -10 306 -10 c 0,0,1
417 312 m 1,29,30
 412 362 412 362 381 391 c 128,-1,31
 350 420 350 420 304 420 c 0,32,33
 257 420 257 420 226.5 390.5 c 128,-1,34
 196 361 196 361 191 312 c 1,35,-1
 417 312 l 1,29,30
EndSplineSet
Substitution2: "'smcp' Lowercase to Small Capitals in Latin lookup 2 subtable" E.sc
Substitution2: "'aalt' Access All Alternates in Latin lookup 0 subtable" E.sc
EndChar

StartChar: f
Encoding: 102 102 74
Width: 385
GlyphClass: 2
Flags: W
LayerCount: 2
Fore
SplineSet
89 0 m 1,0,-1
 89 361 l 1,1,-1
 22 361 l 1,2,-1
 22 482 l 1,3,-1
 89 482 l 1,4,-1
 89 525 l 2,5,6
 89 574 89 574 102 614 c 128,-1,7
 115 654 115 654 139 682 c 128,-1,8
 163 710 163 710 197 725 c 128,-1,9
 231 740 231 740 272 740 c 0,10,11
 336 740 336 740 409 709 c 1,12,-1
 380 589 l 1,13,14
 364 596 364 596 344.5 600.5 c 128,-1,15
 325 605 325 605 308 605 c 0,16,17
 249 605 249 605 249 531 c 2,18,-1
 249 482 l 1,19,-1
 371 482 l 1,20,-1
 371 361 l 1,21,-1
 249 361 l 1,22,-1
 249 0 l 1,23,-1
 89 0 l 1,0,-1
EndSplineSet
Substitution2: "'smcp' Lowercase to Small Capitals in Latin lookup 2 subtable" F.sc
Substitution2: "'aalt' Access All Alternates in Latin lookup 0 subtable" F.sc
EndChar

StartChar: g
Encoding: 103 103 75
Width: 640
GlyphClass: 2
Flags: W
LayerCount: 2
Fore
SplineSet
259 -2 m 256,0,1
 207 -2 207 -2 164 19 c 128,-1,2
 121 40 121 40 90.5 76 c 128,-1,3
 60 112 60 112 43 160 c 128,-1,4
 26 208 26 208 26 263 c 0,5,6
 26 321 26 321 44 370.5 c 128,-1,7
 62 420 62 420 94 456.5 c 128,-1,8
 126 493 126 493 171 514 c 128,-1,9
 216 535 216 535 270 535 c 0,10,11
 330 535 330 535 374.5 509.5 c 128,-1,12
 419 484 419 484 446 439 c 1,13,-1
 446 525 l 1,14,-1
 585 525 l 1,15,-1
 585 36 l 2,16,17
 585 -24 585 -24 562.5 -72 c 128,-1,18
 540 -120 540 -120 500 -153.5 c 128,-1,19
 460 -187 460 -187 404 -205 c 128,-1,20
 348 -223 348 -223 281 -223 c 0,21,22
 196 -223 196 -223 136 -196 c 128,-1,23
 76 -169 76 -169 31 -118 c 1,24,-1
 117 -31 l 1,25,26
 146 -64 146 -64 189 -83.5 c 128,-1,27
 232 -103 232 -103 281 -103 c 0,28,29
 310 -103 310 -103 336 -95 c 128,-1,30
 362 -87 362 -87 382 -70.5 c 128,-1,31
 402 -54 402 -54 413.5 -27.5 c 128,-1,32
 425 -1 425 -1 425 36 c 2,33,-1
 425 87 l 1,34,35
 401 43 401 43 356 20.5 c 128,-1,36
 311 -2 311 -2 259 -2 c 256,0,1
314 125 m 0,37,38
 351 125 351 125 380 145.5 c 128,-1,39
 409 166 409 166 425 198 c 1,40,-1
 425 308 l 1,41,42
 409 350 409 350 376 374.5 c 128,-1,43
 343 399 343 399 306 399 c 0,44,45
 280 399 280 399 258.5 387.5 c 128,-1,46
 237 376 237 376 221.5 356.5 c 128,-1,47
 206 337 206 337 197.5 311.5 c 128,-1,48
 189 286 189 286 189 259 c 0,49,50
 189 230 189 230 198.5 205.5 c 128,-1,51
 208 181 208 181 225 163 c 128,-1,52
 242 145 242 145 264.5 135 c 128,-1,53
 287 125 287 125 314 125 c 0,37,38
EndSplineSet
Substitution2: "'smcp' Lowercase to Small Capitals in Latin lookup 2 subtable" G.sc
Substitution2: "'aalt' Access All Alternates in Latin lookup 0 subtable" G.sc
EndChar

StartChar: h
Encoding: 104 104 76
Width: 612
GlyphClass: 2
Flags: W
LayerCount: 2
Fore
SplineSet
561 0 m 1,0,-1
 401 0 l 1,1,-1
 401 295 l 2,2,3
 401 346 401 346 381 370 c 128,-1,4
 361 394 361 394 326 394 c 0,5,6
 312 394 312 394 295.5 387.5 c 128,-1,7
 279 381 279 381 263.5 368.5 c 128,-1,8
 248 356 248 356 235 339 c 128,-1,9
 222 322 222 322 215 301 c 1,10,-1
 215 0 l 1,11,-1
 55 0 l 1,12,-1
 55 730 l 1,13,-1
 215 730 l 1,14,-1
 215 437 l 1,15,16
 244 484 244 484 291.5 509.5 c 128,-1,17
 339 535 339 535 396 535 c 0,18,19
 449 535 449 535 481.5 516.5 c 128,-1,20
 514 498 514 498 531.5 469.5 c 128,-1,21
 549 441 549 441 555 405.5 c 128,-1,22
 561 370 561 370 561 336 c 2,23,-1
 561 0 l 1,0,-1
EndSplineSet
Substitution2: "'smcp' Lowercase to Small Capitals in Latin lookup 2 subtable" H.sc
Substitution2: "'aalt' Access All Alternates in Latin lookup 0 subtable" H.sc
EndChar

StartChar: i
Encoding: 105 105 77
Width: 270
GlyphClass: 2
Flags: W
LayerCount: 2
Fore
SplineSet
55 0 m 1,0,-1
 55 525 l 1,1,-1
 215 525 l 1,2,-1
 215 0 l 1,3,-1
 55 0 l 1,0,-1
55 585 m 1,4,-1
 55 730 l 1,5,-1
 215 730 l 1,6,-1
 215 585 l 1,7,-1
 55 585 l 1,4,-1
EndSplineSet
Substitution2: "'smcp' Lowercase to Small Capitals in Latin lookup 2 subtable" I.sc
Substitution2: "'aalt' Access All Alternates in Latin lookup 0 subtable" I.sc
EndChar

StartChar: j
Encoding: 106 106 78
Width: 274
GlyphClass: 2
Flags: W
LayerCount: 2
Fore
SplineSet
27 -202 m 0,0,1
 -13 -202 -13 -202 -49 -189.5 c 128,-1,2
 -85 -177 -85 -177 -114 -152 c 1,3,-1
 -47 -43 l 1,4,5
 -36 -54 -36 -54 -22 -59 c 128,-1,6
 -8 -64 -8 -64 7 -64 c 0,7,8
 30 -64 30 -64 45 -49 c 128,-1,9
 60 -34 60 -34 60 -9 c 2,10,-1
 60 525 l 1,11,-1
 220 525 l 1,12,-1
 220 3 l 2,13,14
 220 -42 220 -42 205.5 -80 c 128,-1,15
 191 -118 191 -118 165 -145 c 128,-1,16
 139 -172 139 -172 103.5 -187 c 128,-1,17
 68 -202 68 -202 27 -202 c 0,0,1
60 585 m 1,18,-1
 60 730 l 1,19,-1
 220 730 l 1,20,-1
 220 585 l 1,21,-1
 60 585 l 1,18,-1
EndSplineSet
Substitution2: "'ss01' Style Set 1 in Latin lookup 8 subtable" j.alt
Substitution2: "'salt' Stylistic Alternatives in Latin lookup 5 subtable" j.alt
Substitution2: "'smcp' Lowercase to Small Capitals in Latin lookup 2 subtable" J.sc
AlternateSubs2: "'aalt' Access All Alternates in Latin lookup 1 subtable" J.sc j.alt
EndChar

StartChar: k
Encoding: 107 107 79
Width: 569
GlyphClass: 2
Flags: W
LayerCount: 2
Fore
SplineSet
408 0 m 1,0,-1
 271 211 l 1,1,-1
 215 153 l 1,2,-1
 215 0 l 1,3,-1
 55 0 l 1,4,-1
 55 730 l 1,5,-1
 215 730 l 1,6,-1
 215 307 l 1,7,-1
 392 525 l 1,8,-1
 562 525 l 1,9,-1
 373 299 l 1,10,-1
 578 0 l 1,11,-1
 408 0 l 1,0,-1
EndSplineSet
Substitution2: "'smcp' Lowercase to Small Capitals in Latin lookup 2 subtable" K.sc
Substitution2: "'aalt' Access All Alternates in Latin lookup 0 subtable" K.sc
EndChar

StartChar: l
Encoding: 108 108 80
Width: 335
GlyphClass: 2
Flags: W
LayerCount: 2
Fore
SplineSet
53 730 m 1,0,-1
 213 730 l 1,1,-1
 213 187 l 2,2,3
 213 127 213 127 264 127 c 0,4,5
 276 127 276 127 290.5 130.5 c 128,-1,6
 305 134 305 134 317 141 c 1,7,-1
 338 21 l 1,8,9
 308 7 308 7 269 -1 c 128,-1,10
 230 -9 230 -9 196 -9 c 0,11,12
 127 -9 127 -9 90 27 c 128,-1,13
 53 63 53 63 53 131 c 2,14,-1
 53 730 l 1,0,-1
EndSplineSet
Substitution2: "'ss01' Style Set 1 in Latin lookup 8 subtable" l.alt
Substitution2: "'salt' Stylistic Alternatives in Latin lookup 5 subtable" l.alt
Substitution2: "'smcp' Lowercase to Small Capitals in Latin lookup 2 subtable" L.sc
AlternateSubs2: "'aalt' Access All Alternates in Latin lookup 1 subtable" L.sc l.alt
EndChar

StartChar: m
Encoding: 109 109 81
Width: 935
GlyphClass: 2
Flags: W
LayerCount: 2
Fore
SplineSet
885 0 m 1,0,-1
 725 0 l 1,1,-1
 725 295 l 2,2,3
 725 347 725 347 706 370.5 c 128,-1,4
 687 394 687 394 657 394 c 0,5,6
 641 394 641 394 624.5 387 c 128,-1,7
 608 380 608 380 594 367.5 c 128,-1,8
 580 355 580 355 568.5 338 c 128,-1,9
 557 321 557 321 550 301 c 1,10,-1
 550 0 l 1,11,-1
 390 0 l 1,12,-1
 390 295 l 2,13,14
 390 347 390 347 371 370.5 c 128,-1,15
 352 394 352 394 322 394 c 0,16,17
 290 394 290 394 259.5 368.5 c 128,-1,18
 229 343 229 343 215 301 c 1,19,-1
 215 0 l 1,20,-1
 55 0 l 1,21,-1
 55 525 l 1,22,-1
 199 525 l 1,23,-1
 199 437 l 1,24,25
 228 485 228 485 277.5 510 c 128,-1,26
 327 535 327 535 393 535 c 0,27,28
 426 535 426 535 450.5 527 c 128,-1,29
 475 519 475 519 493 505 c 128,-1,30
 511 491 511 491 522 472.5 c 128,-1,31
 533 454 533 454 538 433 c 1,32,33
 568 482 568 482 617 508.5 c 128,-1,34
 666 535 666 535 729 535 c 0,35,36
 779 535 779 535 809.5 516.5 c 128,-1,37
 840 498 840 498 857 468.5 c 128,-1,38
 874 439 874 439 879.5 404 c 128,-1,39
 885 369 885 369 885 336 c 2,40,-1
 885 0 l 1,0,-1
EndSplineSet
Substitution2: "'smcp' Lowercase to Small Capitals in Latin lookup 2 subtable" M.sc
Substitution2: "'aalt' Access All Alternates in Latin lookup 0 subtable" M.sc
EndChar

StartChar: n
Encoding: 110 110 82
Width: 612
GlyphClass: 2
Flags: W
LayerCount: 2
Fore
SplineSet
561 0 m 1,0,-1
 401 0 l 1,1,-1
 401 295 l 2,2,3
 401 347 401 347 381.5 370.5 c 128,-1,4
 362 394 362 394 330 394 c 0,5,6
 313 394 313 394 296 387 c 128,-1,7
 279 380 279 380 263 367.5 c 128,-1,8
 247 355 247 355 234.5 338 c 128,-1,9
 222 321 222 321 215 301 c 1,10,-1
 215 0 l 1,11,-1
 55 0 l 1,12,-1
 55 525 l 1,13,-1
 199 525 l 1,14,-1
 199 437 l 1,15,16
 228 484 228 484 281 509.5 c 128,-1,17
 334 535 334 535 403 535 c 0,18,19
 454 535 454 535 485 516.5 c 128,-1,20
 516 498 516 498 533 468.5 c 128,-1,21
 550 439 550 439 555.5 404 c 128,-1,22
 561 369 561 369 561 336 c 2,23,-1
 561 0 l 1,0,-1
EndSplineSet
Substitution2: "'smcp' Lowercase to Small Capitals in Latin lookup 2 subtable" N.sc
Substitution2: "'aalt' Access All Alternates in Latin lookup 0 subtable" N.sc
EndChar

StartChar: o
Encoding: 111 111 83
Width: 610
GlyphClass: 2
Flags: W
LayerCount: 2
Fore
SplineSet
305 -10 m 256,0,1
 238 -10 238 -10 185.5 12 c 128,-1,2
 133 34 133 34 97 71.5 c 128,-1,3
 61 109 61 109 42.5 158.5 c 128,-1,4
 24 208 24 208 24 262 c 256,5,6
 24 316 24 316 42.5 365.5 c 128,-1,7
 61 415 61 415 97 452.5 c 128,-1,8
 133 490 133 490 185.5 512.5 c 128,-1,9
 238 535 238 535 305 535 c 256,10,11
 372 535 372 535 424 512.5 c 128,-1,12
 476 490 476 490 512 452.5 c 128,-1,13
 548 415 548 415 567 365.5 c 128,-1,14
 586 316 586 316 586 262 c 256,15,16
 586 208 586 208 567.5 158.5 c 128,-1,17
 549 109 549 109 513 71.5 c 128,-1,18
 477 34 477 34 424.5 12 c 128,-1,19
 372 -10 372 -10 305 -10 c 256,0,1
188 262 m 0,20,21
 188 200 188 200 221 162.5 c 128,-1,22
 254 125 254 125 305 125 c 0,23,24
 330 125 330 125 351 135 c 128,-1,25
 372 145 372 145 387.5 163 c 128,-1,26
 403 181 403 181 412 206.5 c 128,-1,27
 421 232 421 232 421 262 c 0,28,29
 421 324 421 324 388 361.5 c 128,-1,30
 355 399 355 399 305 399 c 0,31,32
 280 399 280 399 258.5 389 c 128,-1,33
 237 379 237 379 221.5 361 c 128,-1,34
 206 343 206 343 197 317.5 c 128,-1,35
 188 292 188 292 188 262 c 0,20,21
EndSplineSet
Substitution2: "'smcp' Lowercase to Small Capitals in Latin lookup 2 subtable" O.sc
Substitution2: "'aalt' Access All Alternates in Latin lookup 0 subtable" O.sc
EndChar

StartChar: p
Encoding: 112 112 84
Width: 640
GlyphClass: 2
Flags: W
LayerCount: 2
Fore
SplineSet
387 -10 m 0,0,1
 327 -10 327 -10 283 15 c 128,-1,2
 239 40 239 40 215 85 c 1,3,-1
 215 -213 l 1,4,-1
 55 -213 l 1,5,-1
 55 525 l 1,6,-1
 194 525 l 1,7,-1
 194 440 l 1,8,9
 223 485 223 485 266.5 510 c 128,-1,10
 310 535 310 535 370 535 c 0,11,12
 423 535 423 535 467.5 514 c 128,-1,13
 512 493 512 493 544.5 456.5 c 128,-1,14
 577 420 577 420 595.5 370.5 c 128,-1,15
 614 321 614 321 614 264 c 0,16,17
 614 205 614 205 597 155 c 128,-1,18
 580 105 580 105 550 68.5 c 128,-1,19
 520 32 520 32 478 11 c 128,-1,20
 436 -10 436 -10 387 -10 c 0,0,1
333 125 m 0,21,22
 359 125 359 125 380.5 136.5 c 128,-1,23
 402 148 402 148 418 167 c 128,-1,24
 434 186 434 186 442.5 211.5 c 128,-1,25
 451 237 451 237 451 265 c 0,26,27
 451 294 451 294 441.5 318.5 c 128,-1,28
 432 343 432 343 415.5 361 c 128,-1,29
 399 379 399 379 375.5 389 c 128,-1,30
 352 399 352 399 325 399 c 0,31,32
 292 399 292 399 261.5 379.5 c 128,-1,33
 231 360 231 360 215 327 c 1,34,-1
 215 219 l 1,35,36
 231 179 231 179 263.5 152 c 128,-1,37
 296 125 296 125 333 125 c 0,21,22
EndSplineSet
Substitution2: "'smcp' Lowercase to Small Capitals in Latin lookup 2 subtable" P.sc
Substitution2: "'aalt' Access All Alternates in Latin lookup 0 subtable" P.sc
EndChar

StartChar: q
Encoding: 113 113 85
Width: 640
GlyphClass: 2
Flags: W
LayerCount: 2
Fore
SplineSet
253 -10 m 0,0,1
 203 -10 203 -10 161.5 11 c 128,-1,2
 120 32 120 32 90 69 c 128,-1,3
 60 106 60 106 43 156 c 128,-1,4
 26 206 26 206 26 264 c 0,5,6
 26 321 26 321 44.5 370.5 c 128,-1,7
 63 420 63 420 95.5 456.5 c 128,-1,8
 128 493 128 493 172.5 514 c 128,-1,9
 217 535 217 535 270 535 c 0,10,11
 330 535 330 535 373.5 509 c 128,-1,12
 417 483 417 483 446 439 c 1,13,-1
 446 525 l 1,14,-1
 585 525 l 1,15,-1
 585 -25 l 2,16,17
 585 -49 585 -49 594 -58.5 c 128,-1,18
 603 -68 603 -68 626 -69 c 1,19,-1
 626 -205 l 1,20,21
 605 -209 605 -209 581 -211 c 128,-1,22
 557 -213 557 -213 538 -213 c 0,23,24
 515 -213 515 -213 494.5 -205.5 c 128,-1,25
 474 -198 474 -198 458.5 -184.5 c 128,-1,26
 443 -171 443 -171 434 -152 c 128,-1,27
 425 -133 425 -133 425 -110 c 2,28,-1
 425 85 l 1,29,30
 371 -10 371 -10 253 -10 c 0,0,1
314 125 m 0,31,32
 349 125 349 125 377 144.5 c 128,-1,33
 405 164 405 164 425 196 c 1,34,-1
 425 307 l 1,35,36
 419 326 419 326 407 343 c 128,-1,37
 395 360 395 360 379 372.5 c 128,-1,38
 363 385 363 385 345 392 c 128,-1,39
 327 399 327 399 309 399 c 0,40,41
 283 399 283 399 261 387.5 c 128,-1,42
 239 376 239 376 223 357 c 128,-1,43
 207 338 207 338 198 313 c 128,-1,44
 189 288 189 288 189 260 c 0,45,46
 189 201 189 201 223.5 163 c 128,-1,47
 258 125 258 125 314 125 c 0,31,32
EndSplineSet
Substitution2: "'ss01' Style Set 1 in Latin lookup 8 subtable" q.alt
Substitution2: "'salt' Stylistic Alternatives in Latin lookup 5 subtable" q.alt
Substitution2: "'smcp' Lowercase to Small Capitals in Latin lookup 2 subtable" Q.sc
AlternateSubs2: "'aalt' Access All Alternates in Latin lookup 1 subtable" Q.sc q.alt
EndChar

StartChar: r
Encoding: 114 114 86
Width: 400
GlyphClass: 2
Flags: W
LayerCount: 2
Fore
SplineSet
388 388 m 1,0,1
 330 387 330 387 283 369 c 128,-1,2
 236 351 236 351 215 315 c 1,3,-1
 215 0 l 1,4,-1
 55 0 l 1,5,-1
 55 525 l 1,6,-1
 202 525 l 1,7,-1
 202 419 l 1,8,9
 229 472 229 472 271.5 502 c 128,-1,10
 314 532 314 532 362 533 c 0,11,12
 373 533 373 533 378 533 c 128,-1,13
 383 533 383 533 388 532 c 1,14,-1
 388 388 l 1,0,1
EndSplineSet
Substitution2: "'smcp' Lowercase to Small Capitals in Latin lookup 2 subtable" R.sc
Substitution2: "'aalt' Access All Alternates in Latin lookup 0 subtable" R.sc
EndChar

StartChar: s
Encoding: 115 115 87
Width: 499
GlyphClass: 2
Flags: W
LayerCount: 2
Fore
SplineSet
262 -10 m 0,0,1
 195 -10 195 -10 130 11.5 c 128,-1,2
 65 33 65 33 20 74 c 1,3,-1
 77 172 l 1,4,5
 125 139 125 139 170.5 121 c 128,-1,6
 216 103 216 103 258 103 c 0,7,8
 289 103 289 103 306 114 c 128,-1,9
 323 125 323 125 323 146 c 256,10,11
 323 167 323 167 301.5 179.5 c 128,-1,12
 280 192 280 192 226 206 c 0,13,14
 173 221 173 221 136.5 235 c 128,-1,15
 100 249 100 249 77 266 c 128,-1,16
 54 283 54 283 44 305 c 128,-1,17
 34 327 34 327 34 357 c 0,18,19
 34 397 34 397 50 430 c 128,-1,20
 66 463 66 463 94 486 c 128,-1,21
 122 509 122 509 160.5 522 c 128,-1,22
 199 535 199 535 244 535 c 0,23,24
 303 535 303 535 354.5 519 c 128,-1,25
 406 503 406 503 454 461 c 1,26,-1
 392 365 l 1,27,28
 347 396 347 396 312 410 c 128,-1,29
 277 424 277 424 244 424 c 0,30,31
 218 424 218 424 200 413.5 c 128,-1,32
 182 403 182 403 182 380 c 0,33,34
 182 358 182 358 201.5 347 c 128,-1,35
 221 336 221 336 274 323 c 0,36,37
 330 308 330 308 368.5 293 c 128,-1,38
 407 278 407 278 431 259.5 c 128,-1,39
 455 241 455 241 466 217 c 128,-1,40
 477 193 477 193 477 160 c 0,41,42
 477 82 477 82 419 36 c 128,-1,43
 361 -10 361 -10 262 -10 c 0,0,1
EndSplineSet
Substitution2: "'smcp' Lowercase to Small Capitals in Latin lookup 2 subtable" S.sc
Substitution2: "'aalt' Access All Alternates in Latin lookup 0 subtable" S.sc
EndChar

StartChar: t
Encoding: 116 116 88
Width: 402
GlyphClass: 2
Flags: W
LayerCount: 2
Fore
SplineSet
395 28 m 1,0,1
 362 14 362 14 319.5 2 c 128,-1,2
 277 -10 277 -10 234 -10 c 0,3,4
 204 -10 204 -10 177.5 -2.5 c 128,-1,5
 151 5 151 5 131 21.5 c 128,-1,6
 111 38 111 38 99.5 65 c 128,-1,7
 88 92 88 92 88 130 c 2,8,-1
 88 404 l 1,9,-1
 21 404 l 1,10,-1
 21 525 l 1,11,-1
 88 525 l 1,12,-1
 88 692 l 1,13,-1
 248 692 l 1,14,-1
 248 525 l 1,15,-1
 355 525 l 1,16,-1
 355 404 l 1,17,-1
 248 404 l 1,18,-1
 248 185 l 2,19,20
 248 159 248 159 261 147.5 c 128,-1,21
 274 136 274 136 294 136 c 0,22,23
 312 136 312 136 331 142 c 128,-1,24
 350 148 350 148 364 155 c 1,25,-1
 395 28 l 1,0,1
EndSplineSet
Substitution2: "'ss01' Style Set 1 in Latin lookup 8 subtable" t.alt
Substitution2: "'salt' Stylistic Alternatives in Latin lookup 5 subtable" t.alt
Substitution2: "'smcp' Lowercase to Small Capitals in Latin lookup 2 subtable" T.sc
AlternateSubs2: "'aalt' Access All Alternates in Latin lookup 1 subtable" T.sc t.alt
EndChar

StartChar: u
Encoding: 117 117 89
Width: 627
GlyphClass: 2
Flags: W
LayerCount: 2
Fore
SplineSet
214 -10 m 0,0,1
 133 -10 133 -10 91.5 40.5 c 128,-1,2
 50 91 50 91 50 189 c 2,3,-1
 50 525 l 1,4,-1
 210 525 l 1,5,-1
 210 224 l 2,6,7
 210 176 210 176 229 150.5 c 128,-1,8
 248 125 248 125 283 125 c 0,9,10
 315 125 315 125 345 142 c 128,-1,11
 375 159 375 159 398 201 c 1,12,-1
 398 525 l 1,13,-1
 558 525 l 1,14,-1
 558 180 l 2,15,16
 558 156 558 156 565.5 146.5 c 128,-1,17
 573 137 573 137 592 135 c 1,18,-1
 592 0 l 1,19,20
 569 -5 569 -5 553 -6.5 c 128,-1,21
 537 -8 537 -8 524 -8 c 0,22,23
 438 -8 438 -8 426 59 c 1,24,-1
 423 91 l 1,25,26
 387 39 387 39 333.5 14.5 c 128,-1,27
 280 -10 280 -10 214 -10 c 0,0,1
EndSplineSet
Substitution2: "'smcp' Lowercase to Small Capitals in Latin lookup 2 subtable" U.sc
Substitution2: "'aalt' Access All Alternates in Latin lookup 0 subtable" U.sc
EndChar

StartChar: v
Encoding: 118 118 90
Width: 556
GlyphClass: 2
Flags: W
LayerCount: 2
Fore
SplineSet
191 0 m 1,0,-1
 5 525 l 1,1,-1
 170 525 l 1,2,-1
 285 128 l 1,3,-1
 401 525 l 1,4,-1
 550 525 l 1,5,-1
 365 0 l 1,6,-1
 191 0 l 1,0,-1
EndSplineSet
Substitution2: "'smcp' Lowercase to Small Capitals in Latin lookup 2 subtable" V.sc
Substitution2: "'aalt' Access All Alternates in Latin lookup 0 subtable" V.sc
EndChar

StartChar: w
Encoding: 119 119 91
Width: 850
GlyphClass: 2
Flags: W
LayerCount: 2
Fore
SplineSet
702 525 m 1,0,-1
 854 525 l 1,1,-1
 637 0 l 1,2,-1
 506 0 l 1,3,-1
 425 216 l 1,4,-1
 344 0 l 1,5,-1
 213 0 l 1,6,-1
 -4 525 l 1,7,-1
 147 525 l 1,8,-1
 290 148 l 1,9,-1
 339 291 l 1,10,-1
 246 525 l 1,11,-1
 374 525 l 1,12,-1
 425 367 l 1,13,-1
 475 525 l 1,14,-1
 603 525 l 1,15,-1
 511 291 l 1,16,-1
 560 148 l 1,17,-1
 702 525 l 1,0,-1
EndSplineSet
Substitution2: "'ss01' Style Set 1 in Latin lookup 8 subtable" w.alt
Substitution2: "'salt' Stylistic Alternatives in Latin lookup 5 subtable" w.alt
Substitution2: "'smcp' Lowercase to Small Capitals in Latin lookup 2 subtable" W.sc
AlternateSubs2: "'aalt' Access All Alternates in Latin lookup 1 subtable" W.sc w.alt
EndChar

StartChar: x
Encoding: 120 120 92
Width: 542
GlyphClass: 2
Flags: W
LayerCount: 2
Fore
SplineSet
166 525 m 1,0,-1
 261 377 l 1,1,-1
 271 358 l 1,2,-1
 281 377 l 1,3,-1
 375 525 l 1,4,-1
 539 525 l 1,5,-1
 357 262 l 1,6,-1
 543 0 l 1,7,-1
 379 0 l 1,8,-1
 280 147 l 1,9,-1
 271 166 l 1,10,-1
 262 147 l 1,11,-1
 163 0 l 1,12,-1
 -1 0 l 1,13,-1
 185 262 l 1,14,-1
 3 525 l 1,15,-1
 166 525 l 1,0,-1
EndSplineSet
Substitution2: "'smcp' Lowercase to Small Capitals in Latin lookup 2 subtable" X.sc
Substitution2: "'aalt' Access All Alternates in Latin lookup 0 subtable" X.sc
EndChar

StartChar: y
Encoding: 121 121 93
Width: 552
GlyphClass: 2
Flags: W
LayerCount: 2
Fore
SplineSet
59 -79 m 1,0,1
 79 -86 79 -86 96.5 -89 c 128,-1,2
 114 -92 114 -92 128 -92 c 0,3,4
 157 -92 157 -92 173 -72 c 128,-1,5
 189 -52 189 -52 202 0 c 1,6,-1
 2 525 l 1,7,-1
 167 525 l 1,8,-1
 289 137 l 1,9,-1
 394 525 l 1,10,-1
 544 525 l 1,11,-1
 344 -85 l 2,12,13
 323 -150 323 -150 269 -190.5 c 128,-1,14
 215 -231 215 -231 141 -231 c 0,15,16
 121 -231 121 -231 100.5 -227.5 c 128,-1,17
 80 -224 80 -224 59 -216 c 1,18,-1
 59 -79 l 1,0,1
EndSplineSet
Substitution2: "'ss01' Style Set 1 in Latin lookup 8 subtable" y.alt
Substitution2: "'salt' Stylistic Alternatives in Latin lookup 5 subtable" y.alt
Substitution2: "'smcp' Lowercase to Small Capitals in Latin lookup 2 subtable" Y.sc
AlternateSubs2: "'aalt' Access All Alternates in Latin lookup 1 subtable" Y.sc y.alt
EndChar

StartChar: z
Encoding: 122 122 94
Width: 494
GlyphClass: 2
Flags: W
LayerCount: 2
Fore
SplineSet
24 96 m 1,0,-1
 292 414 l 1,1,-1
 38 414 l 1,2,-1
 38 525 l 1,3,-1
 459 525 l 1,4,-1
 459 429 l 1,5,-1
 193 111 l 1,6,-1
 466 111 l 1,7,-1
 466 0 l 1,8,-1
 24 0 l 1,9,-1
 24 96 l 1,0,-1
EndSplineSet
Substitution2: "'smcp' Lowercase to Small Capitals in Latin lookup 2 subtable" Z.sc
Substitution2: "'aalt' Access All Alternates in Latin lookup 0 subtable" Z.sc
EndChar

StartChar: braceleft
Encoding: 123 123 95
Width: 344
GlyphClass: 2
Flags: W
LayerCount: 2
Fore
SplineSet
237 613 m 1,0,-1
 237 432 l 2,1,2
 237 409 237 409 226 391.5 c 128,-1,3
 215 374 215 374 199 360 c 1,4,5
 214 346 214 346 225.5 328.5 c 128,-1,6
 237 311 237 311 237 288 c 2,7,-1
 237 96 l 1,8,-1
 292 96 l 1,9,-1
 292 -31 l 1,10,-1
 116 -31 l 2,11,12
 110 -31 110 -31 101.5 -25 c 128,-1,13
 93 -19 93 -19 93 -1 c 2,14,-1
 93 234 l 2,15,16
 93 263 93 263 76 282 c 128,-1,17
 59 301 59 301 39 306 c 1,18,-1
 39 416 l 1,19,20
 49 416 49 416 59 422.5 c 128,-1,21
 69 429 69 429 76.5 439 c 128,-1,22
 84 449 84 449 88.5 461.5 c 128,-1,23
 93 474 93 474 93 486 c 2,24,-1
 93 710 l 2,25,26
 93 728 93 728 102 734 c 128,-1,27
 111 740 111 740 116 740 c 2,28,-1
 292 740 l 1,29,-1
 292 613 l 1,30,-1
 237 613 l 1,0,-1
EndSplineSet
EndChar

StartChar: bar
Encoding: 124 124 96
Width: 291
GlyphClass: 2
Flags: W
LayerCount: 2
Fore
SplineSet
78 -130 m 1,0,-1
 78 775 l 1,1,-1
 213 775 l 1,2,-1
 213 -130 l 1,3,-1
 78 -130 l 1,0,-1
EndSplineSet
EndChar

StartChar: braceright
Encoding: 125 125 97
Width: 344
GlyphClass: 2
Flags: W
LayerCount: 2
Fore
SplineSet
52 613 m 1,0,-1
 52 740 l 1,1,-1
 227 740 l 2,2,3
 233 740 233 740 241.5 734 c 128,-1,4
 250 728 250 728 250 710 c 2,5,-1
 250 486 l 2,6,7
 250 474 250 474 254.5 461.5 c 128,-1,8
 259 449 259 449 267 439 c 128,-1,9
 275 429 275 429 284.5 422.5 c 128,-1,10
 294 416 294 416 305 416 c 1,11,-1
 305 306 l 1,12,13
 285 301 285 301 267.5 282 c 128,-1,14
 250 263 250 263 250 234 c 2,15,-1
 250 -1 l 2,16,17
 250 -19 250 -19 242 -25 c 128,-1,18
 234 -31 234 -31 227 -31 c 2,19,-1
 52 -31 l 1,20,-1
 52 96 l 1,21,-1
 107 96 l 1,22,-1
 107 288 l 2,23,24
 107 311 107 311 118 328.5 c 128,-1,25
 129 346 129 346 144 360 c 1,26,27
 128 374 128 374 117.5 391.5 c 128,-1,28
 107 409 107 409 107 432 c 2,29,-1
 107 613 l 1,30,-1
 52 613 l 1,0,-1
EndSplineSet
EndChar

StartChar: asciitilde
Encoding: 126 126 98
Width: 587
GlyphClass: 2
Flags: W
LayerCount: 2
Fore
SplineSet
51 222 m 1,0,1
 51 232 51 232 58.5 256 c 128,-1,2
 66 280 66 280 83.5 305 c 128,-1,3
 101 330 101 330 130 348.5 c 128,-1,4
 159 367 159 367 202 367 c 0,5,6
 230 367 230 367 253.5 358.5 c 128,-1,7
 277 350 277 350 298.5 340.5 c 128,-1,8
 320 331 320 331 340.5 322.5 c 128,-1,9
 361 314 361 314 384 314 c 0,10,11
 406 314 406 314 419.5 321.5 c 128,-1,12
 433 329 433 329 440.5 338 c 128,-1,13
 448 347 448 347 450.5 355 c 128,-1,14
 453 363 453 363 453 365 c 2,15,-1
 539 365 l 1,16,17
 539 359 539 359 531.5 335.5 c 128,-1,18
 524 312 524 312 506 287 c 128,-1,19
 488 262 488 262 458 242 c 128,-1,20
 428 222 428 222 383 222 c 0,21,22
 355 222 355 222 332 230 c 128,-1,23
 309 238 309 238 287.5 247.5 c 128,-1,24
 266 257 266 257 245 265 c 128,-1,25
 224 273 224 273 201 273 c 0,26,27
 179 273 179 273 166.5 265.5 c 128,-1,28
 154 258 154 258 147.5 248.5 c 128,-1,29
 141 239 141 239 139 231 c 128,-1,30
 137 223 137 223 137 222 c 2,31,-1
 51 222 l 1,32,-1
 51 222 l 1,0,1
EndSplineSet
EndChar

StartChar: exclamdown
Encoding: 161 161 100
Width: 331
GlyphClass: 2
Flags: W
LayerCount: 2
Fore
SplineSet
245 429 m 1,0,-1
 245 -6 l 1,1,-1
 85 -6 l 1,2,-1
 85 429 l 1,3,-1
 245 429 l 1,0,-1
245 711 m 1,4,-1
 245 545 l 1,5,-1
 85 545 l 1,6,-1
 85 711 l 1,7,-1
 245 711 l 1,4,-1
EndSplineSet
EndChar

StartChar: cent
Encoding: 162 162 101
Width: 604
GlyphClass: 2
Flags: W
LayerCount: 2
Fore
SplineSet
276 -120 m 1,0,-1
 276 -9 l 1,1,2
 224 -5 224 -5 180 19.5 c 128,-1,3
 136 44 136 44 104.5 81 c 128,-1,4
 73 118 73 118 55.5 164 c 128,-1,5
 38 210 38 210 38 258 c 0,6,7
 38 309 38 309 53 354.5 c 128,-1,8
 68 400 68 400 98 436.5 c 128,-1,9
 128 473 128 473 172.5 498.5 c 128,-1,10
 217 524 217 524 276 533 c 1,11,-1
 276 645 l 1,12,-1
 345 645 l 1,13,-1
 345 533 l 1,14,15
 414 531 414 531 473 497 c 128,-1,16
 532 463 532 463 567 396 c 1,17,-1
 411 349 l 1,18,19
 400 368 400 368 382 380 c 128,-1,20
 364 392 364 392 345 394 c 1,21,-1
 345 129 l 1,22,23
 367 135 367 135 385.5 147.5 c 128,-1,24
 404 160 404 160 412 177 c 1,25,-1
 568 129 l 1,26,27
 552 94 552 94 524.5 68 c 128,-1,28
 497 42 497 42 465.5 24.5 c 128,-1,29
 434 7 434 7 402 -1.5 c 128,-1,30
 370 -10 370 -10 345 -10 c 1,31,-1
 345 -120 l 1,32,-1
 276 -120 l 1,0,-1
203 258 m 0,33,34
 203 219 203 219 222 185.5 c 128,-1,35
 241 152 241 152 276 137 c 1,36,-1
 276 387 l 1,37,38
 241 376 241 376 222 340 c 128,-1,39
 203 304 203 304 203 258 c 0,33,34
EndSplineSet
EndChar

StartChar: sterling
Encoding: 163 163 102
Width: 564
GlyphClass: 2
Flags: W
LayerCount: 2
Fore
SplineSet
59 384 m 1,0,-1
 123 384 l 1,1,2
 106 421 106 421 90.5 457.5 c 128,-1,3
 75 494 75 494 75 534 c 0,4,5
 75 572 75 572 91.5 605 c 128,-1,6
 108 638 108 638 137.5 662.5 c 128,-1,7
 167 687 167 687 206.5 701 c 128,-1,8
 246 715 246 715 291 715 c 0,9,10
 354 715 354 715 411.5 687.5 c 128,-1,11
 469 660 469 660 509 610 c 1,12,-1
 426 512 l 1,13,14
 401 544 401 544 362.5 565 c 128,-1,15
 324 586 324 586 289 586 c 0,16,17
 257 586 257 586 237 567 c 128,-1,18
 217 548 217 548 217 517 c 256,19,20
 217 486 217 486 234 454 c 128,-1,21
 251 422 251 422 266 384 c 1,22,-1
 453 384 l 1,23,-1
 453 265 l 1,24,-1
 286 265 l 1,25,26
 282 228 282 228 264 194.5 c 128,-1,27
 246 161 246 161 210 123 c 1,28,29
 233 131 233 131 251 134 c 128,-1,30
 269 137 269 137 286 137 c 0,31,32
 321 137 321 137 353.5 129 c 128,-1,33
 386 121 386 121 419 121 c 0,34,35
 437 121 437 121 453 124.5 c 128,-1,36
 469 128 469 128 489 135 c 1,37,-1
 528 17 l 1,38,39
 505 3 505 3 472.5 -6 c 128,-1,40
 440 -15 440 -15 411 -15 c 0,41,42
 388 -15 388 -15 364.5 -10 c 128,-1,43
 341 -5 341 -5 316.5 0.5 c 128,-1,44
 292 6 292 6 267.5 11 c 128,-1,45
 243 16 243 16 219 16 c 0,46,47
 191 16 191 16 154.5 9 c 128,-1,48
 118 2 118 2 83 -9 c 1,49,-1
 50 105 l 1,50,51
 93 136 93 136 119 178.5 c 128,-1,52
 145 221 145 221 149 265 c 1,53,-1
 59 265 l 1,54,-1
 59 384 l 1,0,-1
EndSplineSet
EndChar

StartChar: currency
Encoding: 164 164 103
Width: 560
GlyphClass: 2
Flags: W
LayerCount: 2
Fore
SplineSet
176 501 m 1,0,1
 198 513 198 513 224 520 c 128,-1,2
 250 527 250 527 281 527 c 0,3,4
 311 527 311 527 336.5 520 c 128,-1,5
 362 513 362 513 384 502 c 1,6,-1
 453 572 l 1,7,-1
 515 510 l 1,8,-1
 449 444 l 1,9,10
 480 397 480 397 480 338 c 0,11,12
 480 277 480 277 448 230 c 1,13,-1
 515 164 l 1,14,-1
 458 107 l 1,15,-1
 386 174 l 1,16,17
 341 149 341 149 281 149 c 0,18,19
 249 149 249 149 222.5 156 c 128,-1,20
 196 163 196 163 174 175 c 1,21,-1
 102 107 l 1,22,-1
 44 164 l 1,23,-1
 112 232 l 1,24,25
 98 255 98 255 90 282 c 128,-1,26
 82 309 82 309 82 338 c 0,27,28
 82 396 82 396 111 442 c 1,29,-1
 44 510 l 1,30,-1
 107 572 l 1,31,-1
 176 501 l 1,0,1
197 337 m 0,32,33
 197 296 197 296 221 271 c 128,-1,34
 245 246 245 246 281 246 c 256,35,36
 317 246 317 246 341 271 c 128,-1,37
 365 296 365 296 365 338 c 256,38,39
 365 380 365 380 341 404.5 c 128,-1,40
 317 429 317 429 281 429 c 256,41,42
 245 429 245 429 221 404 c 128,-1,43
 197 379 197 379 197 337 c 0,32,33
EndSplineSet
EndChar

StartChar: yen
Encoding: 165 165 104
Width: 726
GlyphClass: 2
Flags: W
LayerCount: 2
Fore
SplineSet
533 416 m 1,0,-1
 602 416 l 1,1,-1
 602 313 l 1,2,-1
 480 313 l 1,3,-1
 442 242 l 1,4,-1
 442 211 l 1,5,-1
 603 211 l 1,6,-1
 603 108 l 1,7,-1
 442 108 l 1,8,-1
 442 0 l 1,9,-1
 279 0 l 1,10,-1
 279 108 l 1,11,-1
 119 108 l 1,12,-1
 119 211 l 1,13,-1
 279 211 l 1,14,-1
 279 244 l 1,15,-1
 242 313 l 1,16,-1
 120 313 l 1,17,-1
 120 416 l 1,18,-1
 190 416 l 1,19,-1
 30 710 l 1,20,-1
 207 710 l 1,21,-1
 360 384 l 1,22,-1
 516 710 l 1,23,-1
 695 710 l 1,24,-1
 533 416 l 1,0,-1
EndSplineSet
EndChar

StartChar: brokenbar
Encoding: 166 166 105
Width: 294
GlyphClass: 2
Flags: W
LayerCount: 2
Fore
SplineSet
215 260 m 1,0,-1
 215 -130 l 1,1,-1
 79 -130 l 1,2,-1
 79 260 l 1,3,-1
 215 260 l 1,0,-1
215 775 m 1,4,-1
 215 385 l 1,5,-1
 79 385 l 1,6,-1
 79 775 l 1,7,-1
 215 775 l 1,4,-1
EndSplineSet
EndChar

StartChar: section
Encoding: 167 167 106
Width: 541
GlyphClass: 2
Flags: W
LayerCount: 2
Fore
SplineSet
471 223 m 1,0,1
 484 209 484 209 492.5 184.5 c 128,-1,2
 501 160 501 160 501 122 c 0,3,4
 501 64 501 64 478.5 24 c 128,-1,5
 456 -16 456 -16 421.5 -41 c 128,-1,6
 387 -66 387 -66 346.5 -77 c 128,-1,7
 306 -88 306 -88 271 -88 c 0,8,9
 230 -88 230 -88 194 -76 c 128,-1,10
 158 -64 158 -64 129.5 -47 c 128,-1,11
 101 -30 101 -30 80.5 -11.5 c 128,-1,12
 60 7 60 7 48 21 c 1,13,-1
 150 119 l 1,14,15
 179 89 179 89 206.5 76.5 c 128,-1,16
 234 64 234 64 263 64 c 256,17,18
 292 64 292 64 313.5 77 c 128,-1,19
 335 90 335 90 335 116 c 0,20,21
 335 129 335 129 329.5 137 c 128,-1,22
 324 145 324 145 315 149 c 128,-1,23
 306 153 306 153 295 154.5 c 128,-1,24
 284 156 284 156 274 157 c 0,25,26
 168 165 168 165 115 215 c 128,-1,27
 62 265 62 265 62 341 c 0,28,29
 62 370 62 370 68 386.5 c 128,-1,30
 74 403 74 403 77 411 c 1,31,32
 66 423 66 423 53.5 451.5 c 128,-1,33
 41 480 41 480 41 518 c 0,34,35
 41 557 41 557 57.5 592.5 c 128,-1,36
 74 628 74 628 103 655 c 128,-1,37
 132 682 132 682 171.5 698.5 c 128,-1,38
 211 715 211 715 258 715 c 0,39,40
 304 715 304 715 339.5 701 c 128,-1,41
 375 687 375 687 402.5 666.5 c 128,-1,42
 430 646 430 646 449 622.5 c 128,-1,43
 468 599 468 599 481 581 c 1,44,-1
 359 523 l 1,45,46
 346 545 346 545 323 559 c 128,-1,47
 300 573 300 573 268 573 c 0,48,49
 237 573 237 573 219.5 558.5 c 128,-1,50
 202 544 202 544 202 521 c 0,51,52
 202 506 202 506 207 497 c 128,-1,53
 212 488 212 488 221 483 c 128,-1,54
 230 478 230 478 242 476 c 128,-1,55
 254 474 254 474 267 474 c 0,56,57
 305 473 305 473 344 464 c 128,-1,58
 383 455 383 455 415 435 c 128,-1,59
 447 415 447 415 467.5 382 c 128,-1,60
 488 349 488 349 488 301 c 0,61,62
 488 272 488 272 482 251.5 c 128,-1,63
 476 231 476 231 471 223 c 1,0,1
217 319 m 0,64,65
 217 297 217 297 229 287 c 128,-1,66
 241 277 241 277 257.5 272.5 c 128,-1,67
 274 268 274 268 292.5 267 c 128,-1,68
 311 266 311 266 323 262 c 1,69,70
 330 267 330 267 333.5 277 c 128,-1,71
 337 287 337 287 337 296 c 0,72,73
 337 310 337 310 331 319.5 c 128,-1,74
 325 329 325 329 315.5 335 c 128,-1,75
 306 341 306 341 295 343.5 c 128,-1,76
 284 346 284 346 274 346 c 0,77,78
 260 346 260 346 247 348.5 c 128,-1,79
 234 351 234 351 230 353 c 1,80,81
 217 342 217 342 217 319 c 0,64,65
EndSplineSet
EndChar

StartChar: dieresis
Encoding: 168 168 107
Width: 508
GlyphClass: 2
Flags: W
LayerCount: 2
Fore
SplineSet
83 593 m 1,0,-1
 83 722 l 1,1,-1
 215 722 l 1,2,-1
 215 593 l 1,3,-1
 83 593 l 1,0,-1
293 593 m 1,4,-1
 293 722 l 1,5,-1
 425 722 l 1,6,-1
 425 593 l 1,7,-1
 293 593 l 1,4,-1
EndSplineSet
EndChar

StartChar: copyright
Encoding: 169 169 108
Width: 844
GlyphClass: 2
Flags: W
LayerCount: 2
Fore
SplineSet
418 -7 m 0,0,1
 337 -7 337 -7 267.5 20.5 c 128,-1,2
 198 48 198 48 148 96.5 c 128,-1,3
 98 145 98 145 69.5 211 c 128,-1,4
 41 277 41 277 41 355 c 0,5,6
 41 432 41 432 69.5 498 c 128,-1,7
 98 564 98 564 148 612 c 128,-1,8
 198 660 198 660 267.5 687.5 c 128,-1,9
 337 715 337 715 418 715 c 0,10,11
 501 715 501 715 572 687.5 c 128,-1,12
 643 660 643 660 694.5 612 c 128,-1,13
 746 564 746 564 775 498 c 128,-1,14
 804 432 804 432 804 355 c 0,15,16
 804 277 804 277 775 211 c 128,-1,17
 746 145 746 145 694.5 96.5 c 128,-1,18
 643 48 643 48 572 20.5 c 128,-1,19
 501 -7 501 -7 418 -7 c 0,0,1
418 49 m 256,20,21
 486 49 486 49 545.5 71.5 c 128,-1,22
 605 94 605 94 648.5 134 c 128,-1,23
 692 174 692 174 717 230 c 128,-1,24
 742 286 742 286 742 354 c 0,25,26
 742 418 742 418 717.5 473.5 c 128,-1,27
 693 529 693 529 649.5 570.5 c 128,-1,28
 606 612 606 612 547 635.5 c 128,-1,29
 488 659 488 659 418 659 c 0,30,31
 350 659 350 659 292.5 635.5 c 128,-1,32
 235 612 235 612 192.5 571 c 128,-1,33
 150 530 150 530 126 474.5 c 128,-1,34
 102 419 102 419 102 355 c 256,35,36
 102 291 102 291 126 235 c 128,-1,37
 150 179 150 179 192 138 c 128,-1,38
 234 97 234 97 292 73 c 128,-1,39
 350 49 350 49 418 49 c 256,20,21
428 114 m 0,40,41
 367 114 367 114 318.5 133 c 128,-1,42
 270 152 270 152 236.5 184.5 c 128,-1,43
 203 217 203 217 185 260.5 c 128,-1,44
 167 304 167 304 167 354 c 0,45,46
 167 401 167 401 183.5 444.5 c 128,-1,47
 200 488 200 488 233 521.5 c 128,-1,48
 266 555 266 555 314.5 575 c 128,-1,49
 363 595 363 595 426 595 c 0,50,51
 512 595 512 595 571.5 558 c 128,-1,52
 631 521 631 521 660 460 c 1,53,-1
 504 412 l 1,54,55
 490 438 490 438 469 449 c 128,-1,56
 448 460 448 460 425 460 c 0,57,58
 383 460 383 460 357 430 c 128,-1,59
 331 400 331 400 331 354 c 0,60,61
 331 329 331 329 339 309.5 c 128,-1,62
 347 290 347 290 360.5 276.5 c 128,-1,63
 374 263 374 263 391 256 c 128,-1,64
 408 249 408 249 426 249 c 0,65,66
 451 249 451 249 472 261.5 c 128,-1,67
 493 274 493 274 506 297 c 1,68,-1
 661 250 l 1,69,70
 648 222 648 222 626.5 197 c 128,-1,71
 605 172 605 172 575.5 153.5 c 128,-1,72
 546 135 546 135 509 124.5 c 128,-1,73
 472 114 472 114 428 114 c 0,40,41
EndSplineSet
EndChar

StartChar: ordfeminine
Encoding: 170 170 109
Width: 447
GlyphClass: 2
Flags: W
LayerCount: 2
Fore
SplineSet
158 336 m 0,0,1
 132 336 132 336 110 345 c 128,-1,2
 88 354 88 354 71.5 369.5 c 128,-1,3
 55 385 55 385 46 406 c 128,-1,4
 37 427 37 427 37 452 c 0,5,6
 37 479 37 479 48 501.5 c 128,-1,7
 59 524 59 524 79 540 c 128,-1,8
 99 556 99 556 126.5 565 c 128,-1,9
 154 574 154 574 187 574 c 0,10,11
 233 574 233 574 263 559 c 1,12,-1
 263 574 l 2,13,14
 263 636 263 636 196 636 c 0,15,16
 167 636 167 636 141.5 626 c 128,-1,17
 116 616 116 616 87 596 c 1,18,-1
 53 667 l 1,19,20
 122 714 122 714 207 714 c 0,21,22
 288 714 288 714 331.5 675 c 128,-1,23
 375 636 375 636 375 561 c 2,24,-1
 375 472 l 2,25,26
 375 441 375 441 403 440 c 1,27,-1
 403 343 l 1,28,29
 373 337 373 337 351 337 c 0,30,31
 292 337 292 337 283 385 c 2,32,-1
 281 401 l 1,33,34
 257 369 257 369 225.5 352.5 c 128,-1,35
 194 336 194 336 158 336 c 0,0,1
191 419 m 0,36,37
 207 419 207 419 222.5 425 c 128,-1,38
 238 431 238 431 248 440 c 0,39,40
 263 452 263 452 263 466 c 2,41,-1
 263 499 l 1,42,43
 250 505 250 505 235 508 c 128,-1,44
 220 511 220 511 206 511 c 0,45,46
 178 511 178 511 160.5 497.5 c 128,-1,47
 143 484 143 484 143 462 c 0,48,49
 143 444 143 444 157 431.5 c 128,-1,50
 171 419 171 419 191 419 c 0,36,37
EndSplineSet
EndChar

StartChar: guillemotleft
Encoding: 171 171 110
Width: 679
GlyphClass: 2
Flags: W
LayerCount: 2
Fore
SplineSet
33 293 m 1,0,-1
 303 486 l 1,1,-1
 303 357 l 1,2,-1
 159 259 l 1,3,-1
 303 168 l 1,4,-1
 303 39 l 1,5,-1
 33 217 l 1,6,-1
 33 293 l 1,0,-1
352 293 m 1,7,-1
 622 486 l 1,8,-1
 622 357 l 1,9,-1
 478 259 l 1,10,-1
 622 168 l 1,11,-1
 622 39 l 1,12,-1
 352 217 l 1,13,-1
 352 293 l 1,7,-1
EndSplineSet
EndChar

StartChar: logicalnot
Encoding: 172 172 111
Width: 623
GlyphClass: 2
Flags: W
LayerCount: 2
Fore
SplineSet
561 415 m 1,0,-1
 561 98 l 1,1,-1
 426 98 l 1,2,-1
 426 271 l 1,3,-1
 54 271 l 1,4,-1
 54 415 l 1,5,-1
 561 415 l 1,0,-1
EndSplineSet
EndChar

StartChar: uni00AD
Encoding: 173 173 112
Width: 615
GlyphClass: 2
Flags: W
LayerCount: 2
Fore
SplineSet
54 203 m 1,0,-1
 54 347 l 1,1,-1
 561 347 l 1,2,-1
 561 203 l 1,3,-1
 54 203 l 1,0,-1
EndSplineSet
EndChar

StartChar: registered
Encoding: 174 174 113
Width: 844
GlyphClass: 2
Flags: W
LayerCount: 2
Fore
SplineSet
420 -7 m 0,0,1
 337 -7 337 -7 267.5 20.5 c 128,-1,2
 198 48 198 48 148 96.5 c 128,-1,3
 98 145 98 145 69.5 211 c 128,-1,4
 41 277 41 277 41 355 c 0,5,6
 41 432 41 432 69.5 498 c 128,-1,7
 98 564 98 564 148 612 c 128,-1,8
 198 660 198 660 267.5 687.5 c 128,-1,9
 337 715 337 715 420 715 c 0,10,11
 502 715 502 715 572.5 687.5 c 128,-1,12
 643 660 643 660 694.5 612 c 128,-1,13
 746 564 746 564 775 498 c 128,-1,14
 804 432 804 432 804 355 c 0,15,16
 804 277 804 277 775 211 c 128,-1,17
 746 145 746 145 694.5 96.5 c 128,-1,18
 643 48 643 48 572.5 20.5 c 128,-1,19
 502 -7 502 -7 420 -7 c 0,0,1
421 48 m 0,20,21
 488 48 488 48 546 71 c 128,-1,22
 604 94 604 94 647 134.5 c 128,-1,23
 690 175 690 175 714.5 231 c 128,-1,24
 739 287 739 287 739 353 c 0,25,26
 739 417 739 417 715 473 c 128,-1,27
 691 529 691 529 648.5 570 c 128,-1,28
 606 611 606 611 548 635 c 128,-1,29
 490 659 490 659 421 659 c 256,30,31
 352 659 352 659 294 635 c 128,-1,32
 236 611 236 611 194 570 c 128,-1,33
 152 529 152 529 128.5 473.5 c 128,-1,34
 105 418 105 418 105 354 c 256,35,36
 105 290 105 290 128.5 234.5 c 128,-1,37
 152 179 152 179 194 137.5 c 128,-1,38
 236 96 236 96 294 72 c 128,-1,39
 352 48 352 48 421 48 c 0,20,21
254 574 m 1,40,-1
 451 574 l 2,41,42
 482 574 482 574 508.5 561 c 128,-1,43
 535 548 535 548 554 527 c 128,-1,44
 573 506 573 506 583.5 479.5 c 128,-1,45
 594 453 594 453 594 426 c 0,46,47
 594 387 594 387 574 352.5 c 128,-1,48
 554 318 554 318 522 301 c 1,49,-1
 621 140 l 1,50,-1
 496 140 l 1,51,-1
 409 280 l 1,52,-1
 367 280 l 1,53,-1
 367 140 l 1,54,-1
 254 140 l 1,55,-1
 254 574 l 1,40,-1
440 376 m 2,56,57
 459 376 459 376 471 388 c 128,-1,58
 483 400 483 400 483 426 c 0,59,60
 483 454 483 454 469 465 c 128,-1,61
 455 476 455 476 438 476 c 2,62,-1
 367 476 l 1,63,-1
 367 376 l 1,64,-1
 440 376 l 2,56,57
EndSplineSet
EndChar

StartChar: macron
Encoding: 175 175 114
Width: 428
GlyphClass: 2
Flags: W
LayerCount: 2
Fore
SplineSet
62 621 m 1,0,-1
 62 718 l 1,1,-1
 366 718 l 1,2,-1
 366 621 l 1,3,-1
 62 621 l 1,0,-1
EndSplineSet
EndChar

StartChar: degree
Encoding: 176 176 115
Width: 292
GlyphClass: 2
Flags: W
LayerCount: 2
Fore
SplineSet
36 618 m 0,0,1
 36 663 36 663 67 693.5 c 128,-1,2
 98 724 98 724 146 724 c 256,3,4
 194 724 194 724 225 693.5 c 128,-1,5
 256 663 256 663 256 618 c 0,6,7
 256 566 256 566 225 535 c 128,-1,8
 194 504 194 504 146 504 c 256,9,10
 98 504 98 504 67 535.5 c 128,-1,11
 36 567 36 567 36 618 c 0,0,1
121 638 m 0,12,13
 111 628 111 628 111 614 c 0,14,15
 111 598 111 598 121 590 c 0,16,17
 130 579 130 579 146 579 c 256,18,19
 162 579 162 579 170 590 c 0,20,21
 175 594 175 594 177.5 601 c 128,-1,22
 180 608 180 608 180 614 c 0,23,24
 180 629 180 629 170 638 c 0,25,26
 166 643 166 643 159.5 645.5 c 128,-1,27
 153 648 153 648 146 648 c 0,28,29
 130 648 130 648 121 638 c 0,12,13
EndSplineSet
EndChar

StartChar: plusminus
Encoding: 177 177 116
Width: 476
GlyphClass: 2
Flags: W
LayerCount: 2
Fore
SplineSet
54 16 m 1,0,-1
 54 143 l 1,1,-1
 420 143 l 1,2,-1
 420 16 l 1,3,-1
 54 16 l 1,0,-1
421 445 m 1,4,-1
 421 318 l 1,5,-1
 310 318 l 1,6,-1
 310 197 l 1,7,-1
 166 197 l 1,8,-1
 166 318 l 1,9,-1
 55 318 l 1,10,-1
 55 445 l 1,11,-1
 166 445 l 1,12,-1
 166 566 l 1,13,-1
 310 566 l 1,14,-1
 310 445 l 1,15,-1
 421 445 l 1,4,-1
EndSplineSet
EndChar

StartChar: twosuperior
Encoding: 178 178 117
Width: 428
GlyphClass: 2
Flags: W
LayerCount: 2
Fore
SplineSet
28 383 m 1,0,1
 28 425 28 425 34.5 456 c 128,-1,2
 41 487 41 487 56 511 c 128,-1,3
 71 535 71 535 96.5 553 c 128,-1,4
 122 571 122 571 160 587 c 0,5,6
 184 597 184 597 207.5 606 c 128,-1,7
 231 615 231 615 249.5 625.5 c 128,-1,8
 268 636 268 636 279.5 649.5 c 128,-1,9
 291 663 291 663 291 681 c 0,10,11
 291 705 291 705 270 716 c 128,-1,12
 249 727 249 727 211 727 c 0,13,14
 169 727 169 727 138.5 712.5 c 128,-1,15
 108 698 108 698 90 681 c 1,16,-1
 31 749 l 1,17,18
 49 773 49 773 99.5 795.5 c 128,-1,19
 150 818 150 818 225 818 c 0,20,21
 309 818 309 818 352.5 782 c 128,-1,22
 396 746 396 746 396 680 c 0,23,24
 396 647 396 647 383 623 c 128,-1,25
 370 599 370 599 351 583 c 128,-1,26
 332 567 332 567 309.5 557.5 c 128,-1,27
 287 548 287 548 268 542 c 0,28,29
 182 517 182 517 182 474 c 1,30,-1
 382 474 l 1,31,-1
 382 383 l 1,32,-1
 28 383 l 1,0,1
EndSplineSet
EndChar

StartChar: threesuperior
Encoding: 179 179 118
Width: 414
GlyphClass: 2
Flags: W
LayerCount: 2
Fore
SplineSet
193 376 m 0,0,1
 130 376 130 376 86.5 395 c 128,-1,2
 43 414 43 414 26 452 c 1,3,-1
 75 522 l 1,4,5
 80 515 80 515 89.5 506 c 128,-1,6
 99 497 99 497 113 489 c 128,-1,7
 127 481 127 481 146.5 475.5 c 128,-1,8
 166 470 166 470 191 470 c 0,9,10
 230 470 230 470 259 480.5 c 128,-1,11
 288 491 288 491 288 514 c 0,12,13
 288 540 288 540 248.5 551.5 c 128,-1,14
 209 563 209 563 139 563 c 2,15,-1
 115 563 l 1,16,-1
 115 648 l 1,17,-1
 139 648 l 2,18,19
 198 648 198 648 235.5 658.5 c 128,-1,20
 273 669 273 669 273 695 c 0,21,22
 273 705 273 705 265.5 712 c 128,-1,23
 258 719 258 719 246.5 723.5 c 128,-1,24
 235 728 235 728 221.5 730 c 128,-1,25
 208 732 208 732 196 732 c 0,26,27
 157 732 157 732 131 719 c 128,-1,28
 105 706 105 706 85 685 c 1,29,-1
 25 760 l 1,30,31
 37 774 37 774 55.5 785 c 128,-1,32
 74 796 74 796 96.5 803.5 c 128,-1,33
 119 811 119 811 144.5 814.5 c 128,-1,34
 170 818 170 818 195 818 c 0,35,36
 233 818 233 818 265.5 809 c 128,-1,37
 298 800 298 800 321.5 784 c 128,-1,38
 345 768 345 768 358.5 746.5 c 128,-1,39
 372 725 372 725 372 700 c 0,40,41
 372 665 372 665 346.5 642 c 128,-1,42
 321 619 321 619 276 611 c 1,43,44
 326 604 326 604 354 573 c 128,-1,45
 382 542 382 542 382 500 c 0,46,47
 382 467 382 467 366 443.5 c 128,-1,48
 350 420 350 420 323.5 405 c 128,-1,49
 297 390 297 390 263 383 c 128,-1,50
 229 376 229 376 193 376 c 0,0,1
EndSplineSet
EndChar

StartChar: acute
Encoding: 180 180 119
Width: 269
GlyphClass: 2
Flags: W
LayerCount: 2
Fore
SplineSet
148 572 m 1,0,-1
 46 600 l 1,1,-1
 98 730 l 1,2,-1
 243 730 l 1,3,-1
 148 572 l 1,0,-1
EndSplineSet
EndChar

StartChar: mu
Encoding: 181 181 120
Width: 684
GlyphClass: 2
Flags: W
LayerCount: 2
Fore
SplineSet
76 525 m 1,0,-1
 236 525 l 1,1,-1
 236 224 l 2,2,3
 236 176 236 176 255 150.5 c 128,-1,4
 274 125 274 125 313 125 c 0,5,6
 341 125 341 125 371.5 142 c 128,-1,7
 402 159 402 159 425 201 c 1,8,-1
 425 525 l 1,9,-1
 585 525 l 1,10,-1
 585 180 l 2,11,12
 585 156 585 156 593.5 146.5 c 128,-1,13
 602 137 602 137 625 135 c 1,14,-1
 625 0 l 1,15,16
 601 -5 601 -5 582.5 -6.5 c 128,-1,17
 564 -8 564 -8 550 -8 c 0,18,19
 508 -8 508 -8 482.5 10.5 c 128,-1,20
 457 29 457 29 452 61 c 2,21,-1
 449 91 l 1,22,23
 443 76 443 76 428 58.5 c 128,-1,24
 413 41 413 41 393.5 26 c 128,-1,25
 374 11 374 11 350.5 0.5 c 128,-1,26
 327 -10 327 -10 303 -10 c 0,27,28
 285 -10 285 -10 271.5 -4.5 c 128,-1,29
 258 1 258 1 248 8.5 c 128,-1,30
 238 16 238 16 232.5 24.5 c 128,-1,31
 227 33 227 33 226 38 c 2,32,-1
 236 -213 l 1,33,-1
 76 -213 l 1,34,-1
 76 525 l 1,0,-1
EndSplineSet
EndChar

StartChar: paragraph
Encoding: 182 182 121
Width: 679
GlyphClass: 2
Flags: W
LayerCount: 2
Fore
SplineSet
34 451 m 0,0,1
 34 575 34 575 108 642.5 c 128,-1,2
 182 710 182 710 316 710 c 2,3,-1
 633 710 l 1,4,-1
 633 591 l 1,5,-1
 563 591 l 1,6,-1
 563 -80 l 1,7,-1
 427 -80 l 1,8,-1
 427 199 l 1,9,-1
 386 199 l 1,10,-1
 386 -80 l 1,11,-1
 250 -80 l 1,12,-1
 250 199 l 1,13,14
 202 199 202 199 162 217 c 128,-1,15
 122 235 122 235 93.5 268 c 128,-1,16
 65 301 65 301 49.5 347.5 c 128,-1,17
 34 394 34 394 34 451 c 0,0,1
167 455 m 0,18,19
 167 395 167 395 191 358.5 c 128,-1,20
 215 322 215 322 250 317 c 1,21,-1
 250 591 l 1,22,23
 212 588 212 588 189.5 550.5 c 128,-1,24
 167 513 167 513 167 455 c 0,18,19
427 591 m 1,25,-1
 386 591 l 1,26,-1
 386 317 l 1,27,-1
 427 317 l 1,28,-1
 427 591 l 1,25,-1
EndSplineSet
EndChar

StartChar: periodcentered
Encoding: 183 183 122
Width: 239
GlyphClass: 2
Flags: W
LayerCount: 2
Fore
SplineSet
54 240 m 1,0,-1
 54 406 l 1,1,-1
 185 406 l 1,2,-1
 185 240 l 1,3,-1
 54 240 l 1,0,-1
EndSplineSet
EndChar

StartChar: cedilla
Encoding: 184 184 123
Width: 343
GlyphClass: 2
Flags: W
LayerCount: 2
Fore
SplineSet
51 -127 m 1,0,1
 62 -134 62 -134 88 -140.5 c 128,-1,2
 114 -147 114 -147 141 -147 c 0,3,4
 165 -147 165 -147 181 -140 c 128,-1,5
 197 -133 197 -133 197 -115 c 0,6,7
 197 -98 197 -98 182 -90.5 c 128,-1,8
 167 -83 167 -83 143 -83 c 0,9,10
 122 -83 122 -83 98.5 -87 c 128,-1,11
 75 -91 75 -91 64 -94 c 1,12,-1
 126 32 l 1,13,-1
 186 14 l 1,14,-1
 150 -38 l 1,15,16
 163 -35 163 -35 180 -35 c 0,17,18
 216 -35 216 -35 243 -52.5 c 128,-1,19
 270 -70 270 -70 270 -109 c 0,20,21
 270 -149 270 -149 236 -176.5 c 128,-1,22
 202 -204 202 -204 130 -204 c 0,23,24
 95 -204 95 -204 68 -197.5 c 128,-1,25
 41 -191 41 -191 21 -183 c 1,26,-1
 51 -127 l 1,0,1
EndSplineSet
EndChar

StartChar: onesuperior
Encoding: 185 185 124
Width: 309
GlyphClass: 2
Flags: W
LayerCount: 2
Fore
SplineSet
288 476 m 1,0,-1
 288 384 l 1,1,-1
 48 384 l 1,2,-1
 48 476 l 1,3,-1
 125 476 l 1,4,-1
 125 719 l 1,5,6
 120 712 120 712 109 703 c 128,-1,7
 98 694 98 694 84.5 686 c 128,-1,8
 71 678 71 678 57 672.5 c 128,-1,9
 43 667 43 667 31 667 c 1,10,-1
 31 760 l 1,11,12
 46 760 46 760 62.5 769 c 128,-1,13
 79 778 79 778 93 788.5 c 128,-1,14
 107 799 107 799 116 808 c 128,-1,15
 125 817 125 817 125 818 c 2,16,-1
 219 818 l 1,17,-1
 219 476 l 1,18,-1
 288 476 l 1,0,-1
EndSplineSet
EndChar

StartChar: ordmasculine
Encoding: 186 186 125
Width: 441
GlyphClass: 2
Flags: W
LayerCount: 2
Fore
SplineSet
220 336 m 0,0,1
 175 336 175 336 140 351.5 c 128,-1,2
 105 367 105 367 81 393 c 128,-1,3
 57 419 57 419 44.5 453 c 128,-1,4
 32 487 32 487 32 525 c 256,5,6
 32 563 32 563 44.5 597 c 128,-1,7
 57 631 57 631 81 657 c 128,-1,8
 105 683 105 683 140 698.5 c 128,-1,9
 175 714 175 714 220 714 c 256,10,11
 265 714 265 714 300.5 698.5 c 128,-1,12
 336 683 336 683 360 657 c 128,-1,13
 384 631 384 631 396.5 597 c 128,-1,14
 409 563 409 563 409 525 c 256,15,16
 409 487 409 487 396.5 453 c 128,-1,17
 384 419 384 419 360 393 c 128,-1,18
 336 367 336 367 301 351.5 c 128,-1,19
 266 336 266 336 220 336 c 0,0,1
147 525 m 256,20,21
 147 483 147 483 168 458 c 128,-1,22
 189 433 189 433 220 433 c 0,23,24
 252 433 252 433 273 458 c 128,-1,25
 294 483 294 483 294 525 c 256,26,27
 294 567 294 567 273 592 c 128,-1,28
 252 617 252 617 220 617 c 0,29,30
 189 617 189 617 168 592 c 128,-1,31
 147 567 147 567 147 525 c 256,20,21
EndSplineSet
EndChar

StartChar: guillemotright
Encoding: 187 187 126
Width: 679
GlyphClass: 2
Flags: W
LayerCount: 2
Fore
SplineSet
646 217 m 1,0,-1
 376 39 l 1,1,-1
 376 168 l 1,2,-1
 520 259 l 1,3,-1
 376 357 l 1,4,-1
 376 486 l 1,5,-1
 646 293 l 1,6,-1
 646 217 l 1,0,-1
327 217 m 1,7,-1
 57 39 l 1,8,-1
 57 168 l 1,9,-1
 201 259 l 1,10,-1
 57 357 l 1,11,-1
 57 486 l 1,12,-1
 327 293 l 1,13,-1
 327 217 l 1,7,-1
EndSplineSet
EndChar

StartChar: onequarter
Encoding: 188 188 127
Width: 972
GlyphClass: 2
Flags: W
LayerCount: 2
Fore
SplineSet
783 1 m 1,0,-1
 783 89 l 1,1,-1
 565 89 l 1,2,-1
 565 180 l 1,3,-1
 812 431 l 1,4,-1
 876 431 l 1,5,-1
 876 180 l 1,6,-1
 938 180 l 1,7,-1
 938 89 l 1,8,-1
 876 89 l 1,9,-1
 876 1 l 1,10,-1
 783 1 l 1,0,-1
653 180 m 1,11,-1
 787 180 l 1,12,-1
 787 318 l 1,13,-1
 653 180 l 1,11,-1
194 56 m 1,14,-1
 476 380 l 1,15,-1
 732 719 l 1,16,-1
 804 655 l 1,17,-1
 531 339 l 1,18,-1
 265 -9 l 1,19,-1
 194 56 l 1,14,-1
298 389 m 1,20,-1
 298 297 l 1,21,-1
 58 297 l 1,22,-1
 58 389 l 1,23,-1
 135 389 l 1,24,-1
 135 632 l 1,25,26
 130 625 130 625 119 616 c 128,-1,27
 108 607 108 607 94.5 599 c 128,-1,28
 81 591 81 591 67 585.5 c 128,-1,29
 53 580 53 580 41 580 c 1,30,-1
 41 673 l 1,31,32
 56 673 56 673 72.5 682 c 128,-1,33
 89 691 89 691 103 701.5 c 128,-1,34
 117 712 117 712 126 721 c 128,-1,35
 135 730 135 730 135 731 c 2,36,-1
 229 731 l 1,37,-1
 229 389 l 1,38,-1
 298 389 l 1,20,-1
EndSplineSet
EndChar

StartChar: onehalf
Encoding: 189 189 128
Width: 992
GlyphClass: 2
Flags: W
LayerCount: 2
Fore
SplineSet
588 0 m 1,0,1
 588 42 588 42 594.5 73 c 128,-1,2
 601 104 601 104 616 127.5 c 128,-1,3
 631 151 631 151 656 169.5 c 128,-1,4
 681 188 681 188 719 204 c 0,5,6
 743 214 743 214 766 223 c 128,-1,7
 789 232 789 232 807 242.5 c 128,-1,8
 825 253 825 253 836.5 266 c 128,-1,9
 848 279 848 279 848 297 c 0,10,11
 848 322 848 322 827 333 c 128,-1,12
 806 344 806 344 769 344 c 0,13,14
 727 344 727 344 697 329 c 128,-1,15
 667 314 667 314 649 297 c 1,16,-1
 591 366 l 1,17,18
 609 390 609 390 659 412.5 c 128,-1,19
 709 435 709 435 784 435 c 0,20,21
 865 435 865 435 908.5 399 c 128,-1,22
 952 363 952 363 952 296 c 0,23,24
 952 263 952 263 939.5 239.5 c 128,-1,25
 927 216 927 216 908 200 c 128,-1,26
 889 184 889 184 866.5 174.5 c 128,-1,27
 844 165 844 165 825 159 c 0,28,29
 740 134 740 134 740 91 c 1,30,-1
 953 91 l 1,31,-1
 953 0 l 1,32,-1
 588 0 l 1,0,1
153 56 m 1,33,-1
 435 380 l 1,34,-1
 691 719 l 1,35,-1
 763 655 l 1,36,-1
 490 339 l 1,37,-1
 224 -9 l 1,38,-1
 153 56 l 1,33,-1
296 389 m 1,39,-1
 296 297 l 1,40,-1
 56 297 l 1,41,-1
 56 389 l 1,42,-1
 133 389 l 1,43,-1
 133 632 l 1,44,45
 128 625 128 625 117 616 c 128,-1,46
 106 607 106 607 92.5 599 c 128,-1,47
 79 591 79 591 65 585.5 c 128,-1,48
 51 580 51 580 39 580 c 1,49,-1
 39 673 l 1,50,51
 54 673 54 673 70.5 682 c 128,-1,52
 87 691 87 691 101 701.5 c 128,-1,53
 115 712 115 712 124 721 c 128,-1,54
 133 730 133 730 133 731 c 2,55,-1
 227 731 l 1,56,-1
 227 389 l 1,57,-1
 296 389 l 1,39,-1
EndSplineSet
EndChar

StartChar: threequarters
Encoding: 190 190 129
Width: 980
GlyphClass: 2
Flags: W
LayerCount: 2
Fore
SplineSet
205 289 m 0,0,1
 142 289 142 289 98.5 308 c 128,-1,2
 55 327 55 327 38 365 c 1,3,-1
 87 435 l 1,4,5
 102 416 102 416 130 399.5 c 128,-1,6
 158 383 158 383 203 383 c 0,7,8
 242 383 242 383 271 393.5 c 128,-1,9
 300 404 300 404 300 427 c 0,10,11
 300 453 300 453 260.5 464.5 c 128,-1,12
 221 476 221 476 151 476 c 2,13,-1
 127 476 l 1,14,-1
 127 561 l 1,15,-1
 151 561 l 2,16,17
 210 561 210 561 247.5 571.5 c 128,-1,18
 285 582 285 582 285 608 c 0,19,20
 285 618 285 618 277.5 625 c 128,-1,21
 270 632 270 632 258.5 636.5 c 128,-1,22
 247 641 247 641 233.5 643 c 128,-1,23
 220 645 220 645 208 645 c 0,24,25
 169 645 169 645 143 632 c 128,-1,26
 117 619 117 619 97 598 c 1,27,-1
 37 673 l 1,28,29
 49 687 49 687 67.5 698 c 128,-1,30
 86 709 86 709 108.5 716.5 c 128,-1,31
 131 724 131 724 156.5 727.5 c 128,-1,32
 182 731 182 731 207 731 c 0,33,34
 245 731 245 731 277.5 722 c 128,-1,35
 310 713 310 713 333.5 697 c 128,-1,36
 357 681 357 681 370.5 659.5 c 128,-1,37
 384 638 384 638 384 613 c 0,38,39
 384 578 384 578 358.5 555 c 128,-1,40
 333 532 333 532 288 524 c 1,41,42
 338 517 338 517 366 486 c 128,-1,43
 394 455 394 455 394 413 c 0,44,45
 394 380 394 380 378 356.5 c 128,-1,46
 362 333 362 333 335.5 318 c 128,-1,47
 309 303 309 303 275 296 c 128,-1,48
 241 289 241 289 205 289 c 0,0,1
790 1 m 1,49,-1
 790 89 l 1,50,-1
 572 89 l 1,51,-1
 572 180 l 1,52,-1
 819 431 l 1,53,-1
 883 431 l 1,54,-1
 883 180 l 1,55,-1
 945 180 l 1,56,-1
 945 89 l 1,57,-1
 883 89 l 1,58,-1
 883 1 l 1,59,-1
 790 1 l 1,49,-1
660 180 m 1,60,-1
 794 180 l 1,61,-1
 794 318 l 1,62,-1
 660 180 l 1,60,-1
224 56 m 1,63,-1
 506 380 l 1,64,-1
 762 719 l 1,65,-1
 834 655 l 1,66,-1
 561 339 l 1,67,-1
 295 -9 l 1,68,-1
 224 56 l 1,63,-1
EndSplineSet
EndChar

StartChar: questiondown
Encoding: 191 191 130
Width: 483
GlyphClass: 2
Flags: W
LayerCount: 2
Fore
SplineSet
377 261 m 1,0,1
 377 238 377 238 374 217 c 128,-1,2
 371 196 371 196 362.5 176.5 c 128,-1,3
 354 157 354 157 338 140 c 128,-1,4
 322 123 322 123 296 109 c 0,5,6
 283 101 283 101 261.5 90 c 128,-1,7
 240 79 240 79 219.5 64 c 128,-1,8
 199 49 199 49 184 29.5 c 128,-1,9
 169 10 169 10 169 -14 c 0,10,11
 169 -47 169 -47 193 -65.5 c 128,-1,12
 217 -84 217 -84 248 -84 c 0,13,14
 268 -84 268 -84 283.5 -76.5 c 128,-1,15
 299 -69 299 -69 311.5 -58.5 c 128,-1,16
 324 -48 324 -48 333 -35.5 c 128,-1,17
 342 -23 342 -23 349 -12 c 1,18,-1
 452 -84 l 1,19,20
 426 -145 426 -145 369.5 -179 c 128,-1,21
 313 -213 313 -213 242 -213 c 0,22,23
 204 -213 204 -213 166 -202 c 128,-1,24
 128 -191 128 -191 98 -167 c 128,-1,25
 68 -143 68 -143 49 -105 c 128,-1,26
 30 -67 30 -67 30 -13 c 0,27,28
 30 44 30 44 53.5 82.5 c 128,-1,29
 77 121 77 121 123 150 c 0,30,31
 144 163 144 163 165.5 174.5 c 128,-1,32
 187 186 187 186 205 198 c 128,-1,33
 223 210 223 210 234 225 c 128,-1,34
 245 240 245 240 245 261 c 1,35,-1
 377 261 l 1,0,1
374 506 m 1,36,-1
 374 356 l 1,37,-1
 243 356 l 1,38,-1
 243 506 l 1,39,-1
 374 506 l 1,36,-1
EndSplineSet
EndChar

StartChar: Agrave
Encoding: 192 192 131
Width: 670
GlyphClass: 2
Flags: W
LayerCount: 2
Fore
SplineSet
261 710 m 1,0,-1
 409 710 l 1,1,-1
 668 0 l 1,2,-1
 500 0 l 1,3,-1
 445 159 l 1,4,-1
 224 159 l 1,5,-1
 170 0 l 1,6,-1
 2 0 l 1,7,-1
 261 710 l 1,0,-1
418 272 m 1,8,-1
 335 523 l 1,9,-1
 250 272 l 1,10,-1
 418 272 l 1,8,-1
194 916 m 1,11,-1
 339 916 l 1,12,-1
 391 786 l 1,13,-1
 290 758 l 1,14,-1
 194 916 l 1,11,-1
EndSplineSet
EndChar

StartChar: Aacute
Encoding: 193 193 132
Width: 670
GlyphClass: 2
Flags: W
LayerCount: 2
Fore
SplineSet
261 710 m 1,0,-1
 409 710 l 1,1,-1
 668 0 l 1,2,-1
 500 0 l 1,3,-1
 445 159 l 1,4,-1
 224 159 l 1,5,-1
 170 0 l 1,6,-1
 2 0 l 1,7,-1
 261 710 l 1,0,-1
418 272 m 1,8,-1
 335 523 l 1,9,-1
 250 272 l 1,10,-1
 418 272 l 1,8,-1
381 757 m 1,11,-1
 279 785 l 1,12,-1
 331 915 l 1,13,-1
 476 915 l 1,14,-1
 381 757 l 1,11,-1
EndSplineSet
EndChar

StartChar: Acircumflex
Encoding: 194 194 133
Width: 670
GlyphClass: 2
Flags: W
LayerCount: 2
Fore
SplineSet
261 710 m 1,0,-1
 409 710 l 1,1,-1
 668 0 l 1,2,-1
 500 0 l 1,3,-1
 445 159 l 1,4,-1
 224 159 l 1,5,-1
 170 0 l 1,6,-1
 2 0 l 1,7,-1
 261 710 l 1,0,-1
418 272 m 1,8,-1
 335 523 l 1,9,-1
 250 272 l 1,10,-1
 418 272 l 1,8,-1
168 807 m 1,11,-1
 278 915 l 1,12,-1
 393 915 l 1,13,-1
 502 807 l 1,14,-1
 420 771 l 1,15,-1
 335 834 l 1,16,-1
 250 771 l 1,17,-1
 168 807 l 1,11,-1
EndSplineSet
EndChar

StartChar: Atilde
Encoding: 195 195 134
Width: 670
GlyphClass: 2
Flags: W
LayerCount: 2
Fore
SplineSet
261 710 m 1,0,-1
 409 710 l 1,1,-1
 668 0 l 1,2,-1
 500 0 l 1,3,-1
 445 159 l 1,4,-1
 224 159 l 1,5,-1
 170 0 l 1,6,-1
 2 0 l 1,7,-1
 261 710 l 1,0,-1
418 272 m 1,8,-1
 335 523 l 1,9,-1
 250 272 l 1,10,-1
 418 272 l 1,8,-1
399 773 m 0,11,12
 376 773 376 773 358.5 780 c 128,-1,13
 341 787 341 787 326 796 c 128,-1,14
 311 805 311 805 297 812 c 128,-1,15
 283 819 283 819 266 819 c 256,16,17
 249 819 249 819 240 812 c 128,-1,18
 231 805 231 805 226 796 c 128,-1,19
 221 787 221 787 220 779.5 c 128,-1,20
 219 772 219 772 219 771 c 2,21,-1
 133 771 l 1,22,23
 133 782 133 782 139.5 805.5 c 128,-1,24
 146 829 146 829 161 853 c 128,-1,25
 176 877 176 877 200.5 895 c 128,-1,26
 225 913 225 913 260 913 c 0,27,28
 284 913 284 913 301 905.5 c 128,-1,29
 318 898 318 898 332.5 889 c 128,-1,30
 347 880 347 880 361 872.5 c 128,-1,31
 375 865 375 865 393 865 c 0,32,33
 410 865 410 865 420.5 872.5 c 128,-1,34
 431 880 431 880 436.5 889 c 128,-1,35
 442 898 442 898 443.5 906 c 128,-1,36
 445 914 445 914 445 915 c 2,37,-1
 531 915 l 1,38,39
 531 907 531 907 524 884 c 128,-1,40
 517 861 517 861 501.5 836 c 128,-1,41
 486 811 486 811 461 792 c 128,-1,42
 436 773 436 773 399 773 c 0,11,12
EndSplineSet
EndChar

StartChar: Adieresis
Encoding: 196 196 135
Width: 670
GlyphClass: 2
Flags: W
LayerCount: 2
Fore
SplineSet
261 710 m 1,0,-1
 409 710 l 1,1,-1
 668 0 l 1,2,-1
 500 0 l 1,3,-1
 445 159 l 1,4,-1
 224 159 l 1,5,-1
 170 0 l 1,6,-1
 2 0 l 1,7,-1
 261 710 l 1,0,-1
418 272 m 1,8,-1
 335 523 l 1,9,-1
 250 272 l 1,10,-1
 418 272 l 1,8,-1
165 779 m 1,11,-1
 165 908 l 1,12,-1
 297 908 l 1,13,-1
 297 779 l 1,14,-1
 165 779 l 1,11,-1
375 779 m 1,15,-1
 375 908 l 1,16,-1
 507 908 l 1,17,-1
 507 779 l 1,18,-1
 375 779 l 1,15,-1
EndSplineSet
EndChar

StartChar: Aring
Encoding: 197 197 136
Width: 670
GlyphClass: 2
Flags: W
LayerCount: 2
Fore
SplineSet
261 710 m 1,0,-1
 409 710 l 1,1,-1
 668 0 l 1,2,-1
 500 0 l 1,3,-1
 445 159 l 1,4,-1
 224 159 l 1,5,-1
 170 0 l 1,6,-1
 2 0 l 1,7,-1
 261 710 l 1,0,-1
418 272 m 1,8,-1
 335 523 l 1,9,-1
 250 272 l 1,10,-1
 418 272 l 1,8,-1
228 833 m 0,11,12
 228 874 228 874 257.5 894.5 c 128,-1,13
 287 915 287 915 335 915 c 256,14,15
 383 915 383 915 412 894.5 c 128,-1,16
 441 874 441 874 441 833 c 0,17,18
 441 793 441 793 412 772.5 c 128,-1,19
 383 752 383 752 335 752 c 256,20,21
 287 752 287 752 257.5 772.5 c 128,-1,22
 228 793 228 793 228 833 c 0,11,12
335 868 m 256,23,24
 318 868 318 868 306.5 858.5 c 128,-1,25
 295 849 295 849 295 834 c 256,26,27
 295 819 295 819 306.5 809 c 128,-1,28
 318 799 318 799 335 799 c 0,29,30
 351 799 351 799 363 808.5 c 128,-1,31
 375 818 375 818 375 834 c 0,32,33
 375 849 375 849 363.5 858.5 c 128,-1,34
 352 868 352 868 335 868 c 256,23,24
EndSplineSet
EndChar

StartChar: AE
Encoding: 198 198 137
Width: 968
GlyphClass: 2
Flags: W
LayerCount: 2
Fore
SplineSet
412 710 m 1,0,-1
 927 710 l 1,1,-1
 927 566 l 1,2,-1
 618 566 l 1,3,-1
 618 433 l 1,4,-1
 873 433 l 1,5,-1
 873 290 l 1,6,-1
 618 290 l 1,7,-1
 618 144 l 1,8,-1
 936 144 l 1,9,-1
 936 0 l 1,10,-1
 455 0 l 1,11,-1
 455 159 l 1,12,-1
 240 159 l 1,13,-1
 149 0 l 1,14,-1
 -26 0 l 1,15,-1
 412 710 l 1,0,-1
442 303 m 1,16,-1
 442 527 l 1,17,-1
 309 303 l 1,18,-1
 442 303 l 1,16,-1
EndSplineSet
EndChar

StartChar: Ccedilla
Encoding: 199 199 138
Width: 687
GlyphClass: 2
Flags: W
LayerCount: 2
Fore
SplineSet
281 -127 m 1,0,1
 292 -134 292 -134 318 -140.5 c 128,-1,2
 344 -147 344 -147 371 -147 c 0,3,4
 395 -147 395 -147 411 -140 c 128,-1,5
 427 -133 427 -133 427 -115 c 0,6,7
 427 -98 427 -98 412 -90.5 c 128,-1,8
 397 -83 397 -83 373 -83 c 0,9,10
 352 -83 352 -83 328.5 -87 c 128,-1,11
 305 -91 305 -91 294 -94 c 1,12,-1
 338 -4 l 1,13,14
 268 3 268 3 210.5 37 c 128,-1,15
 153 71 153 71 112 121.5 c 128,-1,16
 71 172 71 172 48.5 234.5 c 128,-1,17
 26 297 26 297 26 361 c 256,18,19
 26 425 26 425 50 488.5 c 128,-1,20
 74 552 74 552 120 602 c 128,-1,21
 166 652 166 652 232 683 c 128,-1,22
 298 714 298 714 382 714 c 0,23,24
 482 714 482 714 555.5 671 c 128,-1,25
 629 628 629 628 665 559 c 1,26,-1
 539 471 l 1,27,28
 527 499 527 499 508.5 517.5 c 128,-1,29
 490 536 490 536 468 547.5 c 128,-1,30
 446 559 446 559 423 563.5 c 128,-1,31
 400 568 400 568 378 568 c 0,32,33
 331 568 331 568 296 549 c 128,-1,34
 261 530 261 530 238 500 c 128,-1,35
 215 470 215 470 204 432 c 128,-1,36
 193 394 193 394 193 355 c 0,37,38
 193 313 193 313 206 274 c 128,-1,39
 219 235 219 235 243.5 205 c 128,-1,40
 268 175 268 175 302.5 157.5 c 128,-1,41
 337 140 337 140 380 140 c 0,42,43
 402 140 402 140 425.5 145.5 c 128,-1,44
 449 151 449 151 470.5 162.5 c 128,-1,45
 492 174 492 174 510 192.5 c 128,-1,46
 528 211 528 211 539 238 c 1,47,-1
 673 159 l 1,48,49
 658 123 658 123 630 94 c 128,-1,50
 602 65 602 65 565 44 c 128,-1,51
 528 23 528 23 486.5 10.5 c 128,-1,52
 445 -2 445 -2 403 -5 c 1,53,-1
 380 -38 l 1,54,55
 393 -35 393 -35 410 -35 c 0,56,57
 446 -35 446 -35 473 -52.5 c 128,-1,58
 500 -70 500 -70 500 -109 c 0,59,60
 500 -149 500 -149 466 -176.5 c 128,-1,61
 432 -204 432 -204 360 -204 c 0,62,63
 325 -204 325 -204 298 -197.5 c 128,-1,64
 271 -191 271 -191 251 -183 c 1,65,-1
 281 -127 l 1,0,1
EndSplineSet
EndChar

StartChar: Egrave
Encoding: 200 200 139
Width: 599
GlyphClass: 2
Flags: W
LayerCount: 2
Fore
SplineSet
567 144 m 1,0,-1
 567 0 l 1,1,-1
 68 0 l 1,2,-1
 68 710 l 1,3,-1
 558 710 l 1,4,-1
 558 566 l 1,5,-1
 232 566 l 1,6,-1
 232 428 l 1,7,-1
 512 428 l 1,8,-1
 512 295 l 1,9,-1
 232 295 l 1,10,-1
 232 144 l 1,11,-1
 567 144 l 1,0,-1
180 916 m 1,12,-1
 325 916 l 1,13,-1
 377 786 l 1,14,-1
 276 758 l 1,15,-1
 180 916 l 1,12,-1
EndSplineSet
EndChar

StartChar: Eacute
Encoding: 201 201 140
Width: 599
GlyphClass: 2
Flags: W
LayerCount: 2
Fore
SplineSet
367 757 m 1,0,-1
 265 785 l 1,1,-1
 317 915 l 1,2,-1
 462 915 l 1,3,-1
 367 757 l 1,0,-1
567 144 m 1,4,-1
 567 0 l 1,5,-1
 68 0 l 1,6,-1
 68 710 l 1,7,-1
 558 710 l 1,8,-1
 558 566 l 1,9,-1
 232 566 l 1,10,-1
 232 428 l 1,11,-1
 512 428 l 1,12,-1
 512 295 l 1,13,-1
 232 295 l 1,14,-1
 232 144 l 1,15,-1
 567 144 l 1,4,-1
EndSplineSet
EndChar

StartChar: Ecircumflex
Encoding: 202 202 141
Width: 599
GlyphClass: 2
Flags: W
LayerCount: 2
Fore
SplineSet
154 807 m 1,0,-1
 264 915 l 1,1,-1
 379 915 l 1,2,-1
 488 807 l 1,3,-1
 406 771 l 1,4,-1
 321 834 l 1,5,-1
 236 771 l 1,6,-1
 154 807 l 1,0,-1
567 144 m 1,7,-1
 567 0 l 1,8,-1
 68 0 l 1,9,-1
 68 710 l 1,10,-1
 558 710 l 1,11,-1
 558 566 l 1,12,-1
 232 566 l 1,13,-1
 232 428 l 1,14,-1
 512 428 l 1,15,-1
 512 295 l 1,16,-1
 232 295 l 1,17,-1
 232 144 l 1,18,-1
 567 144 l 1,7,-1
EndSplineSet
EndChar

StartChar: Edieresis
Encoding: 203 203 142
Width: 599
GlyphClass: 2
Flags: W
LayerCount: 2
Fore
SplineSet
150 779 m 1,0,-1
 150 908 l 1,1,-1
 282 908 l 1,2,-1
 282 779 l 1,3,-1
 150 779 l 1,0,-1
360 779 m 1,4,-1
 360 908 l 1,5,-1
 492 908 l 1,6,-1
 492 779 l 1,7,-1
 360 779 l 1,4,-1
567 144 m 1,8,-1
 567 0 l 1,9,-1
 68 0 l 1,10,-1
 68 710 l 1,11,-1
 558 710 l 1,12,-1
 558 566 l 1,13,-1
 232 566 l 1,14,-1
 232 428 l 1,15,-1
 512 428 l 1,16,-1
 512 295 l 1,17,-1
 232 295 l 1,18,-1
 232 144 l 1,19,-1
 567 144 l 1,8,-1
EndSplineSet
EndChar

StartChar: Igrave
Encoding: 204 204 143
Width: 300
GlyphClass: 2
Flags: W
LayerCount: 2
Fore
SplineSet
68 0 m 1,0,-1
 68 710 l 1,1,-1
 232 710 l 1,2,-1
 232 0 l 1,3,-1
 68 0 l 1,0,-1
8 916 m 1,4,-1
 153 916 l 1,5,-1
 205 786 l 1,6,-1
 104 758 l 1,7,-1
 8 916 l 1,4,-1
EndSplineSet
EndChar

StartChar: Iacute
Encoding: 205 205 144
Width: 300
GlyphClass: 2
Flags: W
LayerCount: 2
Fore
SplineSet
68 0 m 1,0,-1
 68 710 l 1,1,-1
 232 710 l 1,2,-1
 232 0 l 1,3,-1
 68 0 l 1,0,-1
195 757 m 1,4,-1
 93 785 l 1,5,-1
 145 915 l 1,6,-1
 290 915 l 1,7,-1
 195 757 l 1,4,-1
EndSplineSet
EndChar

StartChar: Icircumflex
Encoding: 206 206 145
Width: 300
GlyphClass: 2
Flags: W
LayerCount: 2
Fore
SplineSet
68 0 m 1,0,-1
 68 710 l 1,1,-1
 232 710 l 1,2,-1
 232 0 l 1,3,-1
 68 0 l 1,0,-1
-17 807 m 1,4,-1
 93 915 l 1,5,-1
 208 915 l 1,6,-1
 317 807 l 1,7,-1
 235 771 l 1,8,-1
 150 834 l 1,9,-1
 65 771 l 1,10,-1
 -17 807 l 1,4,-1
EndSplineSet
EndChar

StartChar: Idieresis
Encoding: 207 207 146
Width: 300
GlyphClass: 2
Flags: W
LayerCount: 2
Fore
SplineSet
68 0 m 1,0,-1
 68 710 l 1,1,-1
 232 710 l 1,2,-1
 232 0 l 1,3,-1
 68 0 l 1,0,-1
-21 779 m 1,4,-1
 -21 908 l 1,5,-1
 111 908 l 1,6,-1
 111 779 l 1,7,-1
 -21 779 l 1,4,-1
189 779 m 1,8,-1
 189 908 l 1,9,-1
 321 908 l 1,10,-1
 321 779 l 1,11,-1
 189 779 l 1,8,-1
EndSplineSet
EndChar

StartChar: Eth
Encoding: 208 208 147
Width: 721
GlyphClass: 2
Flags: W
LayerCount: 2
Fore
SplineSet
73 0 m 1,0,-1
 73 298 l 1,1,-1
 30 298 l 1,2,-1
 30 416 l 1,3,-1
 73 416 l 1,4,-1
 73 710 l 1,5,-1
 338 710 l 2,6,7
 426 710 426 710 492 682 c 128,-1,8
 558 654 558 654 602.5 606 c 128,-1,9
 647 558 647 558 669.5 493.5 c 128,-1,10
 692 429 692 429 692 356 c 0,11,12
 692 275 692 275 667 209.5 c 128,-1,13
 642 144 642 144 595.5 97.5 c 128,-1,14
 549 51 549 51 483.5 25.5 c 128,-1,15
 418 0 418 0 338 0 c 2,16,-1
 73 0 l 1,0,-1
525 356 m 0,17,18
 525 403 525 403 512.5 441.5 c 128,-1,19
 500 480 500 480 476 508 c 128,-1,20
 452 536 452 536 417 551 c 128,-1,21
 382 566 382 566 338 566 c 2,22,-1
 237 566 l 1,23,-1
 237 416 l 1,24,-1
 365 416 l 1,25,-1
 365 298 l 1,26,-1
 237 298 l 1,27,-1
 237 144 l 1,28,-1
 338 144 l 2,29,30
 383 144 383 144 418 160 c 128,-1,31
 453 176 453 176 476.5 204.5 c 128,-1,32
 500 233 500 233 512.5 271.5 c 128,-1,33
 525 310 525 310 525 356 c 0,17,18
EndSplineSet
EndChar

StartChar: Ntilde
Encoding: 209 209 148
Width: 759
GlyphClass: 2
Flags: W
LayerCount: 2
Fore
SplineSet
232 406 m 1,0,-1
 232 0 l 1,1,-1
 68 0 l 1,2,-1
 68 710 l 1,3,-1
 196 710 l 1,4,-1
 527 293 l 1,5,-1
 527 710 l 1,6,-1
 691 710 l 1,7,-1
 691 0 l 1,8,-1
 559 0 l 1,9,-1
 232 406 l 1,0,-1
441 772 m 0,10,11
 418 772 418 772 400.5 779 c 128,-1,12
 383 786 383 786 368 795 c 128,-1,13
 353 804 353 804 339 811 c 128,-1,14
 325 818 325 818 308 818 c 256,15,16
 291 818 291 818 282 811 c 128,-1,17
 273 804 273 804 268 795 c 128,-1,18
 263 786 263 786 262 778.5 c 128,-1,19
 261 771 261 771 261 770 c 2,20,-1
 175 770 l 1,21,22
 175 781 175 781 181.5 804.5 c 128,-1,23
 188 828 188 828 203 852 c 128,-1,24
 218 876 218 876 242.5 894 c 128,-1,25
 267 912 267 912 302 912 c 0,26,27
 326 912 326 912 343 904.5 c 128,-1,28
 360 897 360 897 374.5 888 c 128,-1,29
 389 879 389 879 403 871.5 c 128,-1,30
 417 864 417 864 435 864 c 0,31,32
 452 864 452 864 462.5 871.5 c 128,-1,33
 473 879 473 879 478.5 888 c 128,-1,34
 484 897 484 897 485.5 905 c 128,-1,35
 487 913 487 913 487 914 c 2,36,-1
 573 914 l 1,37,38
 573 906 573 906 566 883 c 128,-1,39
 559 860 559 860 543.5 835 c 128,-1,40
 528 810 528 810 503 791 c 128,-1,41
 478 772 478 772 441 772 c 0,10,11
EndSplineSet
EndChar

StartChar: Ograve
Encoding: 210 210 149
Width: 760
GlyphClass: 2
Flags: W
LayerCount: 2
Fore
SplineSet
379 -6 m 0,0,1
 300 -6 300 -6 235 25 c 128,-1,2
 170 56 170 56 124 106.5 c 128,-1,3
 78 157 78 157 52.5 222 c 128,-1,4
 27 287 27 287 27 356 c 0,5,6
 27 426 27 426 53.5 491 c 128,-1,7
 80 556 80 556 127.5 605.5 c 128,-1,8
 175 655 175 655 240 684.5 c 128,-1,9
 305 714 305 714 382 714 c 0,10,11
 461 714 461 714 526 683 c 128,-1,12
 591 652 591 652 637 601 c 128,-1,13
 683 550 683 550 708 485 c 128,-1,14
 733 420 733 420 733 353 c 0,15,16
 733 283 733 283 706.5 218 c 128,-1,17
 680 153 680 153 633 103.5 c 128,-1,18
 586 54 586 54 521 24 c 128,-1,19
 456 -6 456 -6 379 -6 c 0,0,1
194 354 m 0,20,21
 194 313 194 313 206 274.5 c 128,-1,22
 218 236 218 236 241.5 206 c 128,-1,23
 265 176 265 176 300 158 c 128,-1,24
 335 140 335 140 380 140 c 0,25,26
 427 140 427 140 462 159 c 128,-1,27
 497 178 497 178 520 208.5 c 128,-1,28
 543 239 543 239 554.5 277.5 c 128,-1,29
 566 316 566 316 566 356 c 0,30,31
 566 397 566 397 554 435.5 c 128,-1,32
 542 474 542 474 518 503.5 c 128,-1,33
 494 533 494 533 459.5 550.5 c 128,-1,34
 425 568 425 568 380 568 c 0,35,36
 333 568 333 568 298.5 549.5 c 128,-1,37
 264 531 264 531 240.5 501 c 128,-1,38
 217 471 217 471 205.5 432.5 c 128,-1,39
 194 394 194 394 194 354 c 0,20,21
244 916 m 1,40,-1
 389 916 l 1,41,-1
 441 786 l 1,42,-1
 340 758 l 1,43,-1
 244 916 l 1,40,-1
EndSplineSet
EndChar

StartChar: Oacute
Encoding: 211 211 150
Width: 760
GlyphClass: 2
Flags: W
LayerCount: 2
Fore
SplineSet
433 757 m 1,0,-1
 331 785 l 1,1,-1
 383 915 l 1,2,-1
 528 915 l 1,3,-1
 433 757 l 1,0,-1
379 -6 m 0,4,5
 300 -6 300 -6 235 25 c 128,-1,6
 170 56 170 56 124 106.5 c 128,-1,7
 78 157 78 157 52.5 222 c 128,-1,8
 27 287 27 287 27 356 c 0,9,10
 27 426 27 426 53.5 491 c 128,-1,11
 80 556 80 556 127.5 605.5 c 128,-1,12
 175 655 175 655 240 684.5 c 128,-1,13
 305 714 305 714 382 714 c 0,14,15
 461 714 461 714 526 683 c 128,-1,16
 591 652 591 652 637 601 c 128,-1,17
 683 550 683 550 708 485 c 128,-1,18
 733 420 733 420 733 353 c 0,19,20
 733 283 733 283 706.5 218 c 128,-1,21
 680 153 680 153 633 103.5 c 128,-1,22
 586 54 586 54 521 24 c 128,-1,23
 456 -6 456 -6 379 -6 c 0,4,5
194 354 m 0,24,25
 194 313 194 313 206 274.5 c 128,-1,26
 218 236 218 236 241.5 206 c 128,-1,27
 265 176 265 176 300 158 c 128,-1,28
 335 140 335 140 380 140 c 0,29,30
 427 140 427 140 462 159 c 128,-1,31
 497 178 497 178 520 208.5 c 128,-1,32
 543 239 543 239 554.5 277.5 c 128,-1,33
 566 316 566 316 566 356 c 0,34,35
 566 397 566 397 554 435.5 c 128,-1,36
 542 474 542 474 518 503.5 c 128,-1,37
 494 533 494 533 459.5 550.5 c 128,-1,38
 425 568 425 568 380 568 c 0,39,40
 333 568 333 568 298.5 549.5 c 128,-1,41
 264 531 264 531 240.5 501 c 128,-1,42
 217 471 217 471 205.5 432.5 c 128,-1,43
 194 394 194 394 194 354 c 0,24,25
EndSplineSet
EndChar

StartChar: Ocircumflex
Encoding: 212 212 151
Width: 760
GlyphClass: 2
Flags: W
LayerCount: 2
Fore
SplineSet
214 807 m 1,0,-1
 324 915 l 1,1,-1
 439 915 l 1,2,-1
 548 807 l 1,3,-1
 466 771 l 1,4,-1
 381 834 l 1,5,-1
 296 771 l 1,6,-1
 214 807 l 1,0,-1
379 -6 m 0,7,8
 300 -6 300 -6 235 25 c 128,-1,9
 170 56 170 56 124 106.5 c 128,-1,10
 78 157 78 157 52.5 222 c 128,-1,11
 27 287 27 287 27 356 c 0,12,13
 27 426 27 426 53.5 491 c 128,-1,14
 80 556 80 556 127.5 605.5 c 128,-1,15
 175 655 175 655 240 684.5 c 128,-1,16
 305 714 305 714 382 714 c 0,17,18
 461 714 461 714 526 683 c 128,-1,19
 591 652 591 652 637 601 c 128,-1,20
 683 550 683 550 708 485 c 128,-1,21
 733 420 733 420 733 353 c 0,22,23
 733 283 733 283 706.5 218 c 128,-1,24
 680 153 680 153 633 103.5 c 128,-1,25
 586 54 586 54 521 24 c 128,-1,26
 456 -6 456 -6 379 -6 c 0,7,8
194 354 m 0,27,28
 194 313 194 313 206 274.5 c 128,-1,29
 218 236 218 236 241.5 206 c 128,-1,30
 265 176 265 176 300 158 c 128,-1,31
 335 140 335 140 380 140 c 0,32,33
 427 140 427 140 462 159 c 128,-1,34
 497 178 497 178 520 208.5 c 128,-1,35
 543 239 543 239 554.5 277.5 c 128,-1,36
 566 316 566 316 566 356 c 0,37,38
 566 397 566 397 554 435.5 c 128,-1,39
 542 474 542 474 518 503.5 c 128,-1,40
 494 533 494 533 459.5 550.5 c 128,-1,41
 425 568 425 568 380 568 c 0,42,43
 333 568 333 568 298.5 549.5 c 128,-1,44
 264 531 264 531 240.5 501 c 128,-1,45
 217 471 217 471 205.5 432.5 c 128,-1,46
 194 394 194 394 194 354 c 0,27,28
EndSplineSet
EndChar

StartChar: Otilde
Encoding: 213 213 152
Width: 760
GlyphClass: 2
Flags: W
LayerCount: 2
Fore
SplineSet
379 -6 m 0,0,1
 300 -6 300 -6 235 25 c 128,-1,2
 170 56 170 56 124 106.5 c 128,-1,3
 78 157 78 157 52.5 222 c 128,-1,4
 27 287 27 287 27 356 c 0,5,6
 27 426 27 426 53.5 491 c 128,-1,7
 80 556 80 556 127.5 605.5 c 128,-1,8
 175 655 175 655 240 684.5 c 128,-1,9
 305 714 305 714 382 714 c 0,10,11
 461 714 461 714 526 683 c 128,-1,12
 591 652 591 652 637 601 c 128,-1,13
 683 550 683 550 708 485 c 128,-1,14
 733 420 733 420 733 353 c 0,15,16
 733 283 733 283 706.5 218 c 128,-1,17
 680 153 680 153 633 103.5 c 128,-1,18
 586 54 586 54 521 24 c 128,-1,19
 456 -6 456 -6 379 -6 c 0,0,1
194 354 m 0,20,21
 194 313 194 313 206 274.5 c 128,-1,22
 218 236 218 236 241.5 206 c 128,-1,23
 265 176 265 176 300 158 c 128,-1,24
 335 140 335 140 380 140 c 0,25,26
 427 140 427 140 462 159 c 128,-1,27
 497 178 497 178 520 208.5 c 128,-1,28
 543 239 543 239 554.5 277.5 c 128,-1,29
 566 316 566 316 566 356 c 0,30,31
 566 397 566 397 554 435.5 c 128,-1,32
 542 474 542 474 518 503.5 c 128,-1,33
 494 533 494 533 459.5 550.5 c 128,-1,34
 425 568 425 568 380 568 c 0,35,36
 333 568 333 568 298.5 549.5 c 128,-1,37
 264 531 264 531 240.5 501 c 128,-1,38
 217 471 217 471 205.5 432.5 c 128,-1,39
 194 394 194 394 194 354 c 0,20,21
448 773 m 0,40,41
 425 773 425 773 407.5 780 c 128,-1,42
 390 787 390 787 375 796 c 128,-1,43
 360 805 360 805 346 812 c 128,-1,44
 332 819 332 819 315 819 c 256,45,46
 298 819 298 819 289 812 c 128,-1,47
 280 805 280 805 275 796 c 128,-1,48
 270 787 270 787 269 779.5 c 128,-1,49
 268 772 268 772 268 771 c 2,50,-1
 182 771 l 1,51,52
 182 782 182 782 188.5 805.5 c 128,-1,53
 195 829 195 829 210 853 c 128,-1,54
 225 877 225 877 249.5 895 c 128,-1,55
 274 913 274 913 309 913 c 0,56,57
 333 913 333 913 350 905.5 c 128,-1,58
 367 898 367 898 381.5 889 c 128,-1,59
 396 880 396 880 410 872.5 c 128,-1,60
 424 865 424 865 442 865 c 0,61,62
 459 865 459 865 469.5 872.5 c 128,-1,63
 480 880 480 880 485.5 889 c 128,-1,64
 491 898 491 898 492.5 906 c 128,-1,65
 494 914 494 914 494 915 c 2,66,-1
 580 915 l 1,67,68
 580 907 580 907 573 884 c 128,-1,69
 566 861 566 861 550.5 836 c 128,-1,70
 535 811 535 811 510 792 c 128,-1,71
 485 773 485 773 448 773 c 0,40,41
EndSplineSet
EndChar

StartChar: Odieresis
Encoding: 214 214 153
Width: 760
GlyphClass: 2
Flags: W
LayerCount: 2
Fore
SplineSet
210 779 m 1,0,-1
 210 908 l 1,1,-1
 342 908 l 1,2,-1
 342 779 l 1,3,-1
 210 779 l 1,0,-1
420 779 m 1,4,-1
 420 908 l 1,5,-1
 552 908 l 1,6,-1
 552 779 l 1,7,-1
 420 779 l 1,4,-1
379 -6 m 0,8,9
 300 -6 300 -6 235 25 c 128,-1,10
 170 56 170 56 124 106.5 c 128,-1,11
 78 157 78 157 52.5 222 c 128,-1,12
 27 287 27 287 27 356 c 0,13,14
 27 426 27 426 53.5 491 c 128,-1,15
 80 556 80 556 127.5 605.5 c 128,-1,16
 175 655 175 655 240 684.5 c 128,-1,17
 305 714 305 714 382 714 c 0,18,19
 461 714 461 714 526 683 c 128,-1,20
 591 652 591 652 637 601 c 128,-1,21
 683 550 683 550 708 485 c 128,-1,22
 733 420 733 420 733 353 c 0,23,24
 733 283 733 283 706.5 218 c 128,-1,25
 680 153 680 153 633 103.5 c 128,-1,26
 586 54 586 54 521 24 c 128,-1,27
 456 -6 456 -6 379 -6 c 0,8,9
194 354 m 0,28,29
 194 313 194 313 206 274.5 c 128,-1,30
 218 236 218 236 241.5 206 c 128,-1,31
 265 176 265 176 300 158 c 128,-1,32
 335 140 335 140 380 140 c 0,33,34
 427 140 427 140 462 159 c 128,-1,35
 497 178 497 178 520 208.5 c 128,-1,36
 543 239 543 239 554.5 277.5 c 128,-1,37
 566 316 566 316 566 356 c 0,38,39
 566 397 566 397 554 435.5 c 128,-1,40
 542 474 542 474 518 503.5 c 128,-1,41
 494 533 494 533 459.5 550.5 c 128,-1,42
 425 568 425 568 380 568 c 0,43,44
 333 568 333 568 298.5 549.5 c 128,-1,45
 264 531 264 531 240.5 501 c 128,-1,46
 217 471 217 471 205.5 432.5 c 128,-1,47
 194 394 194 394 194 354 c 0,28,29
EndSplineSet
EndChar

StartChar: multiply
Encoding: 215 215 154
Width: 484
GlyphClass: 2
Flags: W
LayerCount: 2
Fore
SplineSet
437 181 m 1,0,-1
 337 82 l 1,1,-1
 241 177 l 1,2,-1
 146 82 l 1,3,-1
 47 181 l 1,4,-1
 141 276 l 1,5,-1
 52 367 l 1,6,-1
 152 466 l 1,7,-1
 242 376 l 1,8,-1
 332 466 l 1,9,-1
 431 367 l 1,10,-1
 341 277 l 1,11,-1
 437 181 l 1,0,-1
EndSplineSet
EndChar

StartChar: Oslash
Encoding: 216 216 155
Width: 759
GlyphClass: 2
Flags: W
LayerCount: 2
Fore
SplineSet
721 710 m 1,0,-1
 640 596 l 1,1,2
 684 545 684 545 708 482 c 128,-1,3
 732 419 732 419 732 353 c 0,4,5
 732 283 732 283 705.5 218 c 128,-1,6
 679 153 679 153 632 103.5 c 128,-1,7
 585 54 585 54 520 24 c 128,-1,8
 455 -6 455 -6 378 -6 c 256,9,10
 301 -6 301 -6 234 25 c 1,11,-1
 216 0 l 1,12,-1
 39 0 l 1,13,-1
 118 111 l 1,14,15
 73 162 73 162 49.5 225.5 c 128,-1,16
 26 289 26 289 26 356 c 0,17,18
 26 426 26 426 52.5 491 c 128,-1,19
 79 556 79 556 126.5 605.5 c 128,-1,20
 174 655 174 655 239 684.5 c 128,-1,21
 304 714 304 714 381 714 c 256,22,23
 458 714 458 714 525 683 c 1,24,-1
 544 710 l 1,25,-1
 721 710 l 1,0,-1
193 354 m 0,26,27
 193 326 193 326 198.5 299 c 128,-1,28
 204 272 204 272 215 248 c 1,29,-1
 436 559 l 1,30,31
 423 563 423 563 409 565.5 c 128,-1,32
 395 568 395 568 379 568 c 0,33,34
 332 568 332 568 297.5 549.5 c 128,-1,35
 263 531 263 531 239.5 501 c 128,-1,36
 216 471 216 471 204.5 432.5 c 128,-1,37
 193 394 193 394 193 354 c 0,26,27
565 356 m 0,38,39
 565 383 565 383 559.5 409.5 c 128,-1,40
 554 436 554 436 543 460 c 1,41,-1
 322 148 l 1,42,43
 349 140 349 140 379 140 c 0,44,45
 426 140 426 140 461 159 c 128,-1,46
 496 178 496 178 519 208.5 c 128,-1,47
 542 239 542 239 553.5 277.5 c 128,-1,48
 565 316 565 316 565 356 c 0,38,39
EndSplineSet
EndChar

StartChar: Ugrave
Encoding: 217 217 156
Width: 747
GlyphClass: 2
Flags: W
LayerCount: 2
Fore
SplineSet
373 140 m 256,0,1
 415 140 415 140 444 157.5 c 128,-1,2
 473 175 473 175 491 204 c 128,-1,3
 509 233 509 233 516.5 270.5 c 128,-1,4
 524 308 524 308 524 347 c 2,5,-1
 524 710 l 1,6,-1
 688 710 l 1,7,-1
 688 347 l 2,8,9
 688 273 688 273 669.5 209 c 128,-1,10
 651 145 651 145 612.5 97 c 128,-1,11
 574 49 574 49 514.5 21.5 c 128,-1,12
 455 -6 455 -6 373 -6 c 0,13,14
 288 -6 288 -6 228 23 c 128,-1,15
 168 52 168 52 130.5 100.5 c 128,-1,16
 93 149 93 149 75.5 213 c 128,-1,17
 58 277 58 277 58 347 c 2,18,-1
 58 710 l 1,19,-1
 222 710 l 1,20,-1
 222 347 l 2,21,22
 222 306 222 306 230 269 c 128,-1,23
 238 232 238 232 256 203 c 128,-1,24
 274 174 274 174 302.5 157 c 128,-1,25
 331 140 331 140 373 140 c 256,0,1
232 916 m 1,26,-1
 377 916 l 1,27,-1
 429 786 l 1,28,-1
 328 758 l 1,29,-1
 232 916 l 1,26,-1
EndSplineSet
EndChar

StartChar: Uacute
Encoding: 218 218 157
Width: 747
GlyphClass: 2
Flags: W
LayerCount: 2
Fore
SplineSet
419 757 m 1,0,-1
 317 785 l 1,1,-1
 369 915 l 1,2,-1
 514 915 l 1,3,-1
 419 757 l 1,0,-1
373 140 m 256,4,5
 415 140 415 140 444 157.5 c 128,-1,6
 473 175 473 175 491 204 c 128,-1,7
 509 233 509 233 516.5 270.5 c 128,-1,8
 524 308 524 308 524 347 c 2,9,-1
 524 710 l 1,10,-1
 688 710 l 1,11,-1
 688 347 l 2,12,13
 688 273 688 273 669.5 209 c 128,-1,14
 651 145 651 145 612.5 97 c 128,-1,15
 574 49 574 49 514.5 21.5 c 128,-1,16
 455 -6 455 -6 373 -6 c 0,17,18
 288 -6 288 -6 228 23 c 128,-1,19
 168 52 168 52 130.5 100.5 c 128,-1,20
 93 149 93 149 75.5 213 c 128,-1,21
 58 277 58 277 58 347 c 2,22,-1
 58 710 l 1,23,-1
 222 710 l 1,24,-1
 222 347 l 2,25,26
 222 306 222 306 230 269 c 128,-1,27
 238 232 238 232 256 203 c 128,-1,28
 274 174 274 174 302.5 157 c 128,-1,29
 331 140 331 140 373 140 c 256,4,5
EndSplineSet
EndChar

StartChar: Ucircumflex
Encoding: 219 219 158
Width: 747
GlyphClass: 2
Flags: W
LayerCount: 2
Fore
SplineSet
206 807 m 1,0,-1
 316 915 l 1,1,-1
 431 915 l 1,2,-1
 540 807 l 1,3,-1
 458 771 l 1,4,-1
 373 834 l 1,5,-1
 288 771 l 1,6,-1
 206 807 l 1,0,-1
373 140 m 256,7,8
 415 140 415 140 444 157.5 c 128,-1,9
 473 175 473 175 491 204 c 128,-1,10
 509 233 509 233 516.5 270.5 c 128,-1,11
 524 308 524 308 524 347 c 2,12,-1
 524 710 l 1,13,-1
 688 710 l 1,14,-1
 688 347 l 2,15,16
 688 273 688 273 669.5 209 c 128,-1,17
 651 145 651 145 612.5 97 c 128,-1,18
 574 49 574 49 514.5 21.5 c 128,-1,19
 455 -6 455 -6 373 -6 c 0,20,21
 288 -6 288 -6 228 23 c 128,-1,22
 168 52 168 52 130.5 100.5 c 128,-1,23
 93 149 93 149 75.5 213 c 128,-1,24
 58 277 58 277 58 347 c 2,25,-1
 58 710 l 1,26,-1
 222 710 l 1,27,-1
 222 347 l 2,28,29
 222 306 222 306 230 269 c 128,-1,30
 238 232 238 232 256 203 c 128,-1,31
 274 174 274 174 302.5 157 c 128,-1,32
 331 140 331 140 373 140 c 256,7,8
EndSplineSet
EndChar

StartChar: Udieresis
Encoding: 220 220 159
Width: 747
GlyphClass: 2
Flags: W
LayerCount: 2
Fore
SplineSet
202 779 m 1,0,-1
 202 908 l 1,1,-1
 334 908 l 1,2,-1
 334 779 l 1,3,-1
 202 779 l 1,0,-1
412 779 m 1,4,-1
 412 908 l 1,5,-1
 544 908 l 1,6,-1
 544 779 l 1,7,-1
 412 779 l 1,4,-1
373 140 m 256,8,9
 415 140 415 140 444 157.5 c 128,-1,10
 473 175 473 175 491 204 c 128,-1,11
 509 233 509 233 516.5 270.5 c 128,-1,12
 524 308 524 308 524 347 c 2,13,-1
 524 710 l 1,14,-1
 688 710 l 1,15,-1
 688 347 l 2,16,17
 688 273 688 273 669.5 209 c 128,-1,18
 651 145 651 145 612.5 97 c 128,-1,19
 574 49 574 49 514.5 21.5 c 128,-1,20
 455 -6 455 -6 373 -6 c 0,21,22
 288 -6 288 -6 228 23 c 128,-1,23
 168 52 168 52 130.5 100.5 c 128,-1,24
 93 149 93 149 75.5 213 c 128,-1,25
 58 277 58 277 58 347 c 2,26,-1
 58 710 l 1,27,-1
 222 710 l 1,28,-1
 222 347 l 2,29,30
 222 306 222 306 230 269 c 128,-1,31
 238 232 238 232 256 203 c 128,-1,32
 274 174 274 174 302.5 157 c 128,-1,33
 331 140 331 140 373 140 c 256,8,9
EndSplineSet
EndChar

StartChar: Yacute
Encoding: 221 221 160
Width: 663
GlyphClass: 2
Flags: W
LayerCount: 2
Fore
SplineSet
178 710 m 1,0,-1
 331 384 l 1,1,-1
 486 710 l 1,2,-1
 665 710 l 1,3,-1
 412 242 l 1,4,-1
 412 0 l 1,5,-1
 249 0 l 1,6,-1
 249 244 l 1,7,-1
 0 710 l 1,8,-1
 178 710 l 1,0,-1
376 757 m 1,9,-1
 274 785 l 1,10,-1
 326 915 l 1,11,-1
 471 915 l 1,12,-1
 376 757 l 1,9,-1
EndSplineSet
EndChar

StartChar: Thorn
Encoding: 222 222 161
Width: 605
GlyphClass: 2
Flags: W
LayerCount: 2
Fore
SplineSet
355 586 m 2,0,1
 406 586 406 586 448.5 565 c 128,-1,2
 491 544 491 544 521.5 510.5 c 128,-1,3
 552 477 552 477 569.5 434 c 128,-1,4
 587 391 587 391 587 347 c 0,5,6
 587 300 587 300 570.5 256.5 c 128,-1,7
 554 213 554 213 524.5 179.5 c 128,-1,8
 495 146 495 146 453.5 126 c 128,-1,9
 412 106 412 106 361 106 c 2,10,-1
 232 106 l 1,11,-1
 232 0 l 1,12,-1
 68 0 l 1,13,-1
 68 710 l 1,14,-1
 232 710 l 1,15,-1
 232 586 l 1,16,-1
 355 586 l 2,0,1
352 250 m 2,17,18
 382 250 382 250 402.5 277.5 c 128,-1,19
 423 305 423 305 423 347 c 0,20,21
 423 391 423 391 399.5 417 c 128,-1,22
 376 443 376 443 347 443 c 2,23,-1
 232 443 l 1,24,-1
 232 250 l 1,25,-1
 352 250 l 2,17,18
EndSplineSet
EndChar

StartChar: germandbls
Encoding: 223 223 162
Width: 560
GlyphClass: 2
Flags: W
LayerCount: 2
Fore
SplineSet
250 141 m 1,0,1
 301 141 301 141 334.5 163 c 128,-1,2
 368 185 368 185 368 231 c 0,3,4
 368 253 368 253 359.5 269.5 c 128,-1,5
 351 286 351 286 337.5 297 c 128,-1,6
 324 308 324 308 307.5 313.5 c 128,-1,7
 291 319 291 319 275 319 c 2,8,-1
 253 319 l 1,9,-1
 253 462 l 1,10,-1
 274 462 l 2,11,12
 303 462 303 462 318 478 c 128,-1,13
 333 494 333 494 333 520 c 0,14,15
 333 539 333 539 326 550.5 c 128,-1,16
 319 562 319 562 309 568.5 c 128,-1,17
 299 575 299 575 288.5 577 c 128,-1,18
 278 579 278 579 271 579 c 0,19,20
 251 579 251 579 238.5 570.5 c 128,-1,21
 226 562 226 562 219 549.5 c 128,-1,22
 212 537 212 537 209.5 522.5 c 128,-1,23
 207 508 207 508 207 497 c 2,24,-1
 207 0 l 1,25,-1
 55 0 l 1,26,-1
 55 525 l 2,27,28
 55 566 55 566 72.5 600.5 c 128,-1,29
 90 635 90 635 121 660.5 c 128,-1,30
 152 686 152 686 194 700 c 128,-1,31
 236 714 236 714 285 714 c 0,32,33
 328 714 328 714 364.5 702.5 c 128,-1,34
 401 691 401 691 428 670 c 128,-1,35
 455 649 455 649 470 618 c 128,-1,36
 485 587 485 587 485 548 c 0,37,38
 485 522 485 522 478.5 499 c 128,-1,39
 472 476 472 476 461 457 c 128,-1,40
 450 438 450 438 435.5 424 c 128,-1,41
 421 410 421 410 405 403 c 1,42,43
 466 383 466 383 501 333.5 c 128,-1,44
 536 284 536 284 536 212 c 0,45,46
 536 151 536 151 511.5 109.5 c 128,-1,47
 487 68 487 68 446.5 42.5 c 128,-1,48
 406 17 406 17 355 5.5 c 128,-1,49
 304 -6 304 -6 250 -6 c 1,50,-1
 250 141 l 1,0,1
EndSplineSet
EndChar

StartChar: agrave
Encoding: 224 224 163
Width: 586
GlyphClass: 2
Flags: W
LayerCount: 2
Fore
SplineSet
204 -10 m 0,0,1
 165 -10 165 -10 131.5 2.5 c 128,-1,2
 98 15 98 15 74 37.5 c 128,-1,3
 50 60 50 60 36 90.5 c 128,-1,4
 22 121 22 121 22 157 c 0,5,6
 22 196 22 196 38.5 228 c 128,-1,7
 55 260 55 260 85 283 c 128,-1,8
 115 306 115 306 156 319 c 128,-1,9
 197 332 197 332 247 332 c 0,10,11
 280 332 280 332 311 326.5 c 128,-1,12
 342 321 342 321 365 310 c 1,13,-1
 365 334 l 2,14,15
 365 425 365 425 260 425 c 0,16,17
 217 425 217 425 178 410.5 c 128,-1,18
 139 396 139 396 96 367 c 1,19,-1
 49 467 l 1,20,21
 101 501 101 501 157 518 c 128,-1,22
 213 535 213 535 276 535 c 0,23,24
 395 535 395 535 460 479 c 128,-1,25
 525 423 525 423 525 315 c 2,26,-1
 525 180 l 2,27,28
 525 156 525 156 532.5 146.5 c 128,-1,29
 540 137 540 137 559 135 c 1,30,-1
 559 0 l 1,31,32
 538 -5 538 -5 521 -6.5 c 128,-1,33
 504 -8 504 -8 490 -8 c 0,34,35
 445 -8 445 -8 422 9.5 c 128,-1,36
 399 27 399 27 393 59 c 2,37,-1
 390 83 l 1,38,39
 355 38 355 38 306.5 14 c 128,-1,40
 258 -10 258 -10 204 -10 c 0,0,1
251 105 m 0,41,42
 277 105 277 105 301.5 114 c 128,-1,43
 326 123 326 123 342 138 c 0,44,45
 365 156 365 156 365 176 c 2,46,-1
 365 226 l 1,47,48
 344 234 344 234 319.5 238.5 c 128,-1,49
 295 243 295 243 274 243 c 0,50,51
 230 243 230 243 201.5 223 c 128,-1,52
 173 203 173 203 173 171 c 0,53,54
 173 142 173 142 195 123.5 c 128,-1,55
 217 105 217 105 251 105 c 0,41,42
135 731 m 1,56,-1
 280 731 l 1,57,-1
 332 601 l 1,58,-1
 231 573 l 1,59,-1
 135 731 l 1,56,-1
EndSplineSet
EndChar

StartChar: aacute
Encoding: 225 225 164
Width: 586
GlyphClass: 2
Flags: W
LayerCount: 2
Fore
SplineSet
204 -10 m 0,0,1
 165 -10 165 -10 131.5 2.5 c 128,-1,2
 98 15 98 15 74 37.5 c 128,-1,3
 50 60 50 60 36 90.5 c 128,-1,4
 22 121 22 121 22 157 c 0,5,6
 22 196 22 196 38.5 228 c 128,-1,7
 55 260 55 260 85 283 c 128,-1,8
 115 306 115 306 156 319 c 128,-1,9
 197 332 197 332 247 332 c 0,10,11
 280 332 280 332 311 326.5 c 128,-1,12
 342 321 342 321 365 310 c 1,13,-1
 365 334 l 2,14,15
 365 425 365 425 260 425 c 0,16,17
 217 425 217 425 178 410.5 c 128,-1,18
 139 396 139 396 96 367 c 1,19,-1
 49 467 l 1,20,21
 101 501 101 501 157 518 c 128,-1,22
 213 535 213 535 276 535 c 0,23,24
 395 535 395 535 460 479 c 128,-1,25
 525 423 525 423 525 315 c 2,26,-1
 525 180 l 2,27,28
 525 156 525 156 532.5 146.5 c 128,-1,29
 540 137 540 137 559 135 c 1,30,-1
 559 0 l 1,31,32
 538 -5 538 -5 521 -6.5 c 128,-1,33
 504 -8 504 -8 490 -8 c 0,34,35
 445 -8 445 -8 422 9.5 c 128,-1,36
 399 27 399 27 393 59 c 2,37,-1
 390 83 l 1,38,39
 355 38 355 38 306.5 14 c 128,-1,40
 258 -10 258 -10 204 -10 c 0,0,1
251 105 m 0,41,42
 277 105 277 105 301.5 114 c 128,-1,43
 326 123 326 123 342 138 c 0,44,45
 365 156 365 156 365 176 c 2,46,-1
 365 226 l 1,47,48
 344 234 344 234 319.5 238.5 c 128,-1,49
 295 243 295 243 274 243 c 0,50,51
 230 243 230 243 201.5 223 c 128,-1,52
 173 203 173 203 173 171 c 0,53,54
 173 142 173 142 195 123.5 c 128,-1,55
 217 105 217 105 251 105 c 0,41,42
322 572 m 1,56,-1
 220 600 l 1,57,-1
 272 730 l 1,58,-1
 417 730 l 1,59,-1
 322 572 l 1,56,-1
EndSplineSet
EndChar

StartChar: acircumflex
Encoding: 226 226 165
Width: 586
GlyphClass: 2
Flags: W
LayerCount: 2
Fore
SplineSet
204 -10 m 0,0,1
 165 -10 165 -10 131.5 2.5 c 128,-1,2
 98 15 98 15 74 37.5 c 128,-1,3
 50 60 50 60 36 90.5 c 128,-1,4
 22 121 22 121 22 157 c 0,5,6
 22 196 22 196 38.5 228 c 128,-1,7
 55 260 55 260 85 283 c 128,-1,8
 115 306 115 306 156 319 c 128,-1,9
 197 332 197 332 247 332 c 0,10,11
 280 332 280 332 311 326.5 c 128,-1,12
 342 321 342 321 365 310 c 1,13,-1
 365 334 l 2,14,15
 365 425 365 425 260 425 c 0,16,17
 217 425 217 425 178 410.5 c 128,-1,18
 139 396 139 396 96 367 c 1,19,-1
 49 467 l 1,20,21
 101 501 101 501 157 518 c 128,-1,22
 213 535 213 535 276 535 c 0,23,24
 395 535 395 535 460 479 c 128,-1,25
 525 423 525 423 525 315 c 2,26,-1
 525 180 l 2,27,28
 525 156 525 156 532.5 146.5 c 128,-1,29
 540 137 540 137 559 135 c 1,30,-1
 559 0 l 1,31,32
 538 -5 538 -5 521 -6.5 c 128,-1,33
 504 -8 504 -8 490 -8 c 0,34,35
 445 -8 445 -8 422 9.5 c 128,-1,36
 399 27 399 27 393 59 c 2,37,-1
 390 83 l 1,38,39
 355 38 355 38 306.5 14 c 128,-1,40
 258 -10 258 -10 204 -10 c 0,0,1
251 105 m 0,41,42
 277 105 277 105 301.5 114 c 128,-1,43
 326 123 326 123 342 138 c 0,44,45
 365 156 365 156 365 176 c 2,46,-1
 365 226 l 1,47,48
 344 234 344 234 319.5 238.5 c 128,-1,49
 295 243 295 243 274 243 c 0,50,51
 230 243 230 243 201.5 223 c 128,-1,52
 173 203 173 203 173 171 c 0,53,54
 173 142 173 142 195 123.5 c 128,-1,55
 217 105 217 105 251 105 c 0,41,42
109 622 m 1,56,-1
 219 730 l 1,57,-1
 334 730 l 1,58,-1
 443 622 l 1,59,-1
 361 586 l 1,60,-1
 276 649 l 1,61,-1
 191 586 l 1,62,-1
 109 622 l 1,56,-1
EndSplineSet
EndChar

StartChar: atilde
Encoding: 227 227 166
Width: 586
GlyphClass: 2
Flags: W
LayerCount: 2
Fore
SplineSet
204 -10 m 0,0,1
 165 -10 165 -10 131.5 2.5 c 128,-1,2
 98 15 98 15 74 37.5 c 128,-1,3
 50 60 50 60 36 90.5 c 128,-1,4
 22 121 22 121 22 157 c 0,5,6
 22 196 22 196 38.5 228 c 128,-1,7
 55 260 55 260 85 283 c 128,-1,8
 115 306 115 306 156 319 c 128,-1,9
 197 332 197 332 247 332 c 0,10,11
 280 332 280 332 311 326.5 c 128,-1,12
 342 321 342 321 365 310 c 1,13,-1
 365 334 l 2,14,15
 365 425 365 425 260 425 c 0,16,17
 217 425 217 425 178 410.5 c 128,-1,18
 139 396 139 396 96 367 c 1,19,-1
 49 467 l 1,20,21
 101 501 101 501 157 518 c 128,-1,22
 213 535 213 535 276 535 c 0,23,24
 395 535 395 535 460 479 c 128,-1,25
 525 423 525 423 525 315 c 2,26,-1
 525 180 l 2,27,28
 525 156 525 156 532.5 146.5 c 128,-1,29
 540 137 540 137 559 135 c 1,30,-1
 559 0 l 1,31,32
 538 -5 538 -5 521 -6.5 c 128,-1,33
 504 -8 504 -8 490 -8 c 0,34,35
 445 -8 445 -8 422 9.5 c 128,-1,36
 399 27 399 27 393 59 c 2,37,-1
 390 83 l 1,38,39
 355 38 355 38 306.5 14 c 128,-1,40
 258 -10 258 -10 204 -10 c 0,0,1
251 105 m 0,41,42
 277 105 277 105 301.5 114 c 128,-1,43
 326 123 326 123 342 138 c 0,44,45
 365 156 365 156 365 176 c 2,46,-1
 365 226 l 1,47,48
 344 234 344 234 319.5 238.5 c 128,-1,49
 295 243 295 243 274 243 c 0,50,51
 230 243 230 243 201.5 223 c 128,-1,52
 173 203 173 203 173 171 c 0,53,54
 173 142 173 142 195 123.5 c 128,-1,55
 217 105 217 105 251 105 c 0,41,42
339 588 m 0,56,57
 316 588 316 588 298.5 595 c 128,-1,58
 281 602 281 602 266 611 c 128,-1,59
 251 620 251 620 237 627 c 128,-1,60
 223 634 223 634 206 634 c 256,61,62
 189 634 189 634 180 627 c 128,-1,63
 171 620 171 620 166 611 c 128,-1,64
 161 602 161 602 160 594.5 c 128,-1,65
 159 587 159 587 159 586 c 2,66,-1
 73 586 l 1,67,68
 73 597 73 597 79.5 620.5 c 128,-1,69
 86 644 86 644 101 668 c 128,-1,70
 116 692 116 692 140.5 710 c 128,-1,71
 165 728 165 728 200 728 c 0,72,73
 224 728 224 728 241 720.5 c 128,-1,74
 258 713 258 713 272.5 704 c 128,-1,75
 287 695 287 695 301 687.5 c 128,-1,76
 315 680 315 680 333 680 c 0,77,78
 350 680 350 680 360.5 687.5 c 128,-1,79
 371 695 371 695 376.5 704 c 128,-1,80
 382 713 382 713 383.5 721 c 128,-1,81
 385 729 385 729 385 730 c 2,82,-1
 471 730 l 1,83,84
 471 722 471 722 464 699 c 128,-1,85
 457 676 457 676 441.5 651 c 128,-1,86
 426 626 426 626 401 607 c 128,-1,87
 376 588 376 588 339 588 c 0,56,57
EndSplineSet
EndChar

StartChar: adieresis
Encoding: 228 228 167
Width: 586
GlyphClass: 2
Flags: W
LayerCount: 2
Fore
SplineSet
204 -10 m 0,0,1
 165 -10 165 -10 131.5 2.5 c 128,-1,2
 98 15 98 15 74 37.5 c 128,-1,3
 50 60 50 60 36 90.5 c 128,-1,4
 22 121 22 121 22 157 c 0,5,6
 22 196 22 196 38.5 228 c 128,-1,7
 55 260 55 260 85 283 c 128,-1,8
 115 306 115 306 156 319 c 128,-1,9
 197 332 197 332 247 332 c 0,10,11
 280 332 280 332 311 326.5 c 128,-1,12
 342 321 342 321 365 310 c 1,13,-1
 365 334 l 2,14,15
 365 425 365 425 260 425 c 0,16,17
 217 425 217 425 178 410.5 c 128,-1,18
 139 396 139 396 96 367 c 1,19,-1
 49 467 l 1,20,21
 101 501 101 501 157 518 c 128,-1,22
 213 535 213 535 276 535 c 0,23,24
 395 535 395 535 460 479 c 128,-1,25
 525 423 525 423 525 315 c 2,26,-1
 525 180 l 2,27,28
 525 156 525 156 532.5 146.5 c 128,-1,29
 540 137 540 137 559 135 c 1,30,-1
 559 0 l 1,31,32
 538 -5 538 -5 521 -6.5 c 128,-1,33
 504 -8 504 -8 490 -8 c 0,34,35
 445 -8 445 -8 422 9.5 c 128,-1,36
 399 27 399 27 393 59 c 2,37,-1
 390 83 l 1,38,39
 355 38 355 38 306.5 14 c 128,-1,40
 258 -10 258 -10 204 -10 c 0,0,1
251 105 m 0,41,42
 277 105 277 105 301.5 114 c 128,-1,43
 326 123 326 123 342 138 c 0,44,45
 365 156 365 156 365 176 c 2,46,-1
 365 226 l 1,47,48
 344 234 344 234 319.5 238.5 c 128,-1,49
 295 243 295 243 274 243 c 0,50,51
 230 243 230 243 201.5 223 c 128,-1,52
 173 203 173 203 173 171 c 0,53,54
 173 142 173 142 195 123.5 c 128,-1,55
 217 105 217 105 251 105 c 0,41,42
105 594 m 1,56,-1
 105 723 l 1,57,-1
 237 723 l 1,58,-1
 237 594 l 1,59,-1
 105 594 l 1,56,-1
315 594 m 1,60,-1
 315 723 l 1,61,-1
 447 723 l 1,62,-1
 447 594 l 1,63,-1
 315 594 l 1,60,-1
EndSplineSet
EndChar

StartChar: aring
Encoding: 229 229 168
Width: 586
GlyphClass: 2
Flags: W
LayerCount: 2
Fore
SplineSet
204 -10 m 0,0,1
 165 -10 165 -10 131.5 2.5 c 128,-1,2
 98 15 98 15 74 37.5 c 128,-1,3
 50 60 50 60 36 90.5 c 128,-1,4
 22 121 22 121 22 157 c 0,5,6
 22 196 22 196 38.5 228 c 128,-1,7
 55 260 55 260 85 283 c 128,-1,8
 115 306 115 306 156 319 c 128,-1,9
 197 332 197 332 247 332 c 0,10,11
 280 332 280 332 311 326.5 c 128,-1,12
 342 321 342 321 365 310 c 1,13,-1
 365 334 l 2,14,15
 365 425 365 425 260 425 c 0,16,17
 217 425 217 425 178 410.5 c 128,-1,18
 139 396 139 396 96 367 c 1,19,-1
 49 467 l 1,20,21
 101 501 101 501 157 518 c 128,-1,22
 213 535 213 535 276 535 c 0,23,24
 395 535 395 535 460 479 c 128,-1,25
 525 423 525 423 525 315 c 2,26,-1
 525 180 l 2,27,28
 525 156 525 156 532.5 146.5 c 128,-1,29
 540 137 540 137 559 135 c 1,30,-1
 559 0 l 1,31,32
 538 -5 538 -5 521 -6.5 c 128,-1,33
 504 -8 504 -8 490 -8 c 0,34,35
 445 -8 445 -8 422 9.5 c 128,-1,36
 399 27 399 27 393 59 c 2,37,-1
 390 83 l 1,38,39
 355 38 355 38 306.5 14 c 128,-1,40
 258 -10 258 -10 204 -10 c 0,0,1
251 105 m 0,41,42
 277 105 277 105 301.5 114 c 128,-1,43
 326 123 326 123 342 138 c 0,44,45
 365 156 365 156 365 176 c 2,46,-1
 365 226 l 1,47,48
 344 234 344 234 319.5 238.5 c 128,-1,49
 295 243 295 243 274 243 c 0,50,51
 230 243 230 243 201.5 223 c 128,-1,52
 173 203 173 203 173 171 c 0,53,54
 173 142 173 142 195 123.5 c 128,-1,55
 217 105 217 105 251 105 c 0,41,42
169 648 m 0,56,57
 169 689 169 689 198.5 709.5 c 128,-1,58
 228 730 228 730 276 730 c 256,59,60
 324 730 324 730 353 709.5 c 128,-1,61
 382 689 382 689 382 648 c 0,62,63
 382 608 382 608 353 587.5 c 128,-1,64
 324 567 324 567 276 567 c 256,65,66
 228 567 228 567 198.5 587.5 c 128,-1,67
 169 608 169 608 169 648 c 0,56,57
276 683 m 256,68,69
 259 683 259 683 247.5 673.5 c 128,-1,70
 236 664 236 664 236 649 c 256,71,72
 236 634 236 634 247.5 624 c 128,-1,73
 259 614 259 614 276 614 c 0,74,75
 292 614 292 614 304 623.5 c 128,-1,76
 316 633 316 633 316 649 c 0,77,78
 316 664 316 664 304.5 673.5 c 128,-1,79
 293 683 293 683 276 683 c 256,68,69
EndSplineSet
EndChar

StartChar: ae
Encoding: 230 230 169
Width: 939
GlyphClass: 2
Flags: W
LayerCount: 2
Fore
SplineSet
203 -10 m 0,0,1
 164 -10 164 -10 131 2.5 c 128,-1,2
 98 15 98 15 74 37.5 c 128,-1,3
 50 60 50 60 36 90.5 c 128,-1,4
 22 121 22 121 22 157 c 0,5,6
 22 196 22 196 38.5 228 c 128,-1,7
 55 260 55 260 85 283 c 128,-1,8
 115 306 115 306 156 319 c 128,-1,9
 197 332 197 332 247 332 c 0,10,11
 279 332 279 332 308 326.5 c 128,-1,12
 337 321 337 321 360 312 c 1,13,14
 360 317 360 317 361 327.5 c 128,-1,15
 362 338 362 338 364 342 c 0,16,17
 361 384 361 384 336 404.5 c 128,-1,18
 311 425 311 425 260 425 c 0,19,20
 217 425 217 425 178 410.5 c 128,-1,21
 139 396 139 396 96 367 c 1,22,-1
 49 467 l 1,23,24
 101 501 101 501 157 518 c 128,-1,25
 213 535 213 535 276 535 c 0,26,27
 336 535 336 535 382 518.5 c 128,-1,28
 428 502 428 502 459 471 c 1,29,30
 493 500 493 500 538 517.5 c 128,-1,31
 583 535 583 535 640 535 c 0,32,33
 707 535 707 535 759.5 513 c 128,-1,34
 812 491 812 491 848 453.5 c 128,-1,35
 884 416 884 416 903 366.5 c 128,-1,36
 922 317 922 317 922 262 c 0,37,38
 922 250 922 250 920.5 236.5 c 128,-1,39
 919 223 919 223 917 213 c 1,40,-1
 527 213 l 1,41,42
 529 187 529 187 539.5 166.5 c 128,-1,43
 550 146 550 146 566.5 132.5 c 128,-1,44
 583 119 583 119 603.5 112 c 128,-1,45
 624 105 624 105 646 105 c 0,46,47
 682 105 682 105 714 122 c 128,-1,48
 746 139 746 139 757 168 c 1,49,-1
 893 130 l 1,50,51
 863 68 863 68 797.5 29 c 128,-1,52
 732 -10 732 -10 641 -10 c 0,53,54
 564 -10 564 -10 506 18.5 c 128,-1,55
 448 47 448 47 413 95 c 1,56,57
 394 67 394 67 369 47 c 128,-1,58
 344 27 344 27 316 14.5 c 128,-1,59
 288 2 288 2 259 -4 c 128,-1,60
 230 -10 230 -10 203 -10 c 0,0,1
250 105 m 0,61,62
 276 105 276 105 300.5 114 c 128,-1,63
 325 123 325 123 342 138 c 0,64,65
 365 156 365 156 365 175 c 0,66,67
 364 177 364 177 363 184.5 c 128,-1,68
 362 192 362 192 361.5 201 c 128,-1,69
 361 210 361 210 360.5 217.5 c 128,-1,70
 360 225 360 225 360 228 c 0,71,72
 340 235 340 235 317 239 c 128,-1,73
 294 243 294 243 274 243 c 0,74,75
 230 243 230 243 201.5 223 c 128,-1,76
 173 203 173 203 173 171 c 0,77,78
 173 142 173 142 195 123.5 c 128,-1,79
 217 105 217 105 250 105 c 0,61,62
753 310 m 1,80,81
 748 360 748 360 717 390 c 128,-1,82
 686 420 686 420 638 420 c 256,83,84
 590 420 590 420 559.5 390 c 128,-1,85
 529 360 529 360 524 310 c 1,86,-1
 753 310 l 1,80,81
EndSplineSet
EndChar

StartChar: ccedilla
Encoding: 231 231 170
Width: 570
GlyphClass: 2
Flags: W
LayerCount: 2
Fore
SplineSet
225 -127 m 1,0,1
 236 -134 236 -134 262 -140.5 c 128,-1,2
 288 -147 288 -147 315 -147 c 0,3,4
 339 -147 339 -147 355 -140 c 128,-1,5
 371 -133 371 -133 371 -115 c 0,6,7
 371 -98 371 -98 356 -90.5 c 128,-1,8
 341 -83 341 -83 317 -83 c 0,9,10
 296 -83 296 -83 272.5 -87 c 128,-1,11
 249 -91 249 -91 238 -94 c 1,12,-1
 280 -9 l 1,13,14
 220 -5 220 -5 172.5 19 c 128,-1,15
 125 43 125 43 92 80 c 128,-1,16
 59 117 59 117 41.5 164 c 128,-1,17
 24 211 24 211 24 263 c 0,18,19
 24 317 24 317 43 366.5 c 128,-1,20
 62 416 62 416 98 453.5 c 128,-1,21
 134 491 134 491 186.5 513 c 128,-1,22
 239 535 239 535 306 535 c 0,23,24
 397 535 397 535 459 496.5 c 128,-1,25
 521 458 521 458 552 396 c 1,26,-1
 396 349 l 1,27,28
 365 399 365 399 305 399 c 0,29,30
 255 399 255 399 221.5 362 c 128,-1,31
 188 325 188 325 188 263 c 0,32,33
 188 232 188 232 197 206.5 c 128,-1,34
 206 181 206 181 222 163 c 128,-1,35
 238 145 238 145 259.5 135 c 128,-1,36
 281 125 281 125 305 125 c 0,37,38
 335 125 335 125 360 139.5 c 128,-1,39
 385 154 385 154 397 177 c 1,40,-1
 553 129 l 1,41,42
 527 75 527 75 473.5 37.5 c 128,-1,43
 420 0 420 0 344 -8 c 1,44,-1
 324 -38 l 1,45,46
 337 -35 337 -35 354 -35 c 0,47,48
 390 -35 390 -35 417 -52.5 c 128,-1,49
 444 -70 444 -70 444 -109 c 0,50,51
 444 -149 444 -149 410 -176.5 c 128,-1,52
 376 -204 376 -204 304 -204 c 0,53,54
 269 -204 269 -204 242 -197.5 c 128,-1,55
 215 -191 215 -191 195 -183 c 1,56,-1
 225 -127 l 1,0,1
EndSplineSet
EndChar

StartChar: egrave
Encoding: 232 232 171
Width: 604
GlyphClass: 2
Flags: W
LayerCount: 2
Fore
SplineSet
306 -10 m 0,0,1
 240 -10 240 -10 187.5 11.5 c 128,-1,2
 135 33 135 33 98.5 70 c 128,-1,3
 62 107 62 107 43 155.5 c 128,-1,4
 24 204 24 204 24 257 c 0,5,6
 24 314 24 314 43 364.5 c 128,-1,7
 62 415 62 415 98 453 c 128,-1,8
 134 491 134 491 186.5 513 c 128,-1,9
 239 535 239 535 306 535 c 256,10,11
 373 535 373 535 425 513 c 128,-1,12
 477 491 477 491 513 453.5 c 128,-1,13
 549 416 549 416 567.5 367 c 128,-1,14
 586 318 586 318 586 264 c 0,15,16
 586 250 586 250 585 236.5 c 128,-1,17
 584 223 584 223 582 213 c 1,18,-1
 194 213 l 1,19,20
 198 160 198 160 232.5 132.5 c 128,-1,21
 267 105 267 105 311 105 c 0,22,23
 346 105 346 105 378.5 122 c 128,-1,24
 411 139 411 139 422 168 c 1,25,-1
 558 130 l 1,26,27
 527 68 527 68 462 29 c 128,-1,28
 397 -10 397 -10 306 -10 c 0,0,1
417 312 m 1,29,30
 412 362 412 362 381 391 c 128,-1,31
 350 420 350 420 304 420 c 0,32,33
 257 420 257 420 226.5 390.5 c 128,-1,34
 196 361 196 361 191 312 c 1,35,-1
 417 312 l 1,29,30
163 731 m 1,36,-1
 308 731 l 1,37,-1
 360 601 l 1,38,-1
 259 573 l 1,39,-1
 163 731 l 1,36,-1
EndSplineSet
EndChar

StartChar: eacute
Encoding: 233 233 172
Width: 604
GlyphClass: 2
Flags: W
LayerCount: 2
Fore
SplineSet
350 572 m 1,0,-1
 248 600 l 1,1,-1
 300 730 l 1,2,-1
 445 730 l 1,3,-1
 350 572 l 1,0,-1
306 -10 m 0,4,5
 240 -10 240 -10 187.5 11.5 c 128,-1,6
 135 33 135 33 98.5 70 c 128,-1,7
 62 107 62 107 43 155.5 c 128,-1,8
 24 204 24 204 24 257 c 0,9,10
 24 314 24 314 43 364.5 c 128,-1,11
 62 415 62 415 98 453 c 128,-1,12
 134 491 134 491 186.5 513 c 128,-1,13
 239 535 239 535 306 535 c 256,14,15
 373 535 373 535 425 513 c 128,-1,16
 477 491 477 491 513 453.5 c 128,-1,17
 549 416 549 416 567.5 367 c 128,-1,18
 586 318 586 318 586 264 c 0,19,20
 586 250 586 250 585 236.5 c 128,-1,21
 584 223 584 223 582 213 c 1,22,-1
 194 213 l 1,23,24
 198 160 198 160 232.5 132.5 c 128,-1,25
 267 105 267 105 311 105 c 0,26,27
 346 105 346 105 378.5 122 c 128,-1,28
 411 139 411 139 422 168 c 1,29,-1
 558 130 l 1,30,31
 527 68 527 68 462 29 c 128,-1,32
 397 -10 397 -10 306 -10 c 0,4,5
417 312 m 1,33,34
 412 362 412 362 381 391 c 128,-1,35
 350 420 350 420 304 420 c 0,36,37
 257 420 257 420 226.5 390.5 c 128,-1,38
 196 361 196 361 191 312 c 1,39,-1
 417 312 l 1,33,34
EndSplineSet
EndChar

StartChar: ecircumflex
Encoding: 234 234 173
Width: 604
GlyphClass: 2
Flags: W
LayerCount: 2
Fore
SplineSet
137 622 m 1,0,-1
 247 730 l 1,1,-1
 362 730 l 1,2,-1
 471 622 l 1,3,-1
 389 586 l 1,4,-1
 304 649 l 1,5,-1
 219 586 l 1,6,-1
 137 622 l 1,0,-1
306 -10 m 0,7,8
 240 -10 240 -10 187.5 11.5 c 128,-1,9
 135 33 135 33 98.5 70 c 128,-1,10
 62 107 62 107 43 155.5 c 128,-1,11
 24 204 24 204 24 257 c 0,12,13
 24 314 24 314 43 364.5 c 128,-1,14
 62 415 62 415 98 453 c 128,-1,15
 134 491 134 491 186.5 513 c 128,-1,16
 239 535 239 535 306 535 c 256,17,18
 373 535 373 535 425 513 c 128,-1,19
 477 491 477 491 513 453.5 c 128,-1,20
 549 416 549 416 567.5 367 c 128,-1,21
 586 318 586 318 586 264 c 0,22,23
 586 250 586 250 585 236.5 c 128,-1,24
 584 223 584 223 582 213 c 1,25,-1
 194 213 l 1,26,27
 198 160 198 160 232.5 132.5 c 128,-1,28
 267 105 267 105 311 105 c 0,29,30
 346 105 346 105 378.5 122 c 128,-1,31
 411 139 411 139 422 168 c 1,32,-1
 558 130 l 1,33,34
 527 68 527 68 462 29 c 128,-1,35
 397 -10 397 -10 306 -10 c 0,7,8
417 312 m 1,36,37
 412 362 412 362 381 391 c 128,-1,38
 350 420 350 420 304 420 c 0,39,40
 257 420 257 420 226.5 390.5 c 128,-1,41
 196 361 196 361 191 312 c 1,42,-1
 417 312 l 1,36,37
EndSplineSet
EndChar

StartChar: edieresis
Encoding: 235 235 174
Width: 604
GlyphClass: 2
Flags: W
LayerCount: 2
Fore
SplineSet
134 594 m 1,0,-1
 134 723 l 1,1,-1
 266 723 l 1,2,-1
 266 594 l 1,3,-1
 134 594 l 1,0,-1
344 594 m 1,4,-1
 344 723 l 1,5,-1
 476 723 l 1,6,-1
 476 594 l 1,7,-1
 344 594 l 1,4,-1
306 -10 m 0,8,9
 240 -10 240 -10 187.5 11.5 c 128,-1,10
 135 33 135 33 98.5 70 c 128,-1,11
 62 107 62 107 43 155.5 c 128,-1,12
 24 204 24 204 24 257 c 0,13,14
 24 314 24 314 43 364.5 c 128,-1,15
 62 415 62 415 98 453 c 128,-1,16
 134 491 134 491 186.5 513 c 128,-1,17
 239 535 239 535 306 535 c 256,18,19
 373 535 373 535 425 513 c 128,-1,20
 477 491 477 491 513 453.5 c 128,-1,21
 549 416 549 416 567.5 367 c 128,-1,22
 586 318 586 318 586 264 c 0,23,24
 586 250 586 250 585 236.5 c 128,-1,25
 584 223 584 223 582 213 c 1,26,-1
 194 213 l 1,27,28
 198 160 198 160 232.5 132.5 c 128,-1,29
 267 105 267 105 311 105 c 0,30,31
 346 105 346 105 378.5 122 c 128,-1,32
 411 139 411 139 422 168 c 1,33,-1
 558 130 l 1,34,35
 527 68 527 68 462 29 c 128,-1,36
 397 -10 397 -10 306 -10 c 0,8,9
417 312 m 1,37,38
 412 362 412 362 381 391 c 128,-1,39
 350 420 350 420 304 420 c 0,40,41
 257 420 257 420 226.5 390.5 c 128,-1,42
 196 361 196 361 191 312 c 1,43,-1
 417 312 l 1,37,38
EndSplineSet
EndChar

StartChar: igrave
Encoding: 236 236 175
Width: 270
GlyphClass: 2
Flags: W
LayerCount: 2
Fore
SplineSet
55 0 m 1,0,-1
 55 525 l 1,1,-1
 215 525 l 1,2,-1
 215 0 l 1,3,-1
 55 0 l 1,0,-1
-7 731 m 1,4,-1
 138 731 l 1,5,-1
 190 601 l 1,6,-1
 89 573 l 1,7,-1
 -7 731 l 1,4,-1
EndSplineSet
EndChar

StartChar: iacute
Encoding: 237 237 176
Width: 270
GlyphClass: 2
Flags: W
LayerCount: 2
Fore
SplineSet
180 572 m 1,0,-1
 78 600 l 1,1,-1
 130 730 l 1,2,-1
 275 730 l 1,3,-1
 180 572 l 1,0,-1
55 0 m 1,4,-1
 55 525 l 1,5,-1
 215 525 l 1,6,-1
 215 0 l 1,7,-1
 55 0 l 1,4,-1
EndSplineSet
EndChar

StartChar: icircumflex
Encoding: 238 238 177
Width: 270
GlyphClass: 2
Flags: W
LayerCount: 2
Fore
SplineSet
-32 622 m 1,0,-1
 78 730 l 1,1,-1
 193 730 l 1,2,-1
 302 622 l 1,3,-1
 220 586 l 1,4,-1
 135 649 l 1,5,-1
 50 586 l 1,6,-1
 -32 622 l 1,0,-1
55 0 m 1,7,-1
 55 525 l 1,8,-1
 215 525 l 1,9,-1
 215 0 l 1,10,-1
 55 0 l 1,7,-1
EndSplineSet
EndChar

StartChar: idieresis
Encoding: 239 239 178
Width: 270
GlyphClass: 2
Flags: W
LayerCount: 2
Fore
SplineSet
-36 594 m 1,0,-1
 -36 723 l 1,1,-1
 96 723 l 1,2,-1
 96 594 l 1,3,-1
 -36 594 l 1,0,-1
174 594 m 1,4,-1
 174 723 l 1,5,-1
 306 723 l 1,6,-1
 306 594 l 1,7,-1
 174 594 l 1,4,-1
55 0 m 1,8,-1
 55 525 l 1,9,-1
 215 525 l 1,10,-1
 215 0 l 1,11,-1
 55 0 l 1,8,-1
EndSplineSet
EndChar

StartChar: eth
Encoding: 240 240 179
Width: 617
GlyphClass: 2
Flags: W
LayerCount: 2
Fore
SplineSet
537 651 m 1,0,-1
 471 616 l 1,1,2
 528 547 528 547 558.5 461.5 c 128,-1,3
 589 376 589 376 589 291 c 0,4,5
 589 220 589 220 568.5 164.5 c 128,-1,6
 548 109 548 109 511 70 c 128,-1,7
 474 31 474 31 421.5 10.5 c 128,-1,8
 369 -10 369 -10 306 -10 c 0,9,10
 246 -10 246 -10 194.5 8.5 c 128,-1,11
 143 27 143 27 106 59.5 c 128,-1,12
 69 92 69 92 48 136.5 c 128,-1,13
 27 181 27 181 27 234 c 0,14,15
 27 283 27 283 45.5 326.5 c 128,-1,16
 64 370 64 370 96.5 402.5 c 128,-1,17
 129 435 129 435 172.5 453.5 c 128,-1,18
 216 472 216 472 267 472 c 0,19,20
 314 472 314 472 355 454.5 c 128,-1,21
 396 437 396 437 424 408 c 1,22,23
 404 492 404 492 349 562 c 1,24,-1
 264 516 l 1,25,-1
 219 577 l 1,26,-1
 296 618 l 1,27,28
 229 677 229 677 128 730 c 1,29,-1
 327 730 l 1,30,31
 375 707 375 707 417 671 c 1,32,-1
 493 712 l 1,33,-1
 537 651 l 1,0,-1
191 234 m 256,34,35
 191 186 191 186 223.5 155.5 c 128,-1,36
 256 125 256 125 307 125 c 0,37,38
 359 125 359 125 391.5 156.5 c 128,-1,39
 424 188 424 188 424 236 c 256,40,41
 424 284 424 284 391.5 314 c 128,-1,42
 359 344 359 344 308 344 c 256,43,44
 257 344 257 344 224 313 c 128,-1,45
 191 282 191 282 191 234 c 256,34,35
EndSplineSet
EndChar

StartChar: ntilde
Encoding: 241 241 180
Width: 612
GlyphClass: 2
Flags: W
LayerCount: 2
Fore
SplineSet
561 0 m 1,0,-1
 401 0 l 1,1,-1
 401 295 l 2,2,3
 401 347 401 347 381.5 370.5 c 128,-1,4
 362 394 362 394 330 394 c 0,5,6
 313 394 313 394 296 387 c 128,-1,7
 279 380 279 380 263 367.5 c 128,-1,8
 247 355 247 355 234.5 338 c 128,-1,9
 222 321 222 321 215 301 c 1,10,-1
 215 0 l 1,11,-1
 55 0 l 1,12,-1
 55 525 l 1,13,-1
 199 525 l 1,14,-1
 199 437 l 1,15,16
 228 484 228 484 281 509.5 c 128,-1,17
 334 535 334 535 403 535 c 0,18,19
 454 535 454 535 485 516.5 c 128,-1,20
 516 498 516 498 533 468.5 c 128,-1,21
 550 439 550 439 555.5 404 c 128,-1,22
 561 369 561 369 561 336 c 2,23,-1
 561 0 l 1,0,-1
388 588 m 0,24,25
 365 588 365 588 347.5 595 c 128,-1,26
 330 602 330 602 315 611 c 128,-1,27
 300 620 300 620 286 627 c 128,-1,28
 272 634 272 634 255 634 c 256,29,30
 238 634 238 634 229 627 c 128,-1,31
 220 620 220 620 215 611 c 128,-1,32
 210 602 210 602 209 594.5 c 128,-1,33
 208 587 208 587 208 586 c 2,34,-1
 122 586 l 1,35,36
 122 597 122 597 128.5 620.5 c 128,-1,37
 135 644 135 644 150 668 c 128,-1,38
 165 692 165 692 189.5 710 c 128,-1,39
 214 728 214 728 249 728 c 0,40,41
 273 728 273 728 290 720.5 c 128,-1,42
 307 713 307 713 321.5 704 c 128,-1,43
 336 695 336 695 350 687.5 c 128,-1,44
 364 680 364 680 382 680 c 0,45,46
 399 680 399 680 409.5 687.5 c 128,-1,47
 420 695 420 695 425.5 704 c 128,-1,48
 431 713 431 713 432.5 721 c 128,-1,49
 434 729 434 729 434 730 c 2,50,-1
 520 730 l 1,51,52
 520 722 520 722 513 699 c 128,-1,53
 506 676 506 676 490.5 651 c 128,-1,54
 475 626 475 626 450 607 c 128,-1,55
 425 588 425 588 388 588 c 0,24,25
EndSplineSet
EndChar

StartChar: ograve
Encoding: 242 242 181
Width: 610
GlyphClass: 2
Flags: W
LayerCount: 2
Fore
SplineSet
305 -10 m 256,0,1
 238 -10 238 -10 185.5 12 c 128,-1,2
 133 34 133 34 97 71.5 c 128,-1,3
 61 109 61 109 42.5 158.5 c 128,-1,4
 24 208 24 208 24 262 c 256,5,6
 24 316 24 316 42.5 365.5 c 128,-1,7
 61 415 61 415 97 452.5 c 128,-1,8
 133 490 133 490 185.5 512.5 c 128,-1,9
 238 535 238 535 305 535 c 256,10,11
 372 535 372 535 424 512.5 c 128,-1,12
 476 490 476 490 512 452.5 c 128,-1,13
 548 415 548 415 567 365.5 c 128,-1,14
 586 316 586 316 586 262 c 256,15,16
 586 208 586 208 567.5 158.5 c 128,-1,17
 549 109 549 109 513 71.5 c 128,-1,18
 477 34 477 34 424.5 12 c 128,-1,19
 372 -10 372 -10 305 -10 c 256,0,1
188 262 m 0,20,21
 188 200 188 200 221 162.5 c 128,-1,22
 254 125 254 125 305 125 c 0,23,24
 330 125 330 125 351 135 c 128,-1,25
 372 145 372 145 387.5 163 c 128,-1,26
 403 181 403 181 412 206.5 c 128,-1,27
 421 232 421 232 421 262 c 0,28,29
 421 324 421 324 388 361.5 c 128,-1,30
 355 399 355 399 305 399 c 0,31,32
 280 399 280 399 258.5 389 c 128,-1,33
 237 379 237 379 221.5 361 c 128,-1,34
 206 343 206 343 197 317.5 c 128,-1,35
 188 292 188 292 188 262 c 0,20,21
164 731 m 1,36,-1
 309 731 l 1,37,-1
 361 601 l 1,38,-1
 260 573 l 1,39,-1
 164 731 l 1,36,-1
EndSplineSet
EndChar

StartChar: oacute
Encoding: 243 243 182
Width: 610
GlyphClass: 2
Flags: W
LayerCount: 2
Fore
SplineSet
350 572 m 1,0,-1
 248 600 l 1,1,-1
 300 730 l 1,2,-1
 445 730 l 1,3,-1
 350 572 l 1,0,-1
305 -10 m 256,4,5
 238 -10 238 -10 185.5 12 c 128,-1,6
 133 34 133 34 97 71.5 c 128,-1,7
 61 109 61 109 42.5 158.5 c 128,-1,8
 24 208 24 208 24 262 c 256,9,10
 24 316 24 316 42.5 365.5 c 128,-1,11
 61 415 61 415 97 452.5 c 128,-1,12
 133 490 133 490 185.5 512.5 c 128,-1,13
 238 535 238 535 305 535 c 256,14,15
 372 535 372 535 424 512.5 c 128,-1,16
 476 490 476 490 512 452.5 c 128,-1,17
 548 415 548 415 567 365.5 c 128,-1,18
 586 316 586 316 586 262 c 256,19,20
 586 208 586 208 567.5 158.5 c 128,-1,21
 549 109 549 109 513 71.5 c 128,-1,22
 477 34 477 34 424.5 12 c 128,-1,23
 372 -10 372 -10 305 -10 c 256,4,5
188 262 m 0,24,25
 188 200 188 200 221 162.5 c 128,-1,26
 254 125 254 125 305 125 c 0,27,28
 330 125 330 125 351 135 c 128,-1,29
 372 145 372 145 387.5 163 c 128,-1,30
 403 181 403 181 412 206.5 c 128,-1,31
 421 232 421 232 421 262 c 0,32,33
 421 324 421 324 388 361.5 c 128,-1,34
 355 399 355 399 305 399 c 0,35,36
 280 399 280 399 258.5 389 c 128,-1,37
 237 379 237 379 221.5 361 c 128,-1,38
 206 343 206 343 197 317.5 c 128,-1,39
 188 292 188 292 188 262 c 0,24,25
EndSplineSet
EndChar

StartChar: ocircumflex
Encoding: 244 244 183
Width: 610
GlyphClass: 2
Flags: W
LayerCount: 2
Fore
SplineSet
137 622 m 1,0,-1
 247 730 l 1,1,-1
 362 730 l 1,2,-1
 471 622 l 1,3,-1
 389 586 l 1,4,-1
 304 649 l 1,5,-1
 219 586 l 1,6,-1
 137 622 l 1,0,-1
305 -10 m 256,7,8
 238 -10 238 -10 185.5 12 c 128,-1,9
 133 34 133 34 97 71.5 c 128,-1,10
 61 109 61 109 42.5 158.5 c 128,-1,11
 24 208 24 208 24 262 c 256,12,13
 24 316 24 316 42.5 365.5 c 128,-1,14
 61 415 61 415 97 452.5 c 128,-1,15
 133 490 133 490 185.5 512.5 c 128,-1,16
 238 535 238 535 305 535 c 256,17,18
 372 535 372 535 424 512.5 c 128,-1,19
 476 490 476 490 512 452.5 c 128,-1,20
 548 415 548 415 567 365.5 c 128,-1,21
 586 316 586 316 586 262 c 256,22,23
 586 208 586 208 567.5 158.5 c 128,-1,24
 549 109 549 109 513 71.5 c 128,-1,25
 477 34 477 34 424.5 12 c 128,-1,26
 372 -10 372 -10 305 -10 c 256,7,8
188 262 m 0,27,28
 188 200 188 200 221 162.5 c 128,-1,29
 254 125 254 125 305 125 c 0,30,31
 330 125 330 125 351 135 c 128,-1,32
 372 145 372 145 387.5 163 c 128,-1,33
 403 181 403 181 412 206.5 c 128,-1,34
 421 232 421 232 421 262 c 0,35,36
 421 324 421 324 388 361.5 c 128,-1,37
 355 399 355 399 305 399 c 0,38,39
 280 399 280 399 258.5 389 c 128,-1,40
 237 379 237 379 221.5 361 c 128,-1,41
 206 343 206 343 197 317.5 c 128,-1,42
 188 292 188 292 188 262 c 0,27,28
EndSplineSet
EndChar

StartChar: otilde
Encoding: 245 245 184
Width: 610
GlyphClass: 2
Flags: W
LayerCount: 2
Fore
SplineSet
305 -10 m 256,0,1
 238 -10 238 -10 185.5 12 c 128,-1,2
 133 34 133 34 97 71.5 c 128,-1,3
 61 109 61 109 42.5 158.5 c 128,-1,4
 24 208 24 208 24 262 c 256,5,6
 24 316 24 316 42.5 365.5 c 128,-1,7
 61 415 61 415 97 452.5 c 128,-1,8
 133 490 133 490 185.5 512.5 c 128,-1,9
 238 535 238 535 305 535 c 256,10,11
 372 535 372 535 424 512.5 c 128,-1,12
 476 490 476 490 512 452.5 c 128,-1,13
 548 415 548 415 567 365.5 c 128,-1,14
 586 316 586 316 586 262 c 256,15,16
 586 208 586 208 567.5 158.5 c 128,-1,17
 549 109 549 109 513 71.5 c 128,-1,18
 477 34 477 34 424.5 12 c 128,-1,19
 372 -10 372 -10 305 -10 c 256,0,1
188 262 m 0,20,21
 188 200 188 200 221 162.5 c 128,-1,22
 254 125 254 125 305 125 c 0,23,24
 330 125 330 125 351 135 c 128,-1,25
 372 145 372 145 387.5 163 c 128,-1,26
 403 181 403 181 412 206.5 c 128,-1,27
 421 232 421 232 421 262 c 0,28,29
 421 324 421 324 388 361.5 c 128,-1,30
 355 399 355 399 305 399 c 0,31,32
 280 399 280 399 258.5 389 c 128,-1,33
 237 379 237 379 221.5 361 c 128,-1,34
 206 343 206 343 197 317.5 c 128,-1,35
 188 292 188 292 188 262 c 0,20,21
368 588 m 0,36,37
 345 588 345 588 327.5 595 c 128,-1,38
 310 602 310 602 295 611 c 128,-1,39
 280 620 280 620 266 627 c 128,-1,40
 252 634 252 634 235 634 c 256,41,42
 218 634 218 634 209 627 c 128,-1,43
 200 620 200 620 195 611 c 128,-1,44
 190 602 190 602 189 594.5 c 128,-1,45
 188 587 188 587 188 586 c 2,46,-1
 102 586 l 1,47,48
 102 597 102 597 108.5 620.5 c 128,-1,49
 115 644 115 644 130 668 c 128,-1,50
 145 692 145 692 169.5 710 c 128,-1,51
 194 728 194 728 229 728 c 0,52,53
 253 728 253 728 270 720.5 c 128,-1,54
 287 713 287 713 301.5 704 c 128,-1,55
 316 695 316 695 330 687.5 c 128,-1,56
 344 680 344 680 362 680 c 0,57,58
 379 680 379 680 389.5 687.5 c 128,-1,59
 400 695 400 695 405.5 704 c 128,-1,60
 411 713 411 713 412.5 721 c 128,-1,61
 414 729 414 729 414 730 c 2,62,-1
 500 730 l 1,63,64
 500 722 500 722 493 699 c 128,-1,65
 486 676 486 676 470.5 651 c 128,-1,66
 455 626 455 626 430 607 c 128,-1,67
 405 588 405 588 368 588 c 0,36,37
EndSplineSet
EndChar

StartChar: odieresis
Encoding: 246 246 185
Width: 610
GlyphClass: 2
Flags: W
LayerCount: 2
Fore
SplineSet
134 594 m 1,0,-1
 134 723 l 1,1,-1
 266 723 l 1,2,-1
 266 594 l 1,3,-1
 134 594 l 1,0,-1
344 594 m 1,4,-1
 344 723 l 1,5,-1
 476 723 l 1,6,-1
 476 594 l 1,7,-1
 344 594 l 1,4,-1
305 -10 m 256,8,9
 238 -10 238 -10 185.5 12 c 128,-1,10
 133 34 133 34 97 71.5 c 128,-1,11
 61 109 61 109 42.5 158.5 c 128,-1,12
 24 208 24 208 24 262 c 256,13,14
 24 316 24 316 42.5 365.5 c 128,-1,15
 61 415 61 415 97 452.5 c 128,-1,16
 133 490 133 490 185.5 512.5 c 128,-1,17
 238 535 238 535 305 535 c 256,18,19
 372 535 372 535 424 512.5 c 128,-1,20
 476 490 476 490 512 452.5 c 128,-1,21
 548 415 548 415 567 365.5 c 128,-1,22
 586 316 586 316 586 262 c 256,23,24
 586 208 586 208 567.5 158.5 c 128,-1,25
 549 109 549 109 513 71.5 c 128,-1,26
 477 34 477 34 424.5 12 c 128,-1,27
 372 -10 372 -10 305 -10 c 256,8,9
188 262 m 0,28,29
 188 200 188 200 221 162.5 c 128,-1,30
 254 125 254 125 305 125 c 0,31,32
 330 125 330 125 351 135 c 128,-1,33
 372 145 372 145 387.5 163 c 128,-1,34
 403 181 403 181 412 206.5 c 128,-1,35
 421 232 421 232 421 262 c 0,36,37
 421 324 421 324 388 361.5 c 128,-1,38
 355 399 355 399 305 399 c 0,39,40
 280 399 280 399 258.5 389 c 128,-1,41
 237 379 237 379 221.5 361 c 128,-1,42
 206 343 206 343 197 317.5 c 128,-1,43
 188 292 188 292 188 262 c 0,28,29
EndSplineSet
EndChar

StartChar: divide
Encoding: 247 247 186
Width: 499
GlyphClass: 2
Flags: W
LayerCount: 2
Fore
SplineSet
183 426 m 1,0,-1
 183 569 l 1,1,-1
 317 569 l 1,2,-1
 317 426 l 1,3,-1
 183 426 l 1,0,-1
183 38 m 1,4,-1
 183 181 l 1,5,-1
 317 181 l 1,6,-1
 317 38 l 1,7,-1
 183 38 l 1,4,-1
48 240 m 1,8,-1
 48 367 l 1,9,-1
 452 367 l 1,10,-1
 452 240 l 1,11,-1
 48 240 l 1,8,-1
EndSplineSet
EndChar

StartChar: oslash
Encoding: 248 248 187
Width: 610
GlyphClass: 2
Flags: W
LayerCount: 2
Fore
SplineSet
33 -5 m 1,0,-1
 98 70 l 1,1,2
 62 108 62 108 43 157.5 c 128,-1,3
 24 207 24 207 24 262 c 0,4,5
 24 316 24 316 42.5 365.5 c 128,-1,6
 61 415 61 415 97 452.5 c 128,-1,7
 133 490 133 490 185.5 512.5 c 128,-1,8
 238 535 238 535 305 535 c 0,9,10
 349 535 349 535 386 525 c 128,-1,11
 423 515 423 515 454 498 c 1,12,-1
 481 530 l 1,13,-1
 569 530 l 1,14,-1
 507 458 l 1,15,16
 545 420 545 420 565.5 369.5 c 128,-1,17
 586 319 586 319 586 262 c 0,18,19
 586 208 586 208 567.5 158.5 c 128,-1,20
 549 109 549 109 513 71.5 c 128,-1,21
 477 34 477 34 424.5 12 c 128,-1,22
 372 -10 372 -10 305 -10 c 0,23,24
 215 -10 215 -10 150 30 c 1,25,-1
 120 -5 l 1,26,-1
 33 -5 l 1,0,-1
305 125 m 0,27,28
 330 125 330 125 351 135 c 128,-1,29
 372 145 372 145 387.5 163 c 128,-1,30
 403 181 403 181 412 206.5 c 128,-1,31
 421 232 421 232 421 262 c 0,32,33
 421 306 421 306 402 339 c 1,34,-1
 243 143 l 1,35,36
 268 125 268 125 305 125 c 0,27,28
188 262 m 0,37,38
 188 219 188 219 204 188 c 1,39,-1
 362 383 l 1,40,41
 335 399 335 399 305 399 c 0,42,43
 280 399 280 399 258.5 389 c 128,-1,44
 237 379 237 379 221.5 361 c 128,-1,45
 206 343 206 343 197 317.5 c 128,-1,46
 188 292 188 292 188 262 c 0,37,38
EndSplineSet
EndChar

StartChar: ugrave
Encoding: 249 249 188
Width: 627
GlyphClass: 2
Flags: W
LayerCount: 2
Fore
SplineSet
214 -10 m 0,0,1
 133 -10 133 -10 91.5 40.5 c 128,-1,2
 50 91 50 91 50 189 c 2,3,-1
 50 525 l 1,4,-1
 210 525 l 1,5,-1
 210 224 l 2,6,7
 210 176 210 176 229 150.5 c 128,-1,8
 248 125 248 125 283 125 c 0,9,10
 315 125 315 125 345 142 c 128,-1,11
 375 159 375 159 398 201 c 1,12,-1
 398 525 l 1,13,-1
 558 525 l 1,14,-1
 558 180 l 2,15,16
 558 156 558 156 565.5 146.5 c 128,-1,17
 573 137 573 137 592 135 c 1,18,-1
 592 0 l 1,19,20
 569 -5 569 -5 553 -6.5 c 128,-1,21
 537 -8 537 -8 524 -8 c 0,22,23
 438 -8 438 -8 426 59 c 1,24,-1
 423 91 l 1,25,26
 387 39 387 39 333.5 14.5 c 128,-1,27
 280 -10 280 -10 214 -10 c 0,0,1
163 731 m 1,28,-1
 308 731 l 1,29,-1
 360 601 l 1,30,-1
 259 573 l 1,31,-1
 163 731 l 1,28,-1
EndSplineSet
EndChar

StartChar: uacute
Encoding: 250 250 189
Width: 627
GlyphClass: 2
Flags: W
LayerCount: 2
Fore
SplineSet
350 572 m 1,0,-1
 248 600 l 1,1,-1
 300 730 l 1,2,-1
 445 730 l 1,3,-1
 350 572 l 1,0,-1
214 -10 m 0,4,5
 133 -10 133 -10 91.5 40.5 c 128,-1,6
 50 91 50 91 50 189 c 2,7,-1
 50 525 l 1,8,-1
 210 525 l 1,9,-1
 210 224 l 2,10,11
 210 176 210 176 229 150.5 c 128,-1,12
 248 125 248 125 283 125 c 0,13,14
 315 125 315 125 345 142 c 128,-1,15
 375 159 375 159 398 201 c 1,16,-1
 398 525 l 1,17,-1
 558 525 l 1,18,-1
 558 180 l 2,19,20
 558 156 558 156 565.5 146.5 c 128,-1,21
 573 137 573 137 592 135 c 1,22,-1
 592 0 l 1,23,24
 569 -5 569 -5 553 -6.5 c 128,-1,25
 537 -8 537 -8 524 -8 c 0,26,27
 438 -8 438 -8 426 59 c 1,28,-1
 423 91 l 1,29,30
 387 39 387 39 333.5 14.5 c 128,-1,31
 280 -10 280 -10 214 -10 c 0,4,5
EndSplineSet
EndChar

StartChar: ucircumflex
Encoding: 251 251 190
Width: 627
GlyphClass: 2
Flags: W
LayerCount: 2
Fore
SplineSet
137 622 m 1,0,-1
 247 730 l 1,1,-1
 362 730 l 1,2,-1
 471 622 l 1,3,-1
 389 586 l 1,4,-1
 304 649 l 1,5,-1
 219 586 l 1,6,-1
 137 622 l 1,0,-1
214 -10 m 0,7,8
 133 -10 133 -10 91.5 40.5 c 128,-1,9
 50 91 50 91 50 189 c 2,10,-1
 50 525 l 1,11,-1
 210 525 l 1,12,-1
 210 224 l 2,13,14
 210 176 210 176 229 150.5 c 128,-1,15
 248 125 248 125 283 125 c 0,16,17
 315 125 315 125 345 142 c 128,-1,18
 375 159 375 159 398 201 c 1,19,-1
 398 525 l 1,20,-1
 558 525 l 1,21,-1
 558 180 l 2,22,23
 558 156 558 156 565.5 146.5 c 128,-1,24
 573 137 573 137 592 135 c 1,25,-1
 592 0 l 1,26,27
 569 -5 569 -5 553 -6.5 c 128,-1,28
 537 -8 537 -8 524 -8 c 0,29,30
 438 -8 438 -8 426 59 c 1,31,-1
 423 91 l 1,32,33
 387 39 387 39 333.5 14.5 c 128,-1,34
 280 -10 280 -10 214 -10 c 0,7,8
EndSplineSet
EndChar

StartChar: udieresis
Encoding: 252 252 191
Width: 627
GlyphClass: 2
Flags: W
LayerCount: 2
Fore
SplineSet
133 594 m 1,0,-1
 133 723 l 1,1,-1
 265 723 l 1,2,-1
 265 594 l 1,3,-1
 133 594 l 1,0,-1
343 594 m 1,4,-1
 343 723 l 1,5,-1
 475 723 l 1,6,-1
 475 594 l 1,7,-1
 343 594 l 1,4,-1
214 -10 m 0,8,9
 133 -10 133 -10 91.5 40.5 c 128,-1,10
 50 91 50 91 50 189 c 2,11,-1
 50 525 l 1,12,-1
 210 525 l 1,13,-1
 210 224 l 2,14,15
 210 176 210 176 229 150.5 c 128,-1,16
 248 125 248 125 283 125 c 0,17,18
 315 125 315 125 345 142 c 128,-1,19
 375 159 375 159 398 201 c 1,20,-1
 398 525 l 1,21,-1
 558 525 l 1,22,-1
 558 180 l 2,23,24
 558 156 558 156 565.5 146.5 c 128,-1,25
 573 137 573 137 592 135 c 1,26,-1
 592 0 l 1,27,28
 569 -5 569 -5 553 -6.5 c 128,-1,29
 537 -8 537 -8 524 -8 c 0,30,31
 438 -8 438 -8 426 59 c 1,32,-1
 423 91 l 1,33,34
 387 39 387 39 333.5 14.5 c 128,-1,35
 280 -10 280 -10 214 -10 c 0,8,9
EndSplineSet
EndChar

StartChar: yacute
Encoding: 253 253 192
Width: 552
GlyphClass: 2
Flags: W
LayerCount: 2
Fore
SplineSet
59 -79 m 1,0,1
 79 -86 79 -86 96.5 -89 c 128,-1,2
 114 -92 114 -92 128 -92 c 0,3,4
 157 -92 157 -92 173 -72 c 128,-1,5
 189 -52 189 -52 202 0 c 1,6,-1
 2 525 l 1,7,-1
 167 525 l 1,8,-1
 289 137 l 1,9,-1
 394 525 l 1,10,-1
 544 525 l 1,11,-1
 344 -85 l 2,12,13
 323 -150 323 -150 269 -190.5 c 128,-1,14
 215 -231 215 -231 141 -231 c 0,15,16
 121 -231 121 -231 100.5 -227.5 c 128,-1,17
 80 -224 80 -224 59 -216 c 1,18,-1
 59 -79 l 1,0,1
335 572 m 1,19,-1
 233 600 l 1,20,-1
 285 730 l 1,21,-1
 430 730 l 1,22,-1
 335 572 l 1,19,-1
EndSplineSet
EndChar

StartChar: thorn
Encoding: 254 254 193
Width: 600
GlyphClass: 2
Flags: W
LayerCount: 2
Fore
SplineSet
577 256 m 0,0,1
 577 200 577 200 556 148.5 c 128,-1,2
 535 97 535 97 498.5 58 c 128,-1,3
 462 19 462 19 413.5 -4 c 128,-1,4
 365 -27 365 -27 311 -27 c 0,5,6
 269 -27 269 -27 246.5 -14.5 c 128,-1,7
 224 -2 224 -2 219 8 c 1,8,-1
 219 -213 l 1,9,-1
 55 -213 l 1,10,-1
 55 710 l 1,11,-1
 219 710 l 1,12,-1
 219 503 l 1,13,14
 226 513 226 513 249 527 c 128,-1,15
 272 541 272 541 319 541 c 0,16,17
 378 541 378 541 426 515.5 c 128,-1,18
 474 490 474 490 507.5 449.5 c 128,-1,19
 541 409 541 409 559 358 c 128,-1,20
 577 307 577 307 577 256 c 0,0,1
413 259 m 0,21,22
 413 287 413 287 406 312.5 c 128,-1,23
 399 338 399 338 385.5 357 c 128,-1,24
 372 376 372 376 353 387 c 128,-1,25
 334 398 334 398 309 398 c 0,26,27
 277 398 277 398 255.5 379.5 c 128,-1,28
 234 361 234 361 219 332 c 1,29,-1
 219 177 l 2,30,31
 219 168 219 168 226.5 157 c 128,-1,32
 234 146 234 146 246.5 137 c 128,-1,33
 259 128 259 128 274.5 122 c 128,-1,34
 290 116 290 116 306 116 c 0,35,36
 329 116 329 116 348.5 127 c 128,-1,37
 368 138 368 138 382.5 157 c 128,-1,38
 397 176 397 176 405 202.5 c 128,-1,39
 413 229 413 229 413 259 c 0,21,22
EndSplineSet
EndChar

StartChar: ydieresis
Encoding: 255 255 194
Width: 552
GlyphClass: 2
Flags: W
LayerCount: 2
Fore
SplineSet
59 -79 m 1,0,1
 79 -86 79 -86 96.5 -89 c 128,-1,2
 114 -92 114 -92 128 -92 c 0,3,4
 157 -92 157 -92 173 -72 c 128,-1,5
 189 -52 189 -52 202 0 c 1,6,-1
 2 525 l 1,7,-1
 167 525 l 1,8,-1
 289 137 l 1,9,-1
 394 525 l 1,10,-1
 544 525 l 1,11,-1
 344 -85 l 2,12,13
 323 -150 323 -150 269 -190.5 c 128,-1,14
 215 -231 215 -231 141 -231 c 0,15,16
 121 -231 121 -231 100.5 -227.5 c 128,-1,17
 80 -224 80 -224 59 -216 c 1,18,-1
 59 -79 l 1,0,1
119 594 m 1,19,-1
 119 723 l 1,20,-1
 251 723 l 1,21,-1
 251 594 l 1,22,-1
 119 594 l 1,19,-1
329 594 m 1,23,-1
 329 723 l 1,24,-1
 461 723 l 1,25,-1
 461 594 l 1,26,-1
 329 594 l 1,23,-1
EndSplineSet
EndChar

StartChar: Amacron
Encoding: 256 256 195
Width: 670
GlyphClass: 2
Flags: W
LayerCount: 2
Fore
SplineSet
261 710 m 1,0,-1
 409 710 l 1,1,-1
 668 0 l 1,2,-1
 500 0 l 1,3,-1
 445 159 l 1,4,-1
 224 159 l 1,5,-1
 170 0 l 1,6,-1
 2 0 l 1,7,-1
 261 710 l 1,0,-1
418 272 m 1,8,-1
 335 523 l 1,9,-1
 250 272 l 1,10,-1
 418 272 l 1,8,-1
184 806 m 1,11,-1
 184 903 l 1,12,-1
 488 903 l 1,13,-1
 488 806 l 1,14,-1
 184 806 l 1,11,-1
EndSplineSet
EndChar

StartChar: amacron
Encoding: 257 257 196
Width: 586
GlyphClass: 2
Flags: W
LayerCount: 2
Fore
SplineSet
204 -10 m 0,0,1
 165 -10 165 -10 131.5 2.5 c 128,-1,2
 98 15 98 15 74 37.5 c 128,-1,3
 50 60 50 60 36 90.5 c 128,-1,4
 22 121 22 121 22 157 c 0,5,6
 22 196 22 196 38.5 228 c 128,-1,7
 55 260 55 260 85 283 c 128,-1,8
 115 306 115 306 156 319 c 128,-1,9
 197 332 197 332 247 332 c 0,10,11
 280 332 280 332 311 326.5 c 128,-1,12
 342 321 342 321 365 310 c 1,13,-1
 365 334 l 2,14,15
 365 425 365 425 260 425 c 0,16,17
 217 425 217 425 178 410.5 c 128,-1,18
 139 396 139 396 96 367 c 1,19,-1
 49 467 l 1,20,21
 101 501 101 501 157 518 c 128,-1,22
 213 535 213 535 276 535 c 0,23,24
 395 535 395 535 460 479 c 128,-1,25
 525 423 525 423 525 315 c 2,26,-1
 525 180 l 2,27,28
 525 156 525 156 532.5 146.5 c 128,-1,29
 540 137 540 137 559 135 c 1,30,-1
 559 0 l 1,31,32
 538 -5 538 -5 521 -6.5 c 128,-1,33
 504 -8 504 -8 490 -8 c 0,34,35
 445 -8 445 -8 422 9.5 c 128,-1,36
 399 27 399 27 393 59 c 2,37,-1
 390 83 l 1,38,39
 355 38 355 38 306.5 14 c 128,-1,40
 258 -10 258 -10 204 -10 c 0,0,1
251 105 m 0,41,42
 277 105 277 105 301.5 114 c 128,-1,43
 326 123 326 123 342 138 c 0,44,45
 365 156 365 156 365 176 c 2,46,-1
 365 226 l 1,47,48
 344 234 344 234 319.5 238.5 c 128,-1,49
 295 243 295 243 274 243 c 0,50,51
 230 243 230 243 201.5 223 c 128,-1,52
 173 203 173 203 173 171 c 0,53,54
 173 142 173 142 195 123.5 c 128,-1,55
 217 105 217 105 251 105 c 0,41,42
125 621 m 1,56,-1
 125 718 l 1,57,-1
 429 718 l 1,58,-1
 429 621 l 1,59,-1
 125 621 l 1,56,-1
EndSplineSet
EndChar

StartChar: Abreve
Encoding: 258 258 197
Width: 670
GlyphClass: 2
Flags: W
LayerCount: 2
Fore
SplineSet
261 710 m 1,0,-1
 409 710 l 1,1,-1
 668 0 l 1,2,-1
 500 0 l 1,3,-1
 445 159 l 1,4,-1
 224 159 l 1,5,-1
 170 0 l 1,6,-1
 2 0 l 1,7,-1
 261 710 l 1,0,-1
418 272 m 1,8,-1
 335 523 l 1,9,-1
 250 272 l 1,10,-1
 418 272 l 1,8,-1
335 838 m 0,11,12
 358 838 358 838 375.5 859.5 c 128,-1,13
 393 881 393 881 396 915 c 1,14,-1
 479 915 l 1,15,16
 479 883 479 883 468.5 856 c 128,-1,17
 458 829 458 829 439 809.5 c 128,-1,18
 420 790 420 790 393.5 779 c 128,-1,19
 367 768 367 768 335 768 c 256,20,21
 303 768 303 768 277 779 c 128,-1,22
 251 790 251 790 231.5 809.5 c 128,-1,23
 212 829 212 829 201.5 856 c 128,-1,24
 191 883 191 883 191 915 c 1,25,-1
 276 915 l 1,26,27
 276 883 276 883 293.5 860.5 c 128,-1,28
 311 838 311 838 335 838 c 0,11,12
EndSplineSet
EndChar

StartChar: abreve
Encoding: 259 259 198
Width: 586
GlyphClass: 2
Flags: W
LayerCount: 2
Fore
SplineSet
204 -10 m 0,0,1
 165 -10 165 -10 131.5 2.5 c 128,-1,2
 98 15 98 15 74 37.5 c 128,-1,3
 50 60 50 60 36 90.5 c 128,-1,4
 22 121 22 121 22 157 c 0,5,6
 22 196 22 196 38.5 228 c 128,-1,7
 55 260 55 260 85 283 c 128,-1,8
 115 306 115 306 156 319 c 128,-1,9
 197 332 197 332 247 332 c 0,10,11
 280 332 280 332 311 326.5 c 128,-1,12
 342 321 342 321 365 310 c 1,13,-1
 365 334 l 2,14,15
 365 425 365 425 260 425 c 0,16,17
 217 425 217 425 178 410.5 c 128,-1,18
 139 396 139 396 96 367 c 1,19,-1
 49 467 l 1,20,21
 101 501 101 501 157 518 c 128,-1,22
 213 535 213 535 276 535 c 0,23,24
 395 535 395 535 460 479 c 128,-1,25
 525 423 525 423 525 315 c 2,26,-1
 525 180 l 2,27,28
 525 156 525 156 532.5 146.5 c 128,-1,29
 540 137 540 137 559 135 c 1,30,-1
 559 0 l 1,31,32
 538 -5 538 -5 521 -6.5 c 128,-1,33
 504 -8 504 -8 490 -8 c 0,34,35
 445 -8 445 -8 422 9.5 c 128,-1,36
 399 27 399 27 393 59 c 2,37,-1
 390 83 l 1,38,39
 355 38 355 38 306.5 14 c 128,-1,40
 258 -10 258 -10 204 -10 c 0,0,1
251 105 m 0,41,42
 277 105 277 105 301.5 114 c 128,-1,43
 326 123 326 123 342 138 c 0,44,45
 365 156 365 156 365 176 c 2,46,-1
 365 226 l 1,47,48
 344 234 344 234 319.5 238.5 c 128,-1,49
 295 243 295 243 274 243 c 0,50,51
 230 243 230 243 201.5 223 c 128,-1,52
 173 203 173 203 173 171 c 0,53,54
 173 142 173 142 195 123.5 c 128,-1,55
 217 105 217 105 251 105 c 0,41,42
275 653 m 0,56,57
 298 653 298 653 315.5 674.5 c 128,-1,58
 333 696 333 696 336 730 c 1,59,-1
 419 730 l 1,60,61
 419 698 419 698 408.5 671 c 128,-1,62
 398 644 398 644 379 624.5 c 128,-1,63
 360 605 360 605 333.5 594 c 128,-1,64
 307 583 307 583 275 583 c 256,65,66
 243 583 243 583 217 594 c 128,-1,67
 191 605 191 605 171.5 624.5 c 128,-1,68
 152 644 152 644 141.5 671 c 128,-1,69
 131 698 131 698 131 730 c 1,70,-1
 216 730 l 1,71,72
 216 698 216 698 233.5 675.5 c 128,-1,73
 251 653 251 653 275 653 c 0,56,57
EndSplineSet
EndChar

StartChar: Aogonek
Encoding: 260 260 199
Width: 679
GlyphClass: 2
Flags: W
LayerCount: 2
Fore
SplineSet
627 -205 m 1,0,1
 560 -197 560 -197 527.5 -171 c 128,-1,2
 495 -145 495 -145 495 -112 c 0,3,4
 495 -83 495 -83 516 -54.5 c 128,-1,5
 537 -26 537 -26 579 0 c 1,6,-1
 500 0 l 1,7,-1
 445 159 l 1,8,-1
 224 159 l 1,9,-1
 170 0 l 1,10,-1
 2 0 l 1,11,-1
 261 710 l 1,12,-1
 409 710 l 1,13,-1
 668 0 l 1,14,15
 593 -45 593 -45 593 -82 c 0,16,17
 593 -99 593 -99 609 -109.5 c 128,-1,18
 625 -120 625 -120 658 -121 c 1,19,-1
 627 -205 l 1,0,1
418 272 m 1,20,-1
 335 523 l 1,21,-1
 250 272 l 1,22,-1
 418 272 l 1,20,-1
EndSplineSet
EndChar

StartChar: aogonek
Encoding: 261 261 200
Width: 586
GlyphClass: 2
Flags: W
LayerCount: 2
Fore
SplineSet
518 -205 m 1,0,1
 451 -197 451 -197 418.5 -171 c 128,-1,2
 386 -145 386 -145 386 -112 c 0,3,4
 386 -56 386 -56 461 -6 c 1,5,6
 402 4 402 4 393 59 c 2,7,-1
 390 83 l 1,8,9
 355 38 355 38 306.5 14 c 128,-1,10
 258 -10 258 -10 204 -10 c 0,11,12
 165 -10 165 -10 131.5 2.5 c 128,-1,13
 98 15 98 15 74 37.5 c 128,-1,14
 50 60 50 60 36 90.5 c 128,-1,15
 22 121 22 121 22 157 c 0,16,17
 22 196 22 196 38.5 228 c 128,-1,18
 55 260 55 260 85 283 c 128,-1,19
 115 306 115 306 156 319 c 128,-1,20
 197 332 197 332 247 332 c 0,21,22
 280 332 280 332 311 326.5 c 128,-1,23
 342 321 342 321 365 310 c 1,24,-1
 365 334 l 2,25,26
 365 425 365 425 260 425 c 0,27,28
 217 425 217 425 178 410.5 c 128,-1,29
 139 396 139 396 96 367 c 1,30,-1
 49 467 l 1,31,32
 101 501 101 501 157 518 c 128,-1,33
 213 535 213 535 276 535 c 0,34,35
 395 535 395 535 460 479 c 128,-1,36
 525 423 525 423 525 315 c 2,37,-1
 525 180 l 2,38,39
 525 156 525 156 532.5 146.5 c 128,-1,40
 540 137 540 137 559 135 c 1,41,-1
 559 0 l 1,42,43
 484 -45 484 -45 484 -82 c 0,44,45
 484 -99 484 -99 500 -109.5 c 128,-1,46
 516 -120 516 -120 549 -121 c 1,47,-1
 518 -205 l 1,0,1
251 105 m 0,48,49
 277 105 277 105 301.5 114 c 128,-1,50
 326 123 326 123 342 138 c 0,51,52
 365 156 365 156 365 176 c 2,53,-1
 365 226 l 1,54,55
 344 234 344 234 319.5 238.5 c 128,-1,56
 295 243 295 243 274 243 c 0,57,58
 230 243 230 243 201.5 223 c 128,-1,59
 173 203 173 203 173 171 c 0,60,61
 173 142 173 142 195 123.5 c 128,-1,62
 217 105 217 105 251 105 c 0,48,49
EndSplineSet
EndChar

StartChar: Cacute
Encoding: 262 262 201
Width: 688
GlyphClass: 2
Flags: W
LayerCount: 2
Fore
SplineSet
432 757 m 1,0,-1
 330 785 l 1,1,-1
 382 915 l 1,2,-1
 527 915 l 1,3,-1
 432 757 l 1,0,-1
27 361 m 0,4,5
 27 425 27 425 51 488.5 c 128,-1,6
 75 552 75 552 121 602 c 128,-1,7
 167 652 167 652 233 683 c 128,-1,8
 299 714 299 714 383 714 c 0,9,10
 483 714 483 714 556.5 671 c 128,-1,11
 630 628 630 628 666 559 c 1,12,-1
 540 471 l 1,13,14
 528 499 528 499 509.5 517.5 c 128,-1,15
 491 536 491 536 469 547.5 c 128,-1,16
 447 559 447 559 424 563.5 c 128,-1,17
 401 568 401 568 379 568 c 0,18,19
 332 568 332 568 297 549 c 128,-1,20
 262 530 262 530 239 500 c 128,-1,21
 216 470 216 470 205 432 c 128,-1,22
 194 394 194 394 194 355 c 0,23,24
 194 313 194 313 207 274 c 128,-1,25
 220 235 220 235 244.5 205 c 128,-1,26
 269 175 269 175 303.5 157.5 c 128,-1,27
 338 140 338 140 381 140 c 0,28,29
 403 140 403 140 426.5 145.5 c 128,-1,30
 450 151 450 151 471.5 162.5 c 128,-1,31
 493 174 493 174 511 192.5 c 128,-1,32
 529 211 529 211 540 238 c 1,33,-1
 674 159 l 1,34,35
 658 120 658 120 626.5 89 c 128,-1,36
 595 58 595 58 554 37 c 128,-1,37
 513 16 513 16 467 5 c 128,-1,38
 421 -6 421 -6 377 -6 c 0,39,40
 300 -6 300 -6 235.5 25.5 c 128,-1,41
 171 57 171 57 124.5 109 c 128,-1,42
 78 161 78 161 52.5 227 c 128,-1,43
 27 293 27 293 27 361 c 0,4,5
EndSplineSet
EndChar

StartChar: cacute
Encoding: 263 263 202
Width: 570
GlyphClass: 2
Flags: W
LayerCount: 2
Fore
SplineSet
351 572 m 1,0,-1
 249 600 l 1,1,-1
 301 730 l 1,2,-1
 446 730 l 1,3,-1
 351 572 l 1,0,-1
24 263 m 256,4,5
 24 317 24 317 43 366.5 c 128,-1,6
 62 416 62 416 98 453.5 c 128,-1,7
 134 491 134 491 186.5 513 c 128,-1,8
 239 535 239 535 306 535 c 0,9,10
 397 535 397 535 459 496.5 c 128,-1,11
 521 458 521 458 552 396 c 1,12,-1
 396 349 l 1,13,14
 365 399 365 399 305 399 c 0,15,16
 255 399 255 399 221.5 362 c 128,-1,17
 188 325 188 325 188 263 c 0,18,19
 188 232 188 232 197 206.5 c 128,-1,20
 206 181 206 181 222 163 c 128,-1,21
 238 145 238 145 259.5 135 c 128,-1,22
 281 125 281 125 305 125 c 0,23,24
 335 125 335 125 360 139.5 c 128,-1,25
 385 154 385 154 397 177 c 1,26,-1
 553 129 l 1,27,28
 524 68 524 68 460.5 29 c 128,-1,29
 397 -10 397 -10 306 -10 c 0,30,31
 240 -10 240 -10 187.5 12.5 c 128,-1,32
 135 35 135 35 98.5 72.5 c 128,-1,33
 62 110 62 110 43 159.5 c 128,-1,34
 24 209 24 209 24 263 c 256,4,5
EndSplineSet
EndChar

StartChar: Ccircumflex
Encoding: 264 264 203
Width: 688
GlyphClass: 2
Flags: W
LayerCount: 2
Fore
SplineSet
213 807 m 1,0,-1
 323 915 l 1,1,-1
 438 915 l 1,2,-1
 547 807 l 1,3,-1
 465 771 l 1,4,-1
 380 834 l 1,5,-1
 295 771 l 1,6,-1
 213 807 l 1,0,-1
27 361 m 0,7,8
 27 425 27 425 51 488.5 c 128,-1,9
 75 552 75 552 121 602 c 128,-1,10
 167 652 167 652 233 683 c 128,-1,11
 299 714 299 714 383 714 c 0,12,13
 483 714 483 714 556.5 671 c 128,-1,14
 630 628 630 628 666 559 c 1,15,-1
 540 471 l 1,16,17
 528 499 528 499 509.5 517.5 c 128,-1,18
 491 536 491 536 469 547.5 c 128,-1,19
 447 559 447 559 424 563.5 c 128,-1,20
 401 568 401 568 379 568 c 0,21,22
 332 568 332 568 297 549 c 128,-1,23
 262 530 262 530 239 500 c 128,-1,24
 216 470 216 470 205 432 c 128,-1,25
 194 394 194 394 194 355 c 0,26,27
 194 313 194 313 207 274 c 128,-1,28
 220 235 220 235 244.5 205 c 128,-1,29
 269 175 269 175 303.5 157.5 c 128,-1,30
 338 140 338 140 381 140 c 0,31,32
 403 140 403 140 426.5 145.5 c 128,-1,33
 450 151 450 151 471.5 162.5 c 128,-1,34
 493 174 493 174 511 192.5 c 128,-1,35
 529 211 529 211 540 238 c 1,36,-1
 674 159 l 1,37,38
 658 120 658 120 626.5 89 c 128,-1,39
 595 58 595 58 554 37 c 128,-1,40
 513 16 513 16 467 5 c 128,-1,41
 421 -6 421 -6 377 -6 c 0,42,43
 300 -6 300 -6 235.5 25.5 c 128,-1,44
 171 57 171 57 124.5 109 c 128,-1,45
 78 161 78 161 52.5 227 c 128,-1,46
 27 293 27 293 27 361 c 0,7,8
EndSplineSet
EndChar

StartChar: ccircumflex
Encoding: 265 265 204
Width: 570
GlyphClass: 2
Flags: W
LayerCount: 2
Fore
SplineSet
138 622 m 1,0,-1
 248 730 l 1,1,-1
 363 730 l 1,2,-1
 472 622 l 1,3,-1
 390 586 l 1,4,-1
 305 649 l 1,5,-1
 220 586 l 1,6,-1
 138 622 l 1,0,-1
24 263 m 256,7,8
 24 317 24 317 43 366.5 c 128,-1,9
 62 416 62 416 98 453.5 c 128,-1,10
 134 491 134 491 186.5 513 c 128,-1,11
 239 535 239 535 306 535 c 0,12,13
 397 535 397 535 459 496.5 c 128,-1,14
 521 458 521 458 552 396 c 1,15,-1
 396 349 l 1,16,17
 365 399 365 399 305 399 c 0,18,19
 255 399 255 399 221.5 362 c 128,-1,20
 188 325 188 325 188 263 c 0,21,22
 188 232 188 232 197 206.5 c 128,-1,23
 206 181 206 181 222 163 c 128,-1,24
 238 145 238 145 259.5 135 c 128,-1,25
 281 125 281 125 305 125 c 0,26,27
 335 125 335 125 360 139.5 c 128,-1,28
 385 154 385 154 397 177 c 1,29,-1
 553 129 l 1,30,31
 524 68 524 68 460.5 29 c 128,-1,32
 397 -10 397 -10 306 -10 c 0,33,34
 240 -10 240 -10 187.5 12.5 c 128,-1,35
 135 35 135 35 98.5 72.5 c 128,-1,36
 62 110 62 110 43 159.5 c 128,-1,37
 24 209 24 209 24 263 c 256,7,8
EndSplineSet
EndChar

StartChar: Cdotaccent
Encoding: 266 266 205
Width: 688
GlyphClass: 2
Flags: W
LayerCount: 2
Fore
SplineSet
27 361 m 0,0,1
 27 425 27 425 51 488.5 c 128,-1,2
 75 552 75 552 121 602 c 128,-1,3
 167 652 167 652 233 683 c 128,-1,4
 299 714 299 714 383 714 c 0,5,6
 483 714 483 714 556.5 671 c 128,-1,7
 630 628 630 628 666 559 c 1,8,-1
 540 471 l 1,9,10
 528 499 528 499 509.5 517.5 c 128,-1,11
 491 536 491 536 469 547.5 c 128,-1,12
 447 559 447 559 424 563.5 c 128,-1,13
 401 568 401 568 379 568 c 0,14,15
 332 568 332 568 297 549 c 128,-1,16
 262 530 262 530 239 500 c 128,-1,17
 216 470 216 470 205 432 c 128,-1,18
 194 394 194 394 194 355 c 0,19,20
 194 313 194 313 207 274 c 128,-1,21
 220 235 220 235 244.5 205 c 128,-1,22
 269 175 269 175 303.5 157.5 c 128,-1,23
 338 140 338 140 381 140 c 0,24,25
 403 140 403 140 426.5 145.5 c 128,-1,26
 450 151 450 151 471.5 162.5 c 128,-1,27
 493 174 493 174 511 192.5 c 128,-1,28
 529 211 529 211 540 238 c 1,29,-1
 674 159 l 1,30,31
 658 120 658 120 626.5 89 c 128,-1,32
 595 58 595 58 554 37 c 128,-1,33
 513 16 513 16 467 5 c 128,-1,34
 421 -6 421 -6 377 -6 c 0,35,36
 300 -6 300 -6 235.5 25.5 c 128,-1,37
 171 57 171 57 124.5 109 c 128,-1,38
 78 161 78 161 52.5 227 c 128,-1,39
 27 293 27 293 27 361 c 0,0,1
314 778 m 1,40,-1
 314 915 l 1,41,-1
 458 915 l 1,42,-1
 458 778 l 1,43,-1
 314 778 l 1,40,-1
EndSplineSet
EndChar

StartChar: cdotaccent
Encoding: 267 267 206
Width: 570
GlyphClass: 2
Flags: W
LayerCount: 2
Fore
SplineSet
24 263 m 256,0,1
 24 317 24 317 43 366.5 c 128,-1,2
 62 416 62 416 98 453.5 c 128,-1,3
 134 491 134 491 186.5 513 c 128,-1,4
 239 535 239 535 306 535 c 0,5,6
 397 535 397 535 459 496.5 c 128,-1,7
 521 458 521 458 552 396 c 1,8,-1
 396 349 l 1,9,10
 365 399 365 399 305 399 c 0,11,12
 255 399 255 399 221.5 362 c 128,-1,13
 188 325 188 325 188 263 c 0,14,15
 188 232 188 232 197 206.5 c 128,-1,16
 206 181 206 181 222 163 c 128,-1,17
 238 145 238 145 259.5 135 c 128,-1,18
 281 125 281 125 305 125 c 0,19,20
 335 125 335 125 360 139.5 c 128,-1,21
 385 154 385 154 397 177 c 1,22,-1
 553 129 l 1,23,24
 524 68 524 68 460.5 29 c 128,-1,25
 397 -10 397 -10 306 -10 c 0,26,27
 240 -10 240 -10 187.5 12.5 c 128,-1,28
 135 35 135 35 98.5 72.5 c 128,-1,29
 62 110 62 110 43 159.5 c 128,-1,30
 24 209 24 209 24 263 c 256,0,1
234 593 m 1,31,-1
 234 730 l 1,32,-1
 378 730 l 1,33,-1
 378 593 l 1,34,-1
 234 593 l 1,31,-1
EndSplineSet
EndChar

StartChar: Ccaron
Encoding: 268 268 207
Width: 688
GlyphClass: 2
Flags: W
LayerCount: 2
Fore
SplineSet
304 915 m 1,0,-1
 389 852 l 1,1,-1
 474 915 l 1,2,-1
 556 878 l 1,3,-1
 447 771 l 1,4,-1
 332 771 l 1,5,-1
 222 878 l 1,6,-1
 304 915 l 1,0,-1
27 361 m 0,7,8
 27 425 27 425 51 488.5 c 128,-1,9
 75 552 75 552 121 602 c 128,-1,10
 167 652 167 652 233 683 c 128,-1,11
 299 714 299 714 383 714 c 0,12,13
 483 714 483 714 556.5 671 c 128,-1,14
 630 628 630 628 666 559 c 1,15,-1
 540 471 l 1,16,17
 528 499 528 499 509.5 517.5 c 128,-1,18
 491 536 491 536 469 547.5 c 128,-1,19
 447 559 447 559 424 563.5 c 128,-1,20
 401 568 401 568 379 568 c 0,21,22
 332 568 332 568 297 549 c 128,-1,23
 262 530 262 530 239 500 c 128,-1,24
 216 470 216 470 205 432 c 128,-1,25
 194 394 194 394 194 355 c 0,26,27
 194 313 194 313 207 274 c 128,-1,28
 220 235 220 235 244.5 205 c 128,-1,29
 269 175 269 175 303.5 157.5 c 128,-1,30
 338 140 338 140 381 140 c 0,31,32
 403 140 403 140 426.5 145.5 c 128,-1,33
 450 151 450 151 471.5 162.5 c 128,-1,34
 493 174 493 174 511 192.5 c 128,-1,35
 529 211 529 211 540 238 c 1,36,-1
 674 159 l 1,37,38
 658 120 658 120 626.5 89 c 128,-1,39
 595 58 595 58 554 37 c 128,-1,40
 513 16 513 16 467 5 c 128,-1,41
 421 -6 421 -6 377 -6 c 0,42,43
 300 -6 300 -6 235.5 25.5 c 128,-1,44
 171 57 171 57 124.5 109 c 128,-1,45
 78 161 78 161 52.5 227 c 128,-1,46
 27 293 27 293 27 361 c 0,7,8
EndSplineSet
EndChar

StartChar: ccaron
Encoding: 269 269 208
Width: 570
GlyphClass: 2
Flags: W
LayerCount: 2
Fore
SplineSet
220 730 m 1,0,-1
 305 667 l 1,1,-1
 390 730 l 1,2,-1
 472 693 l 1,3,-1
 363 586 l 1,4,-1
 248 586 l 1,5,-1
 138 693 l 1,6,-1
 220 730 l 1,0,-1
24 263 m 256,7,8
 24 317 24 317 43 366.5 c 128,-1,9
 62 416 62 416 98 453.5 c 128,-1,10
 134 491 134 491 186.5 513 c 128,-1,11
 239 535 239 535 306 535 c 0,12,13
 397 535 397 535 459 496.5 c 128,-1,14
 521 458 521 458 552 396 c 1,15,-1
 396 349 l 1,16,17
 365 399 365 399 305 399 c 0,18,19
 255 399 255 399 221.5 362 c 128,-1,20
 188 325 188 325 188 263 c 0,21,22
 188 232 188 232 197 206.5 c 128,-1,23
 206 181 206 181 222 163 c 128,-1,24
 238 145 238 145 259.5 135 c 128,-1,25
 281 125 281 125 305 125 c 0,26,27
 335 125 335 125 360 139.5 c 128,-1,28
 385 154 385 154 397 177 c 1,29,-1
 553 129 l 1,30,31
 524 68 524 68 460.5 29 c 128,-1,32
 397 -10 397 -10 306 -10 c 0,33,34
 240 -10 240 -10 187.5 12.5 c 128,-1,35
 135 35 135 35 98.5 72.5 c 128,-1,36
 62 110 62 110 43 159.5 c 128,-1,37
 24 209 24 209 24 263 c 256,7,8
EndSplineSet
EndChar

StartChar: Dcaron
Encoding: 270 270 209
Width: 716
GlyphClass: 2
Flags: W
LayerCount: 2
Fore
SplineSet
239 915 m 1,0,-1
 324 852 l 1,1,-1
 409 915 l 1,2,-1
 491 878 l 1,3,-1
 382 771 l 1,4,-1
 267 771 l 1,5,-1
 157 878 l 1,6,-1
 239 915 l 1,0,-1
68 0 m 1,7,-1
 68 710 l 1,8,-1
 333 710 l 2,9,10
 421 710 421 710 487 682 c 128,-1,11
 553 654 553 654 597.5 606 c 128,-1,12
 642 558 642 558 664.5 493.5 c 128,-1,13
 687 429 687 429 687 356 c 0,14,15
 687 275 687 275 662 209.5 c 128,-1,16
 637 144 637 144 590.5 97.5 c 128,-1,17
 544 51 544 51 478.5 25.5 c 128,-1,18
 413 0 413 0 333 0 c 2,19,-1
 68 0 l 1,7,-1
520 356 m 0,20,21
 520 403 520 403 507.5 441.5 c 128,-1,22
 495 480 495 480 471 508 c 128,-1,23
 447 536 447 536 412 551 c 128,-1,24
 377 566 377 566 333 566 c 2,25,-1
 232 566 l 1,26,-1
 232 144 l 1,27,-1
 333 144 l 2,28,29
 378 144 378 144 413 160 c 128,-1,30
 448 176 448 176 471.5 204.5 c 128,-1,31
 495 233 495 233 507.5 271.5 c 128,-1,32
 520 310 520 310 520 356 c 0,20,21
EndSplineSet
EndChar

StartChar: dcaron
Encoding: 271 271 210
Width: 654
GlyphClass: 2
Flags: W
LayerCount: 2
Fore
SplineSet
711 572 m 1,0,-1
 609 600 l 1,1,-1
 661 730 l 1,2,-1
 806 730 l 1,3,-1
 711 572 l 1,0,-1
273 -10 m 256,4,5
 219 -10 219 -10 173.5 10.5 c 128,-1,6
 128 31 128 31 95 68 c 128,-1,7
 62 105 62 105 43.5 154.5 c 128,-1,8
 25 204 25 204 25 263 c 0,9,10
 25 320 25 320 42 370 c 128,-1,11
 59 420 59 420 90 456.5 c 128,-1,12
 121 493 121 493 163.5 514 c 128,-1,13
 206 535 206 535 257 535 c 0,14,15
 312 535 312 535 356.5 509 c 128,-1,16
 401 483 401 483 425 439 c 1,17,-1
 425 730 l 1,18,-1
 585 730 l 1,19,-1
 585 180 l 2,20,21
 585 156 585 156 592.5 146.5 c 128,-1,22
 600 137 600 137 619 135 c 1,23,-1
 619 0 l 1,24,25
 597 -5 597 -5 581 -6.5 c 128,-1,26
 565 -8 565 -8 551 -8 c 0,27,28
 509 -8 509 -8 483 9.5 c 128,-1,29
 457 27 457 27 453 60 c 2,30,-1
 450 87 l 1,31,32
 422 38 422 38 374.5 14 c 128,-1,33
 327 -10 327 -10 273 -10 c 256,4,5
316 125 m 0,34,35
 349 125 349 125 379.5 144.5 c 128,-1,36
 410 164 410 164 426 198 c 1,37,-1
 426 308 l 1,38,39
 411 348 411 348 377.5 373.5 c 128,-1,40
 344 399 344 399 308 399 c 0,41,42
 282 399 282 399 260.5 387.5 c 128,-1,43
 239 376 239 376 223 357 c 128,-1,44
 207 338 207 338 198.5 313 c 128,-1,45
 190 288 190 288 190 260 c 0,46,47
 190 231 190 231 199.5 206 c 128,-1,48
 209 181 209 181 225.5 163 c 128,-1,49
 242 145 242 145 265.5 135 c 128,-1,50
 289 125 289 125 316 125 c 0,34,35
EndSplineSet
EndChar

StartChar: Dcroat
Encoding: 272 272 211
Width: 721
GlyphClass: 2
Flags: W
LayerCount: 2
Fore
SplineSet
73 0 m 1,0,-1
 73 298 l 1,1,-1
 30 298 l 1,2,-1
 30 416 l 1,3,-1
 73 416 l 1,4,-1
 73 710 l 1,5,-1
 338 710 l 2,6,7
 426 710 426 710 492 682 c 128,-1,8
 558 654 558 654 602.5 606 c 128,-1,9
 647 558 647 558 669.5 493.5 c 128,-1,10
 692 429 692 429 692 356 c 0,11,12
 692 275 692 275 667 209.5 c 128,-1,13
 642 144 642 144 595.5 97.5 c 128,-1,14
 549 51 549 51 483.5 25.5 c 128,-1,15
 418 0 418 0 338 0 c 2,16,-1
 73 0 l 1,0,-1
525 356 m 0,17,18
 525 403 525 403 512.5 441.5 c 128,-1,19
 500 480 500 480 476 508 c 128,-1,20
 452 536 452 536 417 551 c 128,-1,21
 382 566 382 566 338 566 c 2,22,-1
 237 566 l 1,23,-1
 237 416 l 1,24,-1
 365 416 l 1,25,-1
 365 298 l 1,26,-1
 237 298 l 1,27,-1
 237 144 l 1,28,-1
 338 144 l 2,29,30
 383 144 383 144 418 160 c 128,-1,31
 453 176 453 176 476.5 204.5 c 128,-1,32
 500 233 500 233 512.5 271.5 c 128,-1,33
 525 310 525 310 525 356 c 0,17,18
EndSplineSet
EndChar

StartChar: dcroat
Encoding: 273 273 212
Width: 654
GlyphClass: 2
Flags: W
LayerCount: 2
Fore
SplineSet
273 -10 m 256,0,1
 219 -10 219 -10 173.5 10.5 c 128,-1,2
 128 31 128 31 95 68 c 128,-1,3
 62 105 62 105 43.5 154.5 c 128,-1,4
 25 204 25 204 25 263 c 0,5,6
 25 320 25 320 42 370 c 128,-1,7
 59 420 59 420 90 456.5 c 128,-1,8
 121 493 121 493 163.5 514 c 128,-1,9
 206 535 206 535 257 535 c 0,10,11
 312 535 312 535 356.5 509 c 128,-1,12
 401 483 401 483 425 439 c 1,13,-1
 425 588 l 1,14,-1
 332 588 l 1,15,-1
 332 682 l 1,16,-1
 425 682 l 1,17,-1
 425 730 l 1,18,-1
 585 730 l 1,19,-1
 585 682 l 1,20,-1
 646 682 l 1,21,-1
 646 588 l 1,22,-1
 585 588 l 1,23,-1
 585 180 l 2,24,25
 585 156 585 156 592.5 146.5 c 128,-1,26
 600 137 600 137 619 135 c 1,27,-1
 619 0 l 1,28,29
 597 -5 597 -5 581 -6.5 c 128,-1,30
 565 -8 565 -8 551 -8 c 0,31,32
 509 -8 509 -8 483 9.5 c 128,-1,33
 457 27 457 27 453 60 c 2,34,-1
 450 87 l 1,35,36
 422 38 422 38 374.5 14 c 128,-1,37
 327 -10 327 -10 273 -10 c 256,0,1
316 125 m 0,38,39
 349 125 349 125 379.5 144.5 c 128,-1,40
 410 164 410 164 426 198 c 1,41,-1
 426 308 l 1,42,43
 411 348 411 348 377.5 373.5 c 128,-1,44
 344 399 344 399 308 399 c 0,45,46
 282 399 282 399 260.5 387.5 c 128,-1,47
 239 376 239 376 223 357 c 128,-1,48
 207 338 207 338 198.5 313 c 128,-1,49
 190 288 190 288 190 260 c 0,50,51
 190 231 190 231 199.5 206 c 128,-1,52
 209 181 209 181 225.5 163 c 128,-1,53
 242 145 242 145 265.5 135 c 128,-1,54
 289 125 289 125 316 125 c 0,38,39
EndSplineSet
EndChar

StartChar: Emacron
Encoding: 274 274 213
Width: 599
GlyphClass: 2
Flags: W
LayerCount: 2
Fore
SplineSet
567 144 m 1,0,-1
 567 0 l 1,1,-1
 68 0 l 1,2,-1
 68 710 l 1,3,-1
 558 710 l 1,4,-1
 558 566 l 1,5,-1
 232 566 l 1,6,-1
 232 428 l 1,7,-1
 512 428 l 1,8,-1
 512 295 l 1,9,-1
 232 295 l 1,10,-1
 232 144 l 1,11,-1
 567 144 l 1,0,-1
170 806 m 1,12,-1
 170 903 l 1,13,-1
 474 903 l 1,14,-1
 474 806 l 1,15,-1
 170 806 l 1,12,-1
EndSplineSet
EndChar

